SplineFontDB: 3.0
FontName: Terminal-Grotesque
FullName: Terminal Grotesque Regular
FamilyName: Terminal Grotesque
Weight: Book
Copyright: Copyright Rapha Bastide 2011
Version: 1.0
ItalicAngle: 0
UnderlinePosition: 127
UnderlineWidth: 51
Ascent: 819
Descent: 205
LayerCount: 2
Layer: 0 1 "Back"  1
Layer: 1 1 "Fore"  0
XUID: [1021 366 1577494475 15539195]
FSType: 4
OS2Version: 2
OS2_WeightWidthSlopeOnly: 0
OS2_UseTypoMetrics: 1
CreationTime: 1315634130
ModificationTime: 1332886368
PfmFamily: 81
TTFWeight: 400
TTFWidth: 5
LineGap: 0
VLineGap: 0
Panose: 0 0 4 0 0 0 0 0 0 0
OS2TypoAscent: -179
OS2TypoAOffset: 1
OS2TypoDescent: 13
OS2TypoDOffset: 1
OS2TypoLinegap: 0
OS2WinAscent: 0
OS2WinAOffset: 1
OS2WinDescent: 0
OS2WinDOffset: 1
HheadAscent: 0
HheadAOffset: 1
HheadDescent: 0
HheadDOffset: 1
OS2SubXSize: 512
OS2SubYSize: 512
OS2SubXOff: 0
OS2SubYOff: -96
OS2SupXSize: 512
OS2SupYSize: 512
OS2SupXOff: 0
OS2SupYOff: 512
OS2StrikeYSize: 51
OS2StrikeYPos: 204
OS2Vendor: 'FSTR'
OS2CodePages: 000001fb.00000000
OS2UnicodeRanges: a0000007.4000000a.00000000.00000000
Lookup: 4 0 1 "Latin ligatures"  {"Latin ligatures-1"  } ['liga' ('DFLT' <'dflt' > 'latn' <'dflt' > ) ]
Lookup: 258 0 0 "'kern' Horizontal Kerning in Latin lookup 0"  {"'kern' Horizontal Kerning in Latin lookup 0-1"  "kern"  } ['kern' ('DFLT' <'dflt' > 'latn' <'dflt' > ) ]
DEI: 91125
KernClass2: 21 12 "'kern' Horizontal Kerning in Latin lookup 0-1" 
 1 t
 9 f uniFB00
 1 d
 1 k
 1 A
 1 C
 1 r
 1 L
 1 V
 1 W
 1 P
 1 X
 1 F
 1 K
 1 R
 1 O
 5 slash
 1 T
 1 Y
 65 e o egrave eacute ecircumflex edieresis ograve oacute ocircumflex
 139 a o e a acute acircumflex atilde adieresis aring egrave eacute ecircumflex edieresis ograve oacute ocircumflex otilde odieresis ae ccedilla
 12 l j k i b h 
 7 m n u r
 130 B D E F H I K L M N P R U bracketleft Egrave Eacute Ecircumflex Edieresis Igrave Iacute Ntilde Ugrave Uacute Ucircumflex Udieresis
 60 O Q G C C cedilla Ograve Oacute Ocircumflex Otilde Odieresis
 1 V
 1 x
 1 T

StartChar: .notdef
Encoding: 65536 -1 0
Width: 756
Flags: W
LayerCount: 2
Fore
SplineSet
377 90 m 1,0,-1
 377 192 l 1,1,-1
 275 192 l 1,2,-1
 275 90 l 1,3,-1
 377 90 l 1,0,-1
478 209 m 1,4,-1
 478 311 l 1,5,-1
 275 311 l 1,6,-1
 275 209 l 1,7,-1
 478 209 l 1,4,-1
377 328 m 1,8,-1
 377 430 l 1,9,-1
 275 430 l 1,10,-1
 275 328 l 1,11,-1
 377 328 l 1,8,-1
478 447 m 1,12,-1
 478 548 l 1,13,-1
 377 548 l 2,14,15
 334 548 334 548 305 519 c 0,16,17
 275 488 275 488 275 447 c 1,18,-1
 478 447 l 1,12,-1
57 0 m 1,19,-1
 57 640 l 1,20,-1
 697 640 l 1,21,-1
 697 0 l 1,22,-1
 57 0 l 1,19,-1
EndSplineSet
Validated: 1
EndChar

StartChar: exclam
Encoding: 33 33 4
Width: 212
Flags: W
LayerCount: 2
Fore
SplineSet
57 0 m 1,0,-1
 57 96 l 1,1,-1
 153 96 l 1,2,-1
 153 0 l 1,3,-1
 57 0 l 1,0,-1
57 192 m 1,4,-1
 57 640 l 1,5,-1
 153 640 l 1,6,-1
 153 192 l 1,7,-1
 57 192 l 1,4,-1
EndSplineSet
Validated: 1
EndChar

StartChar: quotedbl
Encoding: 34 34 5
Width: 283
Flags: W
LayerCount: 2
Fore
SplineSet
32 480 m 1,0,-1
 32 640 l 1,1,-1
 96 640 l 1,2,-1
 96 480 l 1,3,-1
 32 480 l 1,0,-1
160 480 m 1,4,-1
 160 640 l 1,5,-1
 224 640 l 1,6,-1
 224 480 l 1,7,-1
 160 480 l 1,4,-1
EndSplineSet
Validated: 1
EndChar

StartChar: numbersign
Encoding: 35 35 6
Width: 752
Flags: W
LayerCount: 2
Fore
SplineSet
438 224 m 1,0,-1
 438 320 l 1,1,-1
 470 320 l 1,2,-1
 470 416 l 1,3,-1
 310 416 l 1,4,-1
 310 320 l 1,5,-1
 278 320 l 1,6,-1
 278 224 l 1,7,-1
 438 224 l 1,0,-1
86 0 m 1,8,-1
 86 64 l 1,9,-1
 118 64 l 1,10,-1
 118 160 l 1,11,-1
 22 160 l 1,12,-1
 22 224 l 1,13,-1
 182 224 l 1,14,-1
 182 320 l 1,15,-1
 214 320 l 1,16,-1
 214 416 l 1,17,-1
 118 416 l 1,18,-1
 118 480 l 1,19,-1
 278 480 l 1,20,-1
 278 576 l 1,21,-1
 310 576 l 1,22,-1
 310 640 l 1,23,-1
 406 640 l 1,24,-1
 406 576 l 1,25,-1
 374 576 l 1,26,-1
 374 480 l 1,27,-1
 534 480 l 1,28,-1
 534 576 l 1,29,-1
 566 576 l 1,30,-1
 566 640 l 1,31,-1
 662 640 l 1,32,-1
 662 576 l 1,33,-1
 630 576 l 1,34,-1
 630 480 l 1,35,-1
 726 480 l 1,36,-1
 726 416 l 1,37,-1
 566 416 l 1,38,-1
 566 320 l 1,39,-1
 534 320 l 1,40,-1
 534 224 l 1,41,-1
 630 224 l 1,42,-1
 630 160 l 1,43,-1
 470 160 l 1,44,-1
 470 64 l 1,45,-1
 438 64 l 1,46,-1
 438 0 l 1,47,-1
 342 0 l 1,48,-1
 342 64 l 1,49,-1
 374 64 l 1,50,-1
 374 160 l 1,51,-1
 214 160 l 1,52,-1
 214 64 l 1,53,-1
 182 64 l 1,54,-1
 182 0 l 1,55,-1
 86 0 l 1,8,-1
EndSplineSet
Validated: 1
EndChar

StartChar: dollar
Encoding: 36 36 7
Width: 513
Flags: W
LayerCount: 2
Fore
SplineSet
339 96 m 1,0,-1
 339 128 l 1,1,-1
 371 128 l 1,2,-1
 371 224 l 1,3,-1
 339 224 l 1,4,-1
 339 256 l 1,5,-1
 307 256 l 1,6,-1
 307 96 l 1,7,-1
 339 96 l 1,0,-1
243 384 m 1,8,-1
 243 544 l 1,9,-1
 179 544 l 1,10,-1
 179 512 l 1,11,-1
 147 512 l 1,12,-1
 147 416 l 1,13,-1
 211 416 l 1,14,-1
 211 384 l 1,15,-1
 243 384 l 1,8,-1
243 -64 m 1,16,-1
 243 0 l 1,17,-1
 179 0 l 1,18,-1
 179 32 l 1,19,-1
 115 32 l 1,20,-1
 115 64 l 1,21,-1
 83 64 l 1,22,-1
 83 96 l 1,23,-1
 51 96 l 1,24,-1
 51 160 l 1,25,-1
 147 160 l 1,26,-1
 147 128 l 1,27,-1
 179 128 l 1,28,-1
 179 96 l 1,29,-1
 243 96 l 1,30,-1
 243 288 l 1,31,-1
 211 288 l 1,32,-1
 211 320 l 1,33,-1
 115 320 l 1,34,-1
 115 352 l 1,35,-1
 83 352 l 1,36,-1
 83 384 l 1,37,-1
 51 384 l 1,38,-1
 51 544 l 1,39,-1
 83 544 l 1,40,-1
 83 576 l 1,41,-1
 115 576 l 1,42,-1
 115 608 l 1,43,-1
 147 608 l 1,44,-1
 147 640 l 1,45,-1
 243 640 l 1,46,-1
 243 704 l 1,47,-1
 307 704 l 1,48,-1
 307 640 l 1,49,-1
 371 640 l 1,50,-1
 371 608 l 1,51,-1
 403 608 l 1,52,-1
 403 576 l 1,53,-1
 435 576 l 1,54,-1
 435 512 l 1,55,-1
 339 512 l 1,56,-1
 339 544 l 1,57,-1
 307 544 l 1,58,-1
 307 352 l 1,59,-1
 371 352 l 1,60,-1
 371 320 l 1,61,-1
 435 320 l 1,62,-1
 435 256 l 1,63,-1
 467 256 l 1,64,-1
 467 96 l 1,65,-1
 435 96 l 1,66,-1
 435 64 l 1,67,-1
 403 64 l 1,68,-1
 403 32 l 1,69,-1
 339 32 l 1,70,-1
 339 0 l 1,71,-1
 307 0 l 1,72,-1
 307 -64 l 1,73,-1
 243 -64 l 1,16,-1
EndSplineSet
Validated: 1
EndChar

StartChar: percent
Encoding: 37 37 8
Width: 650
Flags: W
LayerCount: 2
Fore
SplineSet
527 64 m 1,0,-1
 527 160 l 1,1,-1
 463 160 l 1,2,-1
 463 64 l 1,3,-1
 527 64 l 1,0,-1
463 0 m 1,4,-1
 463 32 l 1,5,-1
 431 32 l 1,6,-1
 431 64 l 1,7,-1
 399 64 l 1,8,-1
 399 160 l 1,9,-1
 431 160 l 1,10,-1
 431 192 l 1,11,-1
 463 192 l 1,12,-1
 463 224 l 1,13,-1
 527 224 l 1,14,-1
 527 192 l 1,15,-1
 559 192 l 1,16,-1
 559 160 l 1,17,-1
 591 160 l 1,18,-1
 591 64 l 1,19,-1
 559 64 l 1,20,-1
 559 32 l 1,21,-1
 527 32 l 1,22,-1
 527 0 l 1,23,-1
 463 0 l 1,4,-1
175 480 m 1,24,-1
 175 576 l 1,25,-1
 111 576 l 1,26,-1
 111 480 l 1,27,-1
 175 480 l 1,24,-1
111 416 m 1,28,-1
 111 448 l 1,29,-1
 79 448 l 1,30,-1
 79 480 l 1,31,-1
 47 480 l 1,32,-1
 47 576 l 1,33,-1
 79 576 l 1,34,-1
 79 608 l 1,35,-1
 111 608 l 1,36,-1
 111 640 l 1,37,-1
 175 640 l 1,38,-1
 175 608 l 1,39,-1
 207 608 l 1,40,-1
 207 576 l 1,41,-1
 239 576 l 1,42,-1
 239 480 l 1,43,-1
 207 480 l 1,44,-1
 207 448 l 1,45,-1
 175 448 l 1,46,-1
 175 416 l 1,47,-1
 111 416 l 1,28,-1
47 0 m 1,48,-1
 47 32 l 1,49,-1
 79 32 l 1,50,-1
 79 96 l 1,51,-1
 111 96 l 1,52,-1
 111 128 l 1,53,-1
 143 128 l 1,54,-1
 143 160 l 1,55,-1
 175 160 l 1,56,-1
 175 224 l 1,57,-1
 207 224 l 1,58,-1
 207 256 l 1,59,-1
 239 256 l 1,60,-1
 239 288 l 1,61,-1
 271 288 l 1,62,-1
 271 352 l 1,63,-1
 303 352 l 1,64,-1
 303 384 l 1,65,-1
 335 384 l 1,66,-1
 335 416 l 1,67,-1
 367 416 l 1,68,-1
 367 480 l 1,69,-1
 399 480 l 1,70,-1
 399 512 l 1,71,-1
 431 512 l 1,72,-1
 431 544 l 1,73,-1
 463 544 l 1,74,-1
 463 608 l 1,75,-1
 495 608 l 1,76,-1
 495 640 l 1,77,-1
 591 640 l 1,78,-1
 591 608 l 1,79,-1
 559 608 l 1,80,-1
 559 544 l 1,81,-1
 527 544 l 1,82,-1
 527 512 l 1,83,-1
 495 512 l 1,84,-1
 495 480 l 1,85,-1
 463 480 l 1,86,-1
 463 416 l 1,87,-1
 431 416 l 1,88,-1
 431 384 l 1,89,-1
 399 384 l 1,90,-1
 399 352 l 1,91,-1
 367 352 l 1,92,-1
 367 288 l 1,93,-1
 335 288 l 1,94,-1
 335 256 l 1,95,-1
 303 256 l 1,96,-1
 303 224 l 1,97,-1
 271 224 l 1,98,-1
 271 160 l 1,99,-1
 239 160 l 1,100,-1
 239 128 l 1,101,-1
 207 128 l 1,102,-1
 207 96 l 1,103,-1
 175 96 l 1,104,-1
 175 32 l 1,105,-1
 143 32 l 1,106,-1
 143 0 l 1,107,-1
 47 0 l 1,48,-1
EndSplineSet
Validated: 1
EndChar

StartChar: ampersand
Encoding: 38 38 9
Width: 586
Flags: W
LayerCount: 2
Fore
SplineSet
173 0 m 1,0,-1
 173 32 l 1,1,-1
 109 32 l 1,2,-1
 109 64 l 1,3,-1
 77 64 l 1,4,-1
 77 128 l 1,5,-1
 45 128 l 1,6,-1
 45 256 l 1,7,-1
 77 256 l 1,8,-1
 77 320 l 1,9,-1
 109 320 l 1,10,-1
 109 352 l 1,11,-1
 141 352 l 1,12,-1
 141 384 l 1,13,-1
 109 384 l 1,14,-1
 109 416 l 1,15,-1
 77 416 l 1,16,-1
 77 512 l 1,17,-1
 109 512 l 1,18,-1
 109 576 l 1,19,-1
 141 576 l 1,20,-1
 141 608 l 1,21,-1
 205 608 l 1,22,-1
 205 640 l 1,23,-1
 333 640 l 1,24,-1
 333 608 l 1,25,-1
 397 608 l 1,26,-1
 397 576 l 1,27,-1
 429 576 l 1,28,-1
 429 544 l 1,29,-1
 461 544 l 1,30,-1
 461 448 l 1,31,-1
 429 448 l 1,32,-1
 429 416 l 1,33,-1
 333 416 l 1,34,-1
 333 448 l 1,35,-1
 365 448 l 1,36,-1
 365 512 l 1,37,-1
 333 512 l 1,38,-1
 333 544 l 1,39,-1
 205 544 l 1,40,-1
 205 512 l 1,41,-1
 173 512 l 1,42,-1
 173 416 l 1,43,-1
 205 416 l 1,44,-1
 205 384 l 1,45,-1
 269 384 l 1,46,-1
 269 320 l 1,47,-1
 205 320 l 1,48,-1
 205 288 l 1,49,-1
 173 288 l 1,50,-1
 173 256 l 1,51,-1
 141 256 l 1,52,-1
 141 128 l 1,53,-1
 173 128 l 1,54,-1
 173 96 l 1,55,-1
 365 96 l 1,56,-1
 365 128 l 1,57,-1
 397 128 l 1,58,-1
 397 224 l 1,59,-1
 365 224 l 1,60,-1
 365 288 l 1,61,-1
 557 288 l 1,62,-1
 557 224 l 1,63,-1
 493 224 l 1,64,-1
 493 96 l 1,65,-1
 461 96 l 1,66,-1
 461 64 l 1,67,-1
 429 64 l 1,68,-1
 429 32 l 1,69,-1
 397 32 l 1,70,-1
 397 0 l 1,71,-1
 173 0 l 1,0,-1
EndSplineSet
Validated: 1
EndChar

StartChar: quotesingle
Encoding: 39 39 10
Width: 155
Flags: W
LayerCount: 2
Fore
SplineSet
32 480 m 1,0,-1
 32 640 l 1,1,-1
 96 640 l 1,2,-1
 96 480 l 1,3,-1
 32 480 l 1,0,-1
EndSplineSet
Validated: 1
EndChar

StartChar: parenleft
Encoding: 40 40 11
Width: 329
Flags: W
LayerCount: 2
Fore
SplineSet
174 0 m 1,0,-1
 174 32 l 1,1,-1
 142 32 l 1,2,-1
 142 64 l 1,3,-1
 110 64 l 1,4,-1
 110 96 l 1,5,-1
 78 96 l 1,6,-1
 78 192 l 1,7,-1
 46 192 l 1,8,-1
 46 448 l 1,9,-1
 78 448 l 1,10,-1
 78 544 l 1,11,-1
 110 544 l 1,12,-1
 110 576 l 1,13,-1
 142 576 l 1,14,-1
 142 608 l 1,15,-1
 174 608 l 1,16,-1
 174 640 l 1,17,-1
 270 640 l 1,18,-1
 270 608 l 1,19,-1
 238 608 l 1,20,-1
 238 576 l 1,21,-1
 206 576 l 1,22,-1
 206 512 l 1,23,-1
 174 512 l 1,24,-1
 174 416 l 1,25,-1
 142 416 l 1,26,-1
 142 224 l 1,27,-1
 174 224 l 1,28,-1
 174 128 l 1,29,-1
 206 128 l 1,30,-1
 206 64 l 1,31,-1
 238 64 l 1,32,-1
 238 32 l 1,33,-1
 270 32 l 1,34,-1
 270 0 l 1,35,-1
 174 0 l 1,0,-1
EndSplineSet
Validated: 1
EndChar

StartChar: parenright
Encoding: 41 41 12
Width: 307
Flags: W
LayerCount: 2
Fore
SplineSet
35 0 m 1,0,-1
 35 32 l 1,1,-1
 67 32 l 1,2,-1
 67 64 l 1,3,-1
 99 64 l 1,4,-1
 99 128 l 1,5,-1
 131 128 l 1,6,-1
 131 224 l 1,7,-1
 163 224 l 1,8,-1
 163 416 l 1,9,-1
 131 416 l 1,10,-1
 131 512 l 1,11,-1
 99 512 l 1,12,-1
 99 576 l 1,13,-1
 67 576 l 1,14,-1
 67 608 l 1,15,-1
 35 608 l 1,16,-1
 35 640 l 1,17,-1
 131 640 l 1,18,-1
 131 608 l 1,19,-1
 163 608 l 1,20,-1
 163 576 l 1,21,-1
 195 576 l 1,22,-1
 195 544 l 1,23,-1
 227 544 l 1,24,-1
 227 448 l 1,25,-1
 259 448 l 1,26,-1
 259 192 l 1,27,-1
 227 192 l 1,28,-1
 227 96 l 1,29,-1
 195 96 l 1,30,-1
 195 64 l 1,31,-1
 163 64 l 1,32,-1
 163 32 l 1,33,-1
 131 32 l 1,34,-1
 131 0 l 1,35,-1
 35 0 l 1,0,-1
EndSplineSet
Validated: 1
EndChar

StartChar: asterisk
Encoding: 42 42 13
Width: 304
Flags: W
LayerCount: 2
Fore
SplineSet
53 448 m 1,0,-1
 53 512 l 1,1,-1
 85 512 l 1,2,-1
 85 544 l 1,3,-1
 53 544 l 1,4,-1
 53 576 l 1,5,-1
 21 576 l 1,6,-1
 21 608 l 1,7,-1
 117 608 l 1,8,-1
 117 672 l 1,9,-1
 149 672 l 1,10,-1
 149 608 l 1,11,-1
 245 608 l 1,12,-1
 245 576 l 1,13,-1
 213 576 l 1,14,-1
 213 544 l 1,15,-1
 181 544 l 1,16,-1
 181 512 l 1,17,-1
 213 512 l 1,18,-1
 213 448 l 1,19,-1
 181 448 l 1,20,-1
 181 480 l 1,21,-1
 149 480 l 1,22,-1
 149 512 l 1,23,-1
 117 512 l 1,24,-1
 117 480 l 1,25,-1
 85 480 l 1,26,-1
 85 448 l 1,27,-1
 53 448 l 1,0,-1
EndSplineSet
Validated: 1
EndChar

StartChar: plus
Encoding: 43 43 14
Width: 524
Flags: W
LayerCount: 2
Fore
SplineSet
207 32 m 1,0,-1
 207 224 l 1,1,-1
 15 224 l 1,2,-1
 15 320 l 1,3,-1
 207 320 l 1,4,-1
 207 512 l 1,5,-1
 303 512 l 1,6,-1
 303 320 l 1,7,-1
 495 320 l 1,8,-1
 495 224 l 1,9,-1
 303 224 l 1,10,-1
 303 32 l 1,11,-1
 207 32 l 1,0,-1
EndSplineSet
Validated: 1
EndChar

StartChar: comma
Encoding: 44 44 15
Width: 180
Flags: W
LayerCount: 2
Fore
SplineSet
27 -96 m 1,0,-1
 27 -64 l 1,1,-1
 59 -64 l 1,2,-1
 59 -32 l 1,3,-1
 91 -32 l 1,4,-1
 91 0 l 1,5,-1
 27 0 l 1,6,-1
 27 96 l 1,7,-1
 123 96 l 1,8,-1
 123 -64 l 1,9,-1
 91 -64 l 1,10,-1
 91 -96 l 1,11,-1
 27 -96 l 1,0,-1
EndSplineSet
Validated: 1
EndChar

StartChar: hyphen
Encoding: 45 45 16
Width: 422
Flags: W
LayerCount: 2
Fore
SplineSet
387 224 m 25,0,-1
 35 224 l 1,1,-1
 35 320 l 1,2,-1
 387 320 l 1,3,-1
 387 224 l 25,0,-1
EndSplineSet
Validated: 1
EndChar

StartChar: period
Encoding: 46 46 17
Width: 171
Flags: W
LayerCount: 2
Fore
SplineSet
27 0 m 1,0,-1
 27 96 l 1,1,-1
 123 96 l 1,2,-1
 123 0 l 1,3,-1
 27 0 l 1,0,-1
EndSplineSet
Validated: 1
EndChar

StartChar: slash
Encoding: 47 47 18
Width: 479
Flags: W
LayerCount: 2
Fore
SplineSet
-10 -64 m 1,0,-1
 -10 0 l 1,1,-1
 22 0 l 1,2,-1
 22 64 l 1,3,-1
 54 64 l 1,4,-1
 54 128 l 1,5,-1
 86 128 l 1,6,-1
 86 192 l 1,7,-1
 118 192 l 1,8,-1
 118 256 l 1,9,-1
 150 256 l 1,10,-1
 150 320 l 1,11,-1
 182 320 l 1,12,-1
 182 384 l 1,13,-1
 214 384 l 1,14,-1
 214 448 l 1,15,-1
 246 448 l 1,16,-1
 246 512 l 1,17,-1
 278 512 l 1,18,-1
 278 576 l 1,19,-1
 310 576 l 1,20,-1
 310 640 l 1,21,-1
 342 640 l 1,22,-1
 342 704 l 1,23,-1
 438 704 l 1,24,-1
 438 640 l 1,25,-1
 406 640 l 1,26,-1
 406 576 l 1,27,-1
 374 576 l 1,28,-1
 374 512 l 1,29,-1
 342 512 l 1,30,-1
 342 448 l 1,31,-1
 310 448 l 1,32,-1
 310 384 l 1,33,-1
 278 384 l 1,34,-1
 278 320 l 1,35,-1
 246 320 l 1,36,-1
 246 256 l 1,37,-1
 214 256 l 1,38,-1
 214 192 l 1,39,-1
 182 192 l 1,40,-1
 182 128 l 1,41,-1
 150 128 l 1,42,-1
 150 64 l 1,43,-1
 118 64 l 1,44,-1
 118 0 l 1,45,-1
 86 0 l 1,46,-1
 86 -64 l 1,47,-1
 -10 -64 l 1,0,-1
EndSplineSet
Validated: 1
EndChar

StartChar: zero
Encoding: 48 48 19
Width: 575
Flags: W
LayerCount: 2
Fore
SplineSet
367 96 m 1,0,-1
 367 128 l 1,1,-1
 399 128 l 1,2,-1
 399 224 l 1,3,-1
 431 224 l 1,4,-1
 431 416 l 1,5,-1
 399 416 l 1,6,-1
 399 512 l 1,7,-1
 367 512 l 1,8,-1
 367 544 l 1,9,-1
 207 544 l 1,10,-1
 207 512 l 1,11,-1
 175 512 l 1,12,-1
 175 416 l 1,13,-1
 143 416 l 1,14,-1
 143 224 l 1,15,-1
 175 224 l 1,16,-1
 175 128 l 1,17,-1
 207 128 l 1,18,-1
 207 96 l 1,19,-1
 367 96 l 1,0,-1
175 0 m 1,20,-1
 175 32 l 1,21,-1
 111 32 l 1,22,-1
 111 96 l 1,23,-1
 79 96 l 1,24,-1
 79 192 l 1,25,-1
 47 192 l 1,26,-1
 47 448 l 1,27,-1
 79 448 l 1,28,-1
 79 544 l 1,29,-1
 111 544 l 1,30,-1
 111 608 l 1,31,-1
 175 608 l 1,32,-1
 175 640 l 1,33,-1
 399 640 l 1,34,-1
 399 608 l 1,35,-1
 463 608 l 1,36,-1
 463 544 l 1,37,-1
 495 544 l 1,38,-1
 495 448 l 1,39,-1
 527 448 l 1,40,-1
 527 192 l 1,41,-1
 495 192 l 1,42,-1
 495 96 l 1,43,-1
 463 96 l 1,44,-1
 463 32 l 1,45,-1
 399 32 l 1,46,-1
 399 0 l 1,47,-1
 175 0 l 1,20,-1
EndSplineSet
Validated: 1
EndChar

StartChar: one
Encoding: 49 49 20
Width: 281
Flags: W
LayerCount: 2
Fore
SplineSet
126 0 m 1,0,-1
 126 480 l 1,1,-1
 30 480 l 1,2,-1
 30 544 l 1,3,-1
 62 544 l 1,4,-1
 62 576 l 1,5,-1
 94 576 l 1,6,-1
 94 608 l 1,7,-1
 126 608 l 1,8,-1
 126 640 l 1,9,-1
 222 640 l 1,10,-1
 222 0 l 1,11,-1
 126 0 l 1,0,-1
EndSplineSet
Validated: 1
EndChar

StartChar: two
Encoding: 50 50 21
Width: 546
Flags: W
LayerCount: 2
Fore
SplineSet
50 0 m 1,0,-1
 50 96 l 1,1,-1
 82 96 l 1,2,-1
 82 128 l 1,3,-1
 114 128 l 1,4,-1
 114 160 l 1,5,-1
 146 160 l 1,6,-1
 146 192 l 1,7,-1
 178 192 l 1,8,-1
 178 224 l 1,9,-1
 210 224 l 1,10,-1
 210 256 l 1,11,-1
 242 256 l 1,12,-1
 242 288 l 1,13,-1
 274 288 l 1,14,-1
 274 320 l 1,15,-1
 306 320 l 1,16,-1
 306 352 l 1,17,-1
 338 352 l 1,18,-1
 338 384 l 1,19,-1
 370 384 l 1,20,-1
 370 512 l 1,21,-1
 338 512 l 1,22,-1
 338 544 l 1,23,-1
 210 544 l 1,24,-1
 210 512 l 1,25,-1
 178 512 l 1,26,-1
 178 480 l 1,27,-1
 146 480 l 1,28,-1
 146 416 l 1,29,-1
 50 416 l 1,30,-1
 50 480 l 1,31,-1
 82 480 l 1,32,-1
 82 544 l 1,33,-1
 114 544 l 1,34,-1
 114 576 l 1,35,-1
 146 576 l 1,36,-1
 146 608 l 1,37,-1
 178 608 l 1,38,-1
 178 640 l 1,39,-1
 370 640 l 1,40,-1
 370 608 l 1,41,-1
 402 608 l 1,42,-1
 402 576 l 1,43,-1
 434 576 l 1,44,-1
 434 544 l 1,45,-1
 466 544 l 1,46,-1
 466 352 l 1,47,-1
 434 352 l 1,48,-1
 434 320 l 1,49,-1
 402 320 l 1,50,-1
 402 288 l 1,51,-1
 370 288 l 1,52,-1
 370 256 l 1,53,-1
 338 256 l 1,54,-1
 338 224 l 1,55,-1
 306 224 l 1,56,-1
 306 192 l 1,57,-1
 274 192 l 1,58,-1
 274 160 l 1,59,-1
 242 160 l 1,60,-1
 242 128 l 1,61,-1
 210 128 l 1,62,-1
 210 96 l 1,63,-1
 498 96 l 1,64,-1
 498 0 l 1,65,-1
 50 0 l 1,0,-1
EndSplineSet
Validated: 1
EndChar

StartChar: three
Encoding: 51 51 22
Width: 523
Flags: W
LayerCount: 2
Fore
SplineSet
144 0 m 1,0,-1
 144 32 l 1,1,-1
 112 32 l 1,2,-1
 112 64 l 1,3,-1
 80 64 l 1,4,-1
 80 96 l 1,5,-1
 48 96 l 1,6,-1
 48 160 l 1,7,-1
 144 160 l 1,8,-1
 144 128 l 1,9,-1
 176 128 l 1,10,-1
 176 96 l 1,11,-1
 336 96 l 1,12,-1
 336 128 l 1,13,-1
 368 128 l 1,14,-1
 368 256 l 1,15,-1
 336 256 l 1,16,-1
 336 288 l 1,17,-1
 208 288 l 1,18,-1
 208 384 l 1,19,-1
 336 384 l 1,20,-1
 336 416 l 1,21,-1
 368 416 l 1,22,-1
 368 512 l 1,23,-1
 336 512 l 1,24,-1
 336 544 l 1,25,-1
 176 544 l 1,26,-1
 176 512 l 1,27,-1
 144 512 l 1,28,-1
 144 480 l 1,29,-1
 48 480 l 1,30,-1
 48 544 l 1,31,-1
 80 544 l 1,32,-1
 80 576 l 1,33,-1
 112 576 l 1,34,-1
 112 608 l 1,35,-1
 144 608 l 1,36,-1
 144 640 l 1,37,-1
 336 640 l 1,38,-1
 336 608 l 1,39,-1
 400 608 l 1,40,-1
 400 576 l 1,41,-1
 432 576 l 1,42,-1
 432 544 l 1,43,-1
 464 544 l 1,44,-1
 464 384 l 1,45,-1
 432 384 l 1,46,-1
 432 352 l 1,47,-1
 400 352 l 1,48,-1
 400 320 l 1,49,-1
 432 320 l 1,50,-1
 432 288 l 1,51,-1
 464 288 l 1,52,-1
 464 96 l 1,53,-1
 432 96 l 1,54,-1
 432 64 l 1,55,-1
 400 64 l 1,56,-1
 400 32 l 1,57,-1
 336 32 l 1,58,-1
 336 0 l 1,59,-1
 144 0 l 1,0,-1
EndSplineSet
Validated: 1
EndChar

StartChar: four
Encoding: 52 52 23
Width: 533
Flags: W
LayerCount: 2
Fore
SplineSet
312 256 m 1,0,-1
 312 480 l 1,1,-1
 280 480 l 1,2,-1
 280 448 l 1,3,-1
 248 448 l 1,4,-1
 248 416 l 1,5,-1
 216 416 l 1,6,-1
 216 384 l 1,7,-1
 184 384 l 1,8,-1
 184 352 l 1,9,-1
 152 352 l 1,10,-1
 152 320 l 1,11,-1
 120 320 l 1,12,-1
 120 256 l 1,13,-1
 312 256 l 1,0,-1
312 0 m 1,14,-1
 312 160 l 1,15,-1
 24 160 l 1,16,-1
 24 352 l 1,17,-1
 56 352 l 1,18,-1
 56 384 l 1,19,-1
 88 384 l 1,20,-1
 88 416 l 1,21,-1
 120 416 l 1,22,-1
 120 448 l 1,23,-1
 152 448 l 1,24,-1
 152 480 l 1,25,-1
 184 480 l 1,26,-1
 184 512 l 1,27,-1
 216 512 l 1,28,-1
 216 544 l 1,29,-1
 248 544 l 1,30,-1
 248 576 l 1,31,-1
 280 576 l 1,32,-1
 280 608 l 1,33,-1
 312 608 l 1,34,-1
 312 640 l 1,35,-1
 408 640 l 1,36,-1
 408 256 l 1,37,-1
 504 256 l 1,38,-1
 504 160 l 1,39,-1
 408 160 l 1,40,-1
 408 0 l 1,41,-1
 312 0 l 1,14,-1
EndSplineSet
Validated: 1
EndChar

StartChar: five
Encoding: 53 53 24
Width: 531
Flags: W
LayerCount: 2
Fore
SplineSet
172 0 m 1,0,-1
 172 32 l 1,1,-1
 108 32 l 1,2,-1
 108 64 l 1,3,-1
 76 64 l 1,4,-1
 76 96 l 1,5,-1
 44 96 l 1,6,-1
 44 192 l 1,7,-1
 140 192 l 1,8,-1
 140 128 l 1,9,-1
 172 128 l 1,10,-1
 172 96 l 1,11,-1
 300 96 l 1,12,-1
 300 128 l 1,13,-1
 364 128 l 1,14,-1
 364 192 l 1,15,-1
 396 192 l 1,16,-1
 396 256 l 1,17,-1
 364 256 l 1,18,-1
 364 288 l 1,19,-1
 332 288 l 1,20,-1
 332 320 l 1,21,-1
 300 320 l 1,22,-1
 300 352 l 1,23,-1
 76 352 l 1,24,-1
 76 480 l 1,25,-1
 108 480 l 1,26,-1
 108 576 l 1,27,-1
 140 576 l 1,28,-1
 140 640 l 1,29,-1
 428 640 l 1,30,-1
 428 544 l 1,31,-1
 204 544 l 1,32,-1
 204 480 l 1,33,-1
 172 480 l 1,34,-1
 172 448 l 1,35,-1
 332 448 l 1,36,-1
 332 416 l 1,37,-1
 396 416 l 1,38,-1
 396 384 l 1,39,-1
 428 384 l 1,40,-1
 428 352 l 1,41,-1
 460 352 l 1,42,-1
 460 288 l 1,43,-1
 492 288 l 1,44,-1
 492 160 l 1,45,-1
 460 160 l 1,46,-1
 460 96 l 1,47,-1
 428 96 l 1,48,-1
 428 64 l 1,49,-1
 396 64 l 1,50,-1
 396 32 l 1,51,-1
 332 32 l 1,52,-1
 332 0 l 1,53,-1
 172 0 l 1,0,-1
EndSplineSet
Validated: 1
EndChar

StartChar: six
Encoding: 54 54 25
Width: 554
Flags: W
LayerCount: 2
Fore
SplineSet
367 96 m 1,0,-1
 367 128 l 1,1,-1
 399 128 l 1,2,-1
 399 256 l 1,3,-1
 367 256 l 1,4,-1
 367 288 l 1,5,-1
 207 288 l 1,6,-1
 207 256 l 1,7,-1
 175 256 l 1,8,-1
 175 128 l 1,9,-1
 207 128 l 1,10,-1
 207 96 l 1,11,-1
 367 96 l 1,0,-1
175 0 m 1,12,-1
 175 32 l 1,13,-1
 111 32 l 1,14,-1
 111 96 l 1,15,-1
 79 96 l 1,16,-1
 79 192 l 1,17,-1
 47 192 l 1,18,-1
 47 448 l 1,19,-1
 79 448 l 1,20,-1
 79 544 l 1,21,-1
 111 544 l 1,22,-1
 111 608 l 1,23,-1
 175 608 l 1,24,-1
 175 640 l 1,25,-1
 399 640 l 1,26,-1
 399 608 l 1,27,-1
 463 608 l 1,28,-1
 463 544 l 1,29,-1
 495 544 l 1,30,-1
 495 480 l 1,31,-1
 399 480 l 1,32,-1
 399 512 l 1,33,-1
 367 512 l 1,34,-1
 367 544 l 1,35,-1
 207 544 l 1,36,-1
 207 512 l 1,37,-1
 175 512 l 1,38,-1
 175 416 l 1,39,-1
 143 416 l 1,40,-1
 143 320 l 1,41,-1
 175 320 l 1,42,-1
 175 352 l 1,43,-1
 207 352 l 1,44,-1
 207 384 l 1,45,-1
 431 384 l 1,46,-1
 431 352 l 1,47,-1
 463 352 l 1,48,-1
 463 320 l 1,49,-1
 495 320 l 1,50,-1
 495 96 l 1,51,-1
 463 96 l 1,52,-1
 463 32 l 1,53,-1
 399 32 l 1,54,-1
 399 0 l 1,55,-1
 175 0 l 1,12,-1
EndSplineSet
Validated: 1
EndChar

StartChar: seven
Encoding: 55 55 26
Width: 540
Flags: W
LayerCount: 2
Fore
SplineSet
129 0 m 1,0,-1
 129 128 l 1,1,-1
 161 128 l 1,2,-1
 161 192 l 1,3,-1
 193 192 l 1,4,-1
 193 288 l 1,5,-1
 225 288 l 1,6,-1
 225 352 l 1,7,-1
 257 352 l 1,8,-1
 257 416 l 1,9,-1
 289 416 l 1,10,-1
 289 480 l 1,11,-1
 321 480 l 1,12,-1
 321 512 l 1,13,-1
 353 512 l 1,14,-1
 353 544 l 1,15,-1
 1 544 l 1,16,-1
 1 640 l 1,17,-1
 481 640 l 1,18,-1
 481 544 l 1,19,-1
 449 544 l 1,20,-1
 449 480 l 1,21,-1
 417 480 l 1,22,-1
 417 448 l 1,23,-1
 385 448 l 1,24,-1
 385 384 l 1,25,-1
 353 384 l 1,26,-1
 353 320 l 1,27,-1
 321 320 l 1,28,-1
 321 256 l 1,29,-1
 289 256 l 1,30,-1
 289 192 l 1,31,-1
 257 192 l 1,32,-1
 257 96 l 1,33,-1
 225 96 l 1,34,-1
 225 0 l 1,35,-1
 129 0 l 1,0,-1
EndSplineSet
Validated: 1
EndChar

StartChar: eight
Encoding: 56 56 27
Width: 537
Flags: W
LayerCount: 2
Fore
SplineSet
365 96 m 1,0,-1
 365 128 l 1,1,-1
 397 128 l 1,2,-1
 397 256 l 1,3,-1
 365 256 l 1,4,-1
 365 288 l 1,5,-1
 333 288 l 1,6,-1
 333 320 l 1,7,-1
 205 320 l 1,8,-1
 205 288 l 1,9,-1
 173 288 l 1,10,-1
 173 256 l 1,11,-1
 141 256 l 1,12,-1
 141 128 l 1,13,-1
 173 128 l 1,14,-1
 173 96 l 1,15,-1
 365 96 l 1,0,-1
333 384 m 1,16,-1
 333 416 l 1,17,-1
 365 416 l 1,18,-1
 365 512 l 1,19,-1
 333 512 l 1,20,-1
 333 544 l 1,21,-1
 205 544 l 1,22,-1
 205 512 l 1,23,-1
 173 512 l 1,24,-1
 173 416 l 1,25,-1
 205 416 l 1,26,-1
 205 384 l 1,27,-1
 333 384 l 1,16,-1
173 0 m 1,28,-1
 173 32 l 1,29,-1
 109 32 l 1,30,-1
 109 64 l 1,31,-1
 77 64 l 1,32,-1
 77 128 l 1,33,-1
 45 128 l 1,34,-1
 45 256 l 1,35,-1
 77 256 l 1,36,-1
 77 320 l 1,37,-1
 109 320 l 1,38,-1
 109 352 l 1,39,-1
 141 352 l 1,40,-1
 141 384 l 1,41,-1
 109 384 l 1,42,-1
 109 416 l 1,43,-1
 77 416 l 1,44,-1
 77 512 l 1,45,-1
 109 512 l 1,46,-1
 109 576 l 1,47,-1
 141 576 l 1,48,-1
 141 608 l 1,49,-1
 205 608 l 1,50,-1
 205 640 l 1,51,-1
 333 640 l 1,52,-1
 333 608 l 1,53,-1
 397 608 l 1,54,-1
 397 576 l 1,55,-1
 429 576 l 1,56,-1
 429 512 l 1,57,-1
 461 512 l 1,58,-1
 461 416 l 1,59,-1
 429 416 l 1,60,-1
 429 384 l 1,61,-1
 397 384 l 1,62,-1
 397 352 l 1,63,-1
 429 352 l 1,64,-1
 429 320 l 1,65,-1
 461 320 l 1,66,-1
 461 256 l 1,67,-1
 493 256 l 1,68,-1
 493 128 l 1,69,-1
 461 128 l 1,70,-1
 461 64 l 1,71,-1
 429 64 l 1,72,-1
 429 32 l 1,73,-1
 365 32 l 1,74,-1
 365 0 l 1,75,-1
 173 0 l 1,28,-1
EndSplineSet
Validated: 1
EndChar

StartChar: nine
Encoding: 57 57 28
Width: 549
Flags: W
LayerCount: 2
Fore
SplineSet
341 352 m 1,0,-1
 341 384 l 1,1,-1
 373 384 l 1,2,-1
 373 512 l 1,3,-1
 341 512 l 1,4,-1
 341 544 l 1,5,-1
 181 544 l 1,6,-1
 181 512 l 1,7,-1
 149 512 l 1,8,-1
 149 384 l 1,9,-1
 181 384 l 1,10,-1
 181 352 l 1,11,-1
 341 352 l 1,0,-1
149 0 m 1,12,-1
 149 32 l 1,13,-1
 85 32 l 1,14,-1
 85 96 l 1,15,-1
 53 96 l 1,16,-1
 53 160 l 1,17,-1
 149 160 l 1,18,-1
 149 128 l 1,19,-1
 181 128 l 1,20,-1
 181 96 l 1,21,-1
 341 96 l 1,22,-1
 341 128 l 1,23,-1
 373 128 l 1,24,-1
 373 224 l 1,25,-1
 405 224 l 1,26,-1
 405 320 l 1,27,-1
 373 320 l 1,28,-1
 373 288 l 1,29,-1
 341 288 l 1,30,-1
 341 256 l 1,31,-1
 117 256 l 1,32,-1
 117 288 l 1,33,-1
 85 288 l 1,34,-1
 85 352 l 1,35,-1
 53 352 l 1,36,-1
 53 512 l 1,37,-1
 85 512 l 1,38,-1
 85 608 l 1,39,-1
 149 608 l 1,40,-1
 149 640 l 1,41,-1
 373 640 l 1,42,-1
 373 608 l 1,43,-1
 437 608 l 1,44,-1
 437 544 l 1,45,-1
 469 544 l 1,46,-1
 469 448 l 1,47,-1
 501 448 l 1,48,-1
 501 192 l 1,49,-1
 469 192 l 1,50,-1
 469 96 l 1,51,-1
 437 96 l 1,52,-1
 437 32 l 1,53,-1
 373 32 l 1,54,-1
 373 0 l 1,55,-1
 149 0 l 1,12,-1
EndSplineSet
Validated: 1
EndChar

StartChar: colon
Encoding: 58 58 29
Width: 195
Flags: W
LayerCount: 2
Fore
SplineSet
50 32 m 1,0,-1
 50 128 l 1,1,-1
 146 128 l 1,2,-1
 146 32 l 1,3,-1
 50 32 l 1,0,-1
50 320 m 1,4,-1
 50 416 l 1,5,-1
 146 416 l 1,6,-1
 146 320 l 1,7,-1
 50 320 l 1,4,-1
EndSplineSet
Validated: 1
EndChar

StartChar: semicolon
Encoding: 59 59 30
Width: 203
Flags: W
LayerCount: 2
Fore
SplineSet
50 -96 m 1,0,-1
 50 -64 l 1,1,-1
 82 -64 l 1,2,-1
 82 -32 l 1,3,-1
 114 -32 l 1,4,-1
 114 0 l 1,5,-1
 50 0 l 1,6,-1
 50 96 l 1,7,-1
 146 96 l 1,8,-1
 146 -64 l 1,9,-1
 114 -64 l 1,10,-1
 114 -96 l 1,11,-1
 50 -96 l 1,0,-1
50 352 m 1,12,-1
 50 448 l 1,13,-1
 146 448 l 1,14,-1
 146 352 l 1,15,-1
 50 352 l 1,12,-1
EndSplineSet
Validated: 1
EndChar

StartChar: less
Encoding: 60 60 31
Width: 366
Flags: W
LayerCount: 2
Fore
SplineSet
243 64 m 1,0,-1
 243 96 l 1,1,-1
 211 96 l 1,2,-1
 211 128 l 1,3,-1
 179 128 l 1,4,-1
 179 160 l 1,5,-1
 147 160 l 1,6,-1
 147 192 l 1,7,-1
 115 192 l 1,8,-1
 115 224 l 1,9,-1
 83 224 l 1,10,-1
 83 256 l 1,11,-1
 51 256 l 1,12,-1
 51 288 l 1,13,-1
 19 288 l 1,14,-1
 19 320 l 1,15,-1
 51 320 l 1,16,-1
 51 352 l 1,17,-1
 83 352 l 1,18,-1
 83 384 l 1,19,-1
 115 384 l 1,20,-1
 115 416 l 1,21,-1
 147 416 l 1,22,-1
 147 448 l 1,23,-1
 179 448 l 1,24,-1
 179 480 l 1,25,-1
 211 480 l 1,26,-1
 211 512 l 1,27,-1
 243 512 l 1,28,-1
 243 544 l 1,29,-1
 275 544 l 1,30,-1
 275 512 l 1,31,-1
 307 512 l 1,32,-1
 307 480 l 1,33,-1
 275 480 l 1,34,-1
 275 448 l 1,35,-1
 243 448 l 1,36,-1
 243 416 l 1,37,-1
 211 416 l 1,38,-1
 211 384 l 1,39,-1
 179 384 l 1,40,-1
 179 352 l 1,41,-1
 147 352 l 1,42,-1
 147 320 l 1,43,-1
 115 320 l 1,44,-1
 115 288 l 1,45,-1
 147 288 l 1,46,-1
 147 256 l 1,47,-1
 179 256 l 1,48,-1
 179 224 l 1,49,-1
 211 224 l 1,50,-1
 211 192 l 1,51,-1
 243 192 l 1,52,-1
 243 160 l 1,53,-1
 275 160 l 1,54,-1
 275 128 l 1,55,-1
 307 128 l 1,56,-1
 307 96 l 1,57,-1
 275 96 l 1,58,-1
 275 64 l 1,59,-1
 243 64 l 1,0,-1
EndSplineSet
Validated: 1
EndChar

StartChar: equal
Encoding: 61 61 32
Width: 610
Flags: W
LayerCount: 2
Fore
SplineSet
49 128 m 1,0,-1
 49 224 l 1,1,-1
 561 224 l 1,2,-1
 561 128 l 1,3,-1
 49 128 l 1,0,-1
49 352 m 1,4,-1
 49 448 l 1,5,-1
 561 448 l 1,6,-1
 561 352 l 1,7,-1
 49 352 l 1,4,-1
EndSplineSet
Validated: 1
EndChar

StartChar: greater
Encoding: 62 62 33
Width: 366
Flags: W
LayerCount: 2
Fore
SplineSet
81 64 m 1,0,-1
 81 96 l 1,1,-1
 49 96 l 1,2,-1
 49 128 l 1,3,-1
 81 128 l 1,4,-1
 81 160 l 1,5,-1
 113 160 l 1,6,-1
 113 192 l 1,7,-1
 145 192 l 1,8,-1
 145 224 l 1,9,-1
 177 224 l 1,10,-1
 177 256 l 1,11,-1
 209 256 l 1,12,-1
 209 288 l 1,13,-1
 241 288 l 1,14,-1
 241 320 l 1,15,-1
 209 320 l 1,16,-1
 209 352 l 1,17,-1
 177 352 l 1,18,-1
 177 384 l 1,19,-1
 145 384 l 1,20,-1
 145 416 l 1,21,-1
 113 416 l 1,22,-1
 113 448 l 1,23,-1
 81 448 l 1,24,-1
 81 480 l 1,25,-1
 49 480 l 1,26,-1
 49 512 l 1,27,-1
 81 512 l 1,28,-1
 81 544 l 1,29,-1
 113 544 l 1,30,-1
 113 512 l 1,31,-1
 145 512 l 1,32,-1
 145 480 l 1,33,-1
 177 480 l 1,34,-1
 177 448 l 1,35,-1
 209 448 l 1,36,-1
 209 416 l 1,37,-1
 241 416 l 1,38,-1
 241 384 l 1,39,-1
 273 384 l 1,40,-1
 273 352 l 1,41,-1
 305 352 l 1,42,-1
 305 320 l 1,43,-1
 337 320 l 1,44,-1
 337 288 l 1,45,-1
 305 288 l 1,46,-1
 305 256 l 1,47,-1
 273 256 l 1,48,-1
 273 224 l 1,49,-1
 241 224 l 1,50,-1
 241 192 l 1,51,-1
 209 192 l 1,52,-1
 209 160 l 1,53,-1
 177 160 l 1,54,-1
 177 128 l 1,55,-1
 145 128 l 1,56,-1
 145 96 l 1,57,-1
 113 96 l 1,58,-1
 113 64 l 1,59,-1
 81 64 l 1,0,-1
EndSplineSet
Validated: 1
EndChar

StartChar: question
Encoding: 63 63 34
Width: 531
Flags: W
LayerCount: 2
Fore
SplineSet
216 0 m 1,0,-1
 216 96 l 1,1,-1
 312 96 l 1,2,-1
 312 0 l 1,3,-1
 216 0 l 1,0,-1
216 192 m 1,4,-1
 216 288 l 1,5,-1
 248 288 l 1,6,-1
 248 320 l 1,7,-1
 280 320 l 1,8,-1
 280 352 l 1,9,-1
 312 352 l 1,10,-1
 312 384 l 1,11,-1
 344 384 l 1,12,-1
 344 416 l 1,13,-1
 376 416 l 1,14,-1
 376 512 l 1,15,-1
 344 512 l 1,16,-1
 344 544 l 1,17,-1
 184 544 l 1,18,-1
 184 512 l 1,19,-1
 152 512 l 1,20,-1
 152 480 l 1,21,-1
 120 480 l 1,22,-1
 120 416 l 1,23,-1
 24 416 l 1,24,-1
 24 480 l 1,25,-1
 56 480 l 1,26,-1
 56 544 l 1,27,-1
 88 544 l 1,28,-1
 88 576 l 1,29,-1
 120 576 l 1,30,-1
 120 608 l 1,31,-1
 152 608 l 1,32,-1
 152 640 l 1,33,-1
 344 640 l 1,34,-1
 344 608 l 1,35,-1
 408 608 l 1,36,-1
 408 576 l 1,37,-1
 440 576 l 1,38,-1
 440 544 l 1,39,-1
 472 544 l 1,40,-1
 472 384 l 1,41,-1
 440 384 l 1,42,-1
 440 352 l 1,43,-1
 408 352 l 1,44,-1
 408 320 l 1,45,-1
 376 320 l 1,46,-1
 376 288 l 1,47,-1
 344 288 l 1,48,-1
 344 256 l 1,49,-1
 312 256 l 1,50,-1
 312 192 l 1,51,-1
 216 192 l 1,4,-1
EndSplineSet
Validated: 1
EndChar

StartChar: at
Encoding: 64 64 35
Width: 605
Flags: W
LayerCount: 2
Fore
SplineSet
335 160 m 1,0,-1
 335 192 l 1,1,-1
 367 192 l 1,2,-1
 367 384 l 1,3,-1
 271 384 l 1,4,-1
 271 352 l 1,5,-1
 239 352 l 1,6,-1
 239 192 l 1,7,-1
 271 192 l 1,8,-1
 271 160 l 1,9,-1
 335 160 l 1,0,-1
207 -32 m 1,10,-1
 207 0 l 1,11,-1
 143 0 l 1,12,-1
 143 32 l 1,13,-1
 111 32 l 1,14,-1
 111 64 l 1,15,-1
 79 64 l 1,16,-1
 79 128 l 1,17,-1
 47 128 l 1,18,-1
 47 416 l 1,19,-1
 79 416 l 1,20,-1
 79 480 l 1,21,-1
 111 480 l 1,22,-1
 111 512 l 1,23,-1
 143 512 l 1,24,-1
 143 544 l 1,25,-1
 175 544 l 1,26,-1
 175 576 l 1,27,-1
 239 576 l 1,28,-1
 239 608 l 1,29,-1
 399 608 l 1,30,-1
 399 576 l 1,31,-1
 463 576 l 1,32,-1
 463 544 l 1,33,-1
 495 544 l 1,34,-1
 495 512 l 1,35,-1
 527 512 l 1,36,-1
 527 480 l 1,37,-1
 559 480 l 1,38,-1
 559 160 l 1,39,-1
 527 160 l 1,40,-1
 527 128 l 1,41,-1
 495 128 l 1,42,-1
 495 96 l 1,43,-1
 431 96 l 1,44,-1
 431 128 l 1,45,-1
 399 128 l 1,46,-1
 399 160 l 1,47,-1
 367 160 l 1,48,-1
 367 128 l 1,49,-1
 335 128 l 1,50,-1
 335 96 l 1,51,-1
 239 96 l 1,52,-1
 239 128 l 1,53,-1
 207 128 l 1,54,-1
 207 160 l 1,55,-1
 175 160 l 1,56,-1
 175 384 l 1,57,-1
 207 384 l 1,58,-1
 207 416 l 1,59,-1
 239 416 l 1,60,-1
 239 448 l 1,61,-1
 399 448 l 1,62,-1
 399 416 l 1,63,-1
 431 416 l 1,64,-1
 431 160 l 1,65,-1
 463 160 l 1,66,-1
 463 192 l 1,67,-1
 495 192 l 1,68,-1
 495 448 l 1,69,-1
 463 448 l 1,70,-1
 463 480 l 1,71,-1
 431 480 l 1,72,-1
 431 512 l 1,73,-1
 367 512 l 1,74,-1
 367 544 l 1,75,-1
 271 544 l 1,76,-1
 271 512 l 1,77,-1
 207 512 l 1,78,-1
 207 480 l 1,79,-1
 175 480 l 1,80,-1
 175 448 l 1,81,-1
 143 448 l 1,82,-1
 143 416 l 1,83,-1
 111 416 l 1,84,-1
 111 128 l 1,85,-1
 143 128 l 1,86,-1
 143 96 l 1,87,-1
 175 96 l 1,88,-1
 175 64 l 1,89,-1
 239 64 l 1,90,-1
 239 32 l 1,91,-1
 335 32 l 1,92,-1
 335 -32 l 1,93,-1
 207 -32 l 1,10,-1
EndSplineSet
Validated: 1
EndChar

StartChar: A
Encoding: 65 65 36
Width: 674
Flags: W
LayerCount: 2
Fore
SplineSet
434 288 m 1,0,-1
 434 320 l 1,1,-1
 402 320 l 1,2,-1
 402 384 l 1,3,-1
 370 384 l 1,4,-1
 370 448 l 1,5,-1
 338 448 l 1,6,-1
 338 512 l 1,7,-1
 306 512 l 1,8,-1
 306 448 l 1,9,-1
 274 448 l 1,10,-1
 274 384 l 1,11,-1
 242 384 l 1,12,-1
 242 320 l 1,13,-1
 210 320 l 1,14,-1
 210 288 l 1,15,-1
 434 288 l 1,0,-1
18 0 m 1,16,-1
 18 96 l 1,17,-1
 50 96 l 1,18,-1
 50 160 l 1,19,-1
 82 160 l 1,20,-1
 82 256 l 1,21,-1
 114 256 l 1,22,-1
 114 320 l 1,23,-1
 146 320 l 1,24,-1
 146 384 l 1,25,-1
 178 384 l 1,26,-1
 178 448 l 1,27,-1
 210 448 l 1,28,-1
 210 512 l 1,29,-1
 242 512 l 1,30,-1
 242 576 l 1,31,-1
 274 576 l 1,32,-1
 274 640 l 1,33,-1
 370 640 l 1,34,-1
 370 576 l 1,35,-1
 402 576 l 1,36,-1
 402 512 l 1,37,-1
 434 512 l 1,38,-1
 434 448 l 1,39,-1
 466 448 l 1,40,-1
 466 384 l 1,41,-1
 498 384 l 1,42,-1
 498 320 l 1,43,-1
 530 320 l 1,44,-1
 530 256 l 1,45,-1
 562 256 l 1,46,-1
 562 160 l 1,47,-1
 594 160 l 1,48,-1
 594 96 l 1,49,-1
 626 96 l 1,50,-1
 626 0 l 1,51,-1
 530 0 l 1,52,-1
 530 64 l 1,53,-1
 498 64 l 1,54,-1
 498 128 l 1,55,-1
 466 128 l 1,56,-1
 466 192 l 1,57,-1
 178 192 l 1,58,-1
 178 128 l 1,59,-1
 146 128 l 1,60,-1
 146 64 l 1,61,-1
 114 64 l 1,62,-1
 114 0 l 1,63,-1
 18 0 l 1,16,-1
EndSplineSet
Validated: 1
EndChar

StartChar: B
Encoding: 66 66 37
Width: 552
Flags: W
LayerCount: 2
Fore
SplineSet
377 96 m 1,0,-1
 377 128 l 1,1,-1
 409 128 l 1,2,-1
 409 256 l 1,3,-1
 377 256 l 1,4,-1
 377 288 l 1,5,-1
 153 288 l 1,6,-1
 153 96 l 1,7,-1
 377 96 l 1,0,-1
345 384 m 1,8,-1
 345 416 l 1,9,-1
 377 416 l 1,10,-1
 377 512 l 1,11,-1
 345 512 l 1,12,-1
 345 544 l 1,13,-1
 153 544 l 1,14,-1
 153 384 l 1,15,-1
 345 384 l 1,8,-1
57 0 m 1,16,-1
 57 640 l 1,17,-1
 377 640 l 1,18,-1
 377 608 l 1,19,-1
 409 608 l 1,20,-1
 409 576 l 1,21,-1
 441 576 l 1,22,-1
 441 544 l 1,23,-1
 473 544 l 1,24,-1
 473 384 l 1,25,-1
 441 384 l 1,26,-1
 441 320 l 1,27,-1
 473 320 l 1,28,-1
 473 288 l 1,29,-1
 505 288 l 1,30,-1
 505 96 l 1,31,-1
 473 96 l 1,32,-1
 473 64 l 1,33,-1
 441 64 l 1,34,-1
 441 32 l 1,35,-1
 409 32 l 1,36,-1
 409 0 l 1,37,-1
 57 0 l 1,16,-1
EndSplineSet
Validated: 1
EndChar

StartChar: C
Encoding: 67 67 38
Width: 661
Flags: W
LayerCount: 2
Fore
SplineSet
268 0 m 1,0,-1
 268 32 l 1,1,-1
 172 32 l 1,2,-1
 172 64 l 1,3,-1
 140 64 l 1,4,-1
 140 96 l 1,5,-1
 108 96 l 1,6,-1
 108 128 l 1,7,-1
 76 128 l 1,8,-1
 76 192 l 1,9,-1
 44 192 l 1,10,-1
 44 448 l 1,11,-1
 76 448 l 1,12,-1
 76 512 l 1,13,-1
 108 512 l 1,14,-1
 108 544 l 1,15,-1
 140 544 l 1,16,-1
 140 576 l 1,17,-1
 172 576 l 1,18,-1
 172 608 l 1,19,-1
 268 608 l 1,20,-1
 268 640 l 1,21,-1
 428 640 l 1,22,-1
 428 608 l 1,23,-1
 524 608 l 1,24,-1
 524 576 l 1,25,-1
 556 576 l 1,26,-1
 556 512 l 1,27,-1
 588 512 l 1,28,-1
 588 480 l 1,29,-1
 620 480 l 1,30,-1
 620 448 l 1,31,-1
 492 448 l 1,32,-1
 492 480 l 1,33,-1
 460 480 l 1,34,-1
 460 512 l 1,35,-1
 396 512 l 1,36,-1
 396 544 l 1,37,-1
 300 544 l 1,38,-1
 300 512 l 1,39,-1
 236 512 l 1,40,-1
 236 480 l 1,41,-1
 204 480 l 1,42,-1
 204 448 l 1,43,-1
 172 448 l 1,44,-1
 172 384 l 1,45,-1
 140 384 l 1,46,-1
 140 256 l 1,47,-1
 172 256 l 1,48,-1
 172 192 l 1,49,-1
 204 192 l 1,50,-1
 204 160 l 1,51,-1
 236 160 l 1,52,-1
 236 128 l 1,53,-1
 300 128 l 1,54,-1
 300 96 l 1,55,-1
 396 96 l 1,56,-1
 396 128 l 1,57,-1
 460 128 l 1,58,-1
 460 160 l 1,59,-1
 492 160 l 1,60,-1
 492 192 l 1,61,-1
 620 192 l 1,62,-1
 620 160 l 1,63,-1
 588 160 l 1,64,-1
 588 128 l 1,65,-1
 556 128 l 1,66,-1
 556 64 l 1,67,-1
 524 64 l 1,68,-1
 524 32 l 1,69,-1
 428 32 l 1,70,-1
 428 0 l 1,71,-1
 268 0 l 1,0,-1
EndSplineSet
Validated: 1
EndChar

StartChar: D
Encoding: 68 68 39
Width: 615
Flags: W
LayerCount: 2
Fore
SplineSet
313 96 m 1,0,-1
 313 128 l 1,1,-1
 377 128 l 1,2,-1
 377 160 l 1,3,-1
 409 160 l 1,4,-1
 409 192 l 1,5,-1
 441 192 l 1,6,-1
 441 256 l 1,7,-1
 473 256 l 1,8,-1
 473 384 l 1,9,-1
 441 384 l 1,10,-1
 441 448 l 1,11,-1
 409 448 l 1,12,-1
 409 480 l 1,13,-1
 377 480 l 1,14,-1
 377 512 l 1,15,-1
 313 512 l 1,16,-1
 313 544 l 1,17,-1
 153 544 l 1,18,-1
 153 96 l 1,19,-1
 313 96 l 1,0,-1
57 0 m 1,20,-1
 57 640 l 1,21,-1
 345 640 l 1,22,-1
 345 608 l 1,23,-1
 441 608 l 1,24,-1
 441 576 l 1,25,-1
 473 576 l 1,26,-1
 473 544 l 1,27,-1
 505 544 l 1,28,-1
 505 512 l 1,29,-1
 537 512 l 1,30,-1
 537 448 l 1,31,-1
 569 448 l 1,32,-1
 569 192 l 1,33,-1
 537 192 l 1,34,-1
 537 128 l 1,35,-1
 505 128 l 1,36,-1
 505 96 l 1,37,-1
 473 96 l 1,38,-1
 473 64 l 1,39,-1
 441 64 l 1,40,-1
 441 32 l 1,41,-1
 345 32 l 1,42,-1
 345 0 l 1,43,-1
 57 0 l 1,20,-1
EndSplineSet
Validated: 1
EndChar

StartChar: E
Encoding: 69 69 40
Width: 500
Flags: W
LayerCount: 2
Fore
SplineSet
57 0 m 1,0,-1
 57 640 l 1,1,-1
 441 640 l 1,2,-1
 441 544 l 1,3,-1
 153 544 l 1,4,-1
 153 384 l 1,5,-1
 441 384 l 1,6,-1
 441 288 l 1,7,-1
 153 288 l 1,8,-1
 153 96 l 1,9,-1
 441 96 l 1,10,-1
 441 0 l 1,11,-1
 57 0 l 1,0,-1
EndSplineSet
Validated: 1
EndChar

StartChar: F
Encoding: 70 70 41
Width: 500
Flags: W
LayerCount: 2
Fore
SplineSet
57 0 m 1,0,-1
 57 640 l 1,1,-1
 441 640 l 1,2,-1
 441 544 l 1,3,-1
 153 544 l 1,4,-1
 153 384 l 1,5,-1
 441 384 l 1,6,-1
 441 288 l 1,7,-1
 153 288 l 1,8,-1
 153 0 l 1,9,-1
 57 0 l 1,0,-1
EndSplineSet
Validated: 1
EndChar

StartChar: G
Encoding: 71 71 42
Width: 667
Flags: W
LayerCount: 2
Fore
SplineSet
268 0 m 1,0,-1
 268 32 l 1,1,-1
 172 32 l 1,2,-1
 172 64 l 1,3,-1
 140 64 l 1,4,-1
 140 96 l 1,5,-1
 108 96 l 1,6,-1
 108 128 l 1,7,-1
 76 128 l 1,8,-1
 76 192 l 1,9,-1
 44 192 l 1,10,-1
 44 448 l 1,11,-1
 76 448 l 1,12,-1
 76 512 l 1,13,-1
 108 512 l 1,14,-1
 108 544 l 1,15,-1
 140 544 l 1,16,-1
 140 576 l 1,17,-1
 172 576 l 1,18,-1
 172 608 l 1,19,-1
 268 608 l 1,20,-1
 268 640 l 1,21,-1
 428 640 l 1,22,-1
 428 608 l 1,23,-1
 524 608 l 1,24,-1
 524 576 l 1,25,-1
 556 576 l 1,26,-1
 556 512 l 1,27,-1
 588 512 l 1,28,-1
 588 480 l 1,29,-1
 620 480 l 1,30,-1
 620 448 l 1,31,-1
 492 448 l 1,32,-1
 492 480 l 1,33,-1
 460 480 l 1,34,-1
 460 512 l 1,35,-1
 396 512 l 1,36,-1
 396 544 l 1,37,-1
 300 544 l 1,38,-1
 300 512 l 1,39,-1
 236 512 l 1,40,-1
 236 480 l 1,41,-1
 204 480 l 1,42,-1
 204 448 l 1,43,-1
 172 448 l 1,44,-1
 172 384 l 1,45,-1
 140 384 l 1,46,-1
 140 256 l 1,47,-1
 172 256 l 1,48,-1
 172 192 l 1,49,-1
 204 192 l 1,50,-1
 204 160 l 1,51,-1
 236 160 l 1,52,-1
 236 128 l 1,53,-1
 300 128 l 1,54,-1
 300 96 l 1,55,-1
 396 96 l 1,56,-1
 396 128 l 1,57,-1
 460 128 l 1,58,-1
 460 160 l 1,59,-1
 492 160 l 1,60,-1
 492 192 l 1,61,-1
 524 192 l 1,62,-1
 524 256 l 1,63,-1
 332 256 l 1,64,-1
 332 352 l 1,65,-1
 620 352 l 1,66,-1
 620 160 l 1,67,-1
 588 160 l 1,68,-1
 588 128 l 1,69,-1
 556 128 l 1,70,-1
 556 64 l 1,71,-1
 524 64 l 1,72,-1
 524 32 l 1,73,-1
 428 32 l 1,74,-1
 428 0 l 1,75,-1
 268 0 l 1,0,-1
EndSplineSet
Validated: 1
EndChar

StartChar: H
Encoding: 72 72 43
Width: 596
Flags: W
LayerCount: 2
Fore
SplineSet
57 0 m 1,0,-1
 57 640 l 1,1,-1
 153 640 l 1,2,-1
 153 384 l 1,3,-1
 441 384 l 1,4,-1
 441 640 l 1,5,-1
 537 640 l 1,6,-1
 537 0 l 1,7,-1
 441 0 l 1,8,-1
 441 288 l 1,9,-1
 153 288 l 1,10,-1
 153 0 l 1,11,-1
 57 0 l 1,0,-1
EndSplineSet
Validated: 1
EndChar

StartChar: I
Encoding: 73 73 44
Width: 212
Flags: W
LayerCount: 2
Fore
SplineSet
57 0 m 1,0,-1
 57 640 l 1,1,-1
 153 640 l 1,2,-1
 153 0 l 1,3,-1
 57 0 l 1,0,-1
EndSplineSet
Validated: 1
EndChar

StartChar: J
Encoding: 74 74 45
Width: 426
Flags: W
LayerCount: 2
Fore
SplineSet
111 0 m 1,0,-1
 111 32 l 1,1,-1
 47 32 l 1,2,-1
 47 96 l 1,3,-1
 15 96 l 1,4,-1
 15 224 l 1,5,-1
 111 224 l 1,6,-1
 111 128 l 1,7,-1
 143 128 l 1,8,-1
 143 96 l 1,9,-1
 239 96 l 1,10,-1
 239 128 l 1,11,-1
 271 128 l 1,12,-1
 271 640 l 1,13,-1
 367 640 l 1,14,-1
 367 96 l 1,15,-1
 335 96 l 1,16,-1
 335 32 l 1,17,-1
 271 32 l 1,18,-1
 271 0 l 1,19,-1
 111 0 l 1,0,-1
EndSplineSet
Validated: 1
EndChar

StartChar: K
Encoding: 75 75 46
Width: 681
Flags: W
LayerCount: 2
Fore
SplineSet
57 0 m 1,0,-1
 57 640 l 1,1,-1
 153 640 l 1,2,-1
 153 352 l 1,3,-1
 185 352 l 1,4,-1
 185 384 l 1,5,-1
 217 384 l 1,6,-1
 217 416 l 1,7,-1
 249 416 l 1,8,-1
 249 448 l 1,9,-1
 281 448 l 1,10,-1
 281 480 l 1,11,-1
 313 480 l 1,12,-1
 313 512 l 1,13,-1
 345 512 l 1,14,-1
 345 544 l 1,15,-1
 377 544 l 1,16,-1
 377 576 l 1,17,-1
 409 576 l 1,18,-1
 409 608 l 1,19,-1
 441 608 l 1,20,-1
 441 640 l 1,21,-1
 569 640 l 1,22,-1
 569 608 l 1,23,-1
 537 608 l 1,24,-1
 537 576 l 1,25,-1
 505 576 l 1,26,-1
 505 544 l 1,27,-1
 473 544 l 1,28,-1
 473 512 l 1,29,-1
 441 512 l 1,30,-1
 441 480 l 1,31,-1
 409 480 l 1,32,-1
 409 448 l 1,33,-1
 377 448 l 1,34,-1
 377 416 l 1,35,-1
 345 416 l 1,36,-1
 345 384 l 1,37,-1
 313 384 l 1,38,-1
 313 320 l 1,39,-1
 345 320 l 1,40,-1
 345 288 l 1,41,-1
 377 288 l 1,42,-1
 377 256 l 1,43,-1
 409 256 l 1,44,-1
 409 224 l 1,45,-1
 441 224 l 1,46,-1
 441 192 l 1,47,-1
 473 192 l 1,48,-1
 473 160 l 1,49,-1
 505 160 l 1,50,-1
 505 128 l 1,51,-1
 537 128 l 1,52,-1
 537 96 l 1,53,-1
 569 96 l 1,54,-1
 569 64 l 1,55,-1
 601 64 l 1,56,-1
 601 32 l 1,57,-1
 633 32 l 1,58,-1
 633 0 l 1,59,-1
 505 0 l 1,60,-1
 505 32 l 1,61,-1
 473 32 l 1,62,-1
 473 64 l 1,63,-1
 441 64 l 1,64,-1
 441 96 l 1,65,-1
 409 96 l 1,66,-1
 409 128 l 1,67,-1
 377 128 l 1,68,-1
 377 160 l 1,69,-1
 345 160 l 1,70,-1
 345 192 l 1,71,-1
 313 192 l 1,72,-1
 313 224 l 1,73,-1
 281 224 l 1,74,-1
 281 256 l 1,75,-1
 249 256 l 1,76,-1
 249 288 l 1,77,-1
 217 288 l 1,78,-1
 217 256 l 1,79,-1
 185 256 l 1,80,-1
 185 224 l 1,81,-1
 153 224 l 1,82,-1
 153 0 l 1,83,-1
 57 0 l 1,0,-1
EndSplineSet
Validated: 1
EndChar

StartChar: L
Encoding: 76 76 47
Width: 521
Flags: W
LayerCount: 2
Fore
SplineSet
57 0 m 1,0,-1
 57 640 l 1,1,-1
 153 640 l 1,2,-1
 153 96 l 1,3,-1
 473 96 l 1,4,-1
 473 0 l 1,5,-1
 57 0 l 1,0,-1
EndSplineSet
Validated: 1
EndChar

StartChar: M
Encoding: 77 77 48
Width: 724
Flags: W
LayerCount: 2
Fore
SplineSet
57 0 m 1,0,-1
 57 640 l 1,1,-1
 217 640 l 1,2,-1
 217 544 l 1,3,-1
 249 544 l 1,4,-1
 249 480 l 1,5,-1
 281 480 l 1,6,-1
 281 384 l 1,7,-1
 313 384 l 1,8,-1
 313 288 l 1,9,-1
 345 288 l 1,10,-1
 345 160 l 1,11,-1
 377 160 l 1,12,-1
 377 288 l 1,13,-1
 409 288 l 1,14,-1
 409 384 l 1,15,-1
 441 384 l 1,16,-1
 441 480 l 1,17,-1
 473 480 l 1,18,-1
 473 544 l 1,19,-1
 505 544 l 1,20,-1
 505 640 l 1,21,-1
 665 640 l 1,22,-1
 665 0 l 1,23,-1
 569 0 l 1,24,-1
 569 480 l 1,25,-1
 537 480 l 1,26,-1
 537 416 l 1,27,-1
 505 416 l 1,28,-1
 505 288 l 1,29,-1
 473 288 l 1,30,-1
 473 160 l 1,31,-1
 441 160 l 1,32,-1
 441 64 l 1,33,-1
 409 64 l 1,34,-1
 409 0 l 1,35,-1
 313 0 l 1,36,-1
 313 64 l 1,37,-1
 281 64 l 1,38,-1
 281 160 l 1,39,-1
 249 160 l 1,40,-1
 249 288 l 1,41,-1
 217 288 l 1,42,-1
 217 416 l 1,43,-1
 185 416 l 1,44,-1
 185 480 l 1,45,-1
 153 480 l 1,46,-1
 153 0 l 1,47,-1
 57 0 l 1,0,-1
EndSplineSet
Validated: 1
EndChar

StartChar: N
Encoding: 78 78 49
Width: 628
Flags: W
LayerCount: 2
Fore
SplineSet
57 0 m 1,0,-1
 57 640 l 1,1,-1
 217 640 l 1,2,-1
 217 576 l 1,3,-1
 249 576 l 1,4,-1
 249 512 l 1,5,-1
 281 512 l 1,6,-1
 281 448 l 1,7,-1
 313 448 l 1,8,-1
 313 384 l 1,9,-1
 345 384 l 1,10,-1
 345 320 l 1,11,-1
 377 320 l 1,12,-1
 377 256 l 1,13,-1
 409 256 l 1,14,-1
 409 192 l 1,15,-1
 441 192 l 1,16,-1
 441 128 l 1,17,-1
 473 128 l 1,18,-1
 473 640 l 1,19,-1
 569 640 l 1,20,-1
 569 0 l 1,21,-1
 409 0 l 1,22,-1
 409 64 l 1,23,-1
 377 64 l 1,24,-1
 377 128 l 1,25,-1
 345 128 l 1,26,-1
 345 192 l 1,27,-1
 313 192 l 1,28,-1
 313 256 l 1,29,-1
 281 256 l 1,30,-1
 281 320 l 1,31,-1
 249 320 l 1,32,-1
 249 384 l 1,33,-1
 217 384 l 1,34,-1
 217 448 l 1,35,-1
 185 448 l 1,36,-1
 185 512 l 1,37,-1
 153 512 l 1,38,-1
 153 0 l 1,39,-1
 57 0 l 1,0,-1
EndSplineSet
Validated: 1
EndChar

StartChar: O
Encoding: 79 79 50
Width: 698
Flags: W
LayerCount: 2
Fore
SplineSet
396 96 m 1,0,-1
 396 128 l 1,1,-1
 460 128 l 1,2,-1
 460 160 l 1,3,-1
 492 160 l 1,4,-1
 492 192 l 1,5,-1
 524 192 l 1,6,-1
 524 256 l 1,7,-1
 556 256 l 1,8,-1
 556 384 l 1,9,-1
 524 384 l 1,10,-1
 524 448 l 1,11,-1
 492 448 l 1,12,-1
 492 480 l 1,13,-1
 460 480 l 1,14,-1
 460 512 l 1,15,-1
 396 512 l 1,16,-1
 396 544 l 1,17,-1
 300 544 l 1,18,-1
 300 512 l 1,19,-1
 236 512 l 1,20,-1
 236 480 l 1,21,-1
 204 480 l 1,22,-1
 204 448 l 1,23,-1
 172 448 l 1,24,-1
 172 384 l 1,25,-1
 140 384 l 1,26,-1
 140 256 l 1,27,-1
 172 256 l 1,28,-1
 172 192 l 1,29,-1
 204 192 l 1,30,-1
 204 160 l 1,31,-1
 236 160 l 1,32,-1
 236 128 l 1,33,-1
 300 128 l 1,34,-1
 300 96 l 1,35,-1
 396 96 l 1,0,-1
268 0 m 1,36,-1
 268 32 l 1,37,-1
 172 32 l 1,38,-1
 172 64 l 1,39,-1
 140 64 l 1,40,-1
 140 96 l 1,41,-1
 108 96 l 1,42,-1
 108 128 l 1,43,-1
 76 128 l 1,44,-1
 76 192 l 1,45,-1
 44 192 l 1,46,-1
 44 448 l 1,47,-1
 76 448 l 1,48,-1
 76 512 l 1,49,-1
 108 512 l 1,50,-1
 108 544 l 1,51,-1
 140 544 l 1,52,-1
 140 576 l 1,53,-1
 172 576 l 1,54,-1
 172 608 l 1,55,-1
 268 608 l 1,56,-1
 268 640 l 1,57,-1
 428 640 l 1,58,-1
 428 608 l 1,59,-1
 524 608 l 1,60,-1
 524 576 l 1,61,-1
 556 576 l 1,62,-1
 556 544 l 1,63,-1
 588 544 l 1,64,-1
 588 512 l 1,65,-1
 620 512 l 1,66,-1
 620 448 l 1,67,-1
 652 448 l 1,68,-1
 652 192 l 1,69,-1
 620 192 l 1,70,-1
 620 128 l 1,71,-1
 588 128 l 1,72,-1
 588 96 l 1,73,-1
 556 96 l 1,74,-1
 556 64 l 1,75,-1
 524 64 l 1,76,-1
 524 32 l 1,77,-1
 428 32 l 1,78,-1
 428 0 l 1,79,-1
 268 0 l 1,36,-1
EndSplineSet
Validated: 1
EndChar

StartChar: P
Encoding: 80 80 51
Width: 564
Flags: W
LayerCount: 2
Fore
SplineSet
377 384 m 1,0,-1
 377 416 l 1,1,-1
 409 416 l 1,2,-1
 409 512 l 1,3,-1
 377 512 l 1,4,-1
 377 544 l 1,5,-1
 153 544 l 1,6,-1
 153 384 l 1,7,-1
 377 384 l 1,0,-1
57 0 m 1,8,-1
 57 640 l 1,9,-1
 409 640 l 1,10,-1
 409 608 l 1,11,-1
 441 608 l 1,12,-1
 441 576 l 1,13,-1
 473 576 l 1,14,-1
 473 544 l 1,15,-1
 505 544 l 1,16,-1
 505 384 l 1,17,-1
 473 384 l 1,18,-1
 473 352 l 1,19,-1
 441 352 l 1,20,-1
 441 320 l 1,21,-1
 409 320 l 1,22,-1
 409 288 l 1,23,-1
 153 288 l 1,24,-1
 153 0 l 1,25,-1
 57 0 l 1,8,-1
EndSplineSet
Validated: 1
EndChar

StartChar: Q
Encoding: 81 81 52
Width: 698
Flags: W
LayerCount: 2
Fore
SplineSet
396 96 m 1,0,-1
 396 128 l 1,1,-1
 460 128 l 1,2,-1
 460 160 l 1,3,-1
 492 160 l 1,4,-1
 492 192 l 1,5,-1
 524 192 l 1,6,-1
 524 256 l 1,7,-1
 556 256 l 1,8,-1
 556 384 l 1,9,-1
 524 384 l 1,10,-1
 524 448 l 1,11,-1
 492 448 l 1,12,-1
 492 480 l 1,13,-1
 460 480 l 1,14,-1
 460 512 l 1,15,-1
 396 512 l 1,16,-1
 396 544 l 1,17,-1
 300 544 l 1,18,-1
 300 512 l 1,19,-1
 236 512 l 1,20,-1
 236 480 l 1,21,-1
 204 480 l 1,22,-1
 204 448 l 1,23,-1
 172 448 l 1,24,-1
 172 384 l 1,25,-1
 140 384 l 1,26,-1
 140 256 l 1,27,-1
 172 256 l 1,28,-1
 172 192 l 1,29,-1
 204 192 l 1,30,-1
 204 160 l 1,31,-1
 236 160 l 1,32,-1
 236 128 l 1,33,-1
 300 128 l 1,34,-1
 300 96 l 1,35,-1
 396 96 l 1,0,-1
364 -128 m 1,36,-1
 364 -96 l 1,37,-1
 332 -96 l 1,38,-1
 332 -64 l 1,39,-1
 300 -64 l 1,40,-1
 300 0 l 1,41,-1
 268 0 l 1,42,-1
 268 32 l 1,43,-1
 172 32 l 1,44,-1
 172 64 l 1,45,-1
 140 64 l 1,46,-1
 140 96 l 1,47,-1
 108 96 l 1,48,-1
 108 128 l 1,49,-1
 76 128 l 1,50,-1
 76 192 l 1,51,-1
 44 192 l 1,52,-1
 44 448 l 1,53,-1
 76 448 l 1,54,-1
 76 512 l 1,55,-1
 108 512 l 1,56,-1
 108 544 l 1,57,-1
 140 544 l 1,58,-1
 140 576 l 1,59,-1
 172 576 l 1,60,-1
 172 608 l 1,61,-1
 268 608 l 1,62,-1
 268 640 l 1,63,-1
 428 640 l 1,64,-1
 428 608 l 1,65,-1
 524 608 l 1,66,-1
 524 576 l 1,67,-1
 556 576 l 1,68,-1
 556 544 l 1,69,-1
 588 544 l 1,70,-1
 588 512 l 1,71,-1
 620 512 l 1,72,-1
 620 448 l 1,73,-1
 652 448 l 1,74,-1
 652 192 l 1,75,-1
 620 192 l 1,76,-1
 620 128 l 1,77,-1
 588 128 l 1,78,-1
 588 96 l 1,79,-1
 556 96 l 1,80,-1
 556 64 l 1,81,-1
 524 64 l 1,82,-1
 524 32 l 1,83,-1
 428 32 l 1,84,-1
 428 0 l 1,85,-1
 396 0 l 1,86,-1
 396 -32 l 1,87,-1
 460 -32 l 1,88,-1
 460 -128 l 1,89,-1
 364 -128 l 1,36,-1
EndSplineSet
Validated: 1
EndChar

StartChar: R
Encoding: 82 82 53
Width: 617
Flags: W
LayerCount: 2
Fore
SplineSet
377 384 m 1,0,-1
 377 416 l 1,1,-1
 409 416 l 1,2,-1
 409 512 l 1,3,-1
 377 512 l 1,4,-1
 377 544 l 1,5,-1
 153 544 l 1,6,-1
 153 384 l 1,7,-1
 377 384 l 1,0,-1
57 0 m 1,8,-1
 57 640 l 1,9,-1
 409 640 l 1,10,-1
 409 608 l 1,11,-1
 441 608 l 1,12,-1
 441 576 l 1,13,-1
 473 576 l 1,14,-1
 473 544 l 1,15,-1
 505 544 l 1,16,-1
 505 384 l 1,17,-1
 473 384 l 1,18,-1
 473 352 l 1,19,-1
 441 352 l 1,20,-1
 441 320 l 1,21,-1
 409 320 l 1,22,-1
 409 288 l 1,23,-1
 313 288 l 1,24,-1
 313 256 l 1,25,-1
 345 256 l 1,26,-1
 345 224 l 1,27,-1
 377 224 l 1,28,-1
 377 192 l 1,29,-1
 409 192 l 1,30,-1
 409 160 l 1,31,-1
 441 160 l 1,32,-1
 441 128 l 1,33,-1
 473 128 l 1,34,-1
 473 96 l 1,35,-1
 505 96 l 1,36,-1
 505 64 l 1,37,-1
 537 64 l 1,38,-1
 537 32 l 1,39,-1
 569 32 l 1,40,-1
 569 0 l 1,41,-1
 441 0 l 1,42,-1
 441 32 l 1,43,-1
 409 32 l 1,44,-1
 409 64 l 1,45,-1
 377 64 l 1,46,-1
 377 96 l 1,47,-1
 345 96 l 1,48,-1
 345 128 l 1,49,-1
 313 128 l 1,50,-1
 313 160 l 1,51,-1
 281 160 l 1,52,-1
 281 192 l 1,53,-1
 249 192 l 1,54,-1
 249 224 l 1,55,-1
 217 224 l 1,56,-1
 217 256 l 1,57,-1
 185 256 l 1,58,-1
 185 288 l 1,59,-1
 153 288 l 1,60,-1
 153 0 l 1,61,-1
 57 0 l 1,8,-1
EndSplineSet
Validated: 1
EndChar

StartChar: S
Encoding: 83 83 54
Width: 515
Flags: W
LayerCount: 2
Fore
SplineSet
180 0 m 1,0,-1
 180 32 l 1,1,-1
 116 32 l 1,2,-1
 116 64 l 1,3,-1
 84 64 l 1,4,-1
 84 96 l 1,5,-1
 52 96 l 1,6,-1
 52 160 l 1,7,-1
 148 160 l 1,8,-1
 148 128 l 1,9,-1
 180 128 l 1,10,-1
 180 96 l 1,11,-1
 340 96 l 1,12,-1
 340 128 l 1,13,-1
 372 128 l 1,14,-1
 372 224 l 1,15,-1
 340 224 l 1,16,-1
 340 256 l 1,17,-1
 308 256 l 1,18,-1
 308 288 l 1,19,-1
 212 288 l 1,20,-1
 212 320 l 1,21,-1
 116 320 l 1,22,-1
 116 352 l 1,23,-1
 84 352 l 1,24,-1
 84 384 l 1,25,-1
 52 384 l 1,26,-1
 52 544 l 1,27,-1
 84 544 l 1,28,-1
 84 576 l 1,29,-1
 116 576 l 1,30,-1
 116 608 l 1,31,-1
 148 608 l 1,32,-1
 148 640 l 1,33,-1
 372 640 l 1,34,-1
 372 608 l 1,35,-1
 404 608 l 1,36,-1
 404 576 l 1,37,-1
 436 576 l 1,38,-1
 436 512 l 1,39,-1
 340 512 l 1,40,-1
 340 544 l 1,41,-1
 180 544 l 1,42,-1
 180 512 l 1,43,-1
 148 512 l 1,44,-1
 148 416 l 1,45,-1
 212 416 l 1,46,-1
 212 384 l 1,47,-1
 308 384 l 1,48,-1
 308 352 l 1,49,-1
 372 352 l 1,50,-1
 372 320 l 1,51,-1
 436 320 l 1,52,-1
 436 256 l 1,53,-1
 468 256 l 1,54,-1
 468 96 l 1,55,-1
 436 96 l 1,56,-1
 436 64 l 1,57,-1
 404 64 l 1,58,-1
 404 32 l 1,59,-1
 340 32 l 1,60,-1
 340 0 l 1,61,-1
 180 0 l 1,0,-1
EndSplineSet
Validated: 1
EndChar

StartChar: T
Encoding: 84 84 55
Width: 550
Flags: W
LayerCount: 2
Fore
SplineSet
224 0 m 1,0,-1
 224 544 l 1,1,-1
 0 544 l 1,2,-1
 0 640 l 1,3,-1
 544 640 l 1,4,-1
 544 544 l 1,5,-1
 320 544 l 1,6,-1
 320 0 l 1,7,-1
 224 0 l 1,0,-1
EndSplineSet
Validated: 1
EndChar

StartChar: U
Encoding: 85 85 56
Width: 594
Flags: W
LayerCount: 2
Fore
SplineSet
183 0 m 1,0,-1
 183 32 l 1,1,-1
 119 32 l 1,2,-1
 119 64 l 1,3,-1
 87 64 l 1,4,-1
 87 128 l 1,5,-1
 55 128 l 1,6,-1
 55 640 l 1,7,-1
 151 640 l 1,8,-1
 151 192 l 1,9,-1
 183 192 l 1,10,-1
 183 128 l 1,11,-1
 215 128 l 1,12,-1
 215 96 l 1,13,-1
 375 96 l 1,14,-1
 375 128 l 1,15,-1
 407 128 l 1,16,-1
 407 192 l 1,17,-1
 439 192 l 1,18,-1
 439 640 l 1,19,-1
 535 640 l 1,20,-1
 535 128 l 1,21,-1
 503 128 l 1,22,-1
 503 64 l 1,23,-1
 471 64 l 1,24,-1
 471 32 l 1,25,-1
 407 32 l 1,26,-1
 407 0 l 1,27,-1
 183 0 l 1,0,-1
EndSplineSet
Validated: 1
EndChar

StartChar: V
Encoding: 86 86 57
Width: 618
Flags: W
LayerCount: 2
Fore
SplineSet
239 0 m 1,0,-1
 239 64 l 1,1,-1
 207 64 l 1,2,-1
 207 160 l 1,3,-1
 175 160 l 1,4,-1
 175 224 l 1,5,-1
 143 224 l 1,6,-1
 143 320 l 1,7,-1
 111 320 l 1,8,-1
 111 416 l 1,9,-1
 79 416 l 1,10,-1
 79 480 l 1,11,-1
 47 480 l 1,12,-1
 47 576 l 1,13,-1
 15 576 l 1,14,-1
 15 640 l 1,15,-1
 111 640 l 1,16,-1
 111 576 l 1,17,-1
 143 576 l 1,18,-1
 143 480 l 1,19,-1
 175 480 l 1,20,-1
 175 416 l 1,21,-1
 207 416 l 1,22,-1
 207 320 l 1,23,-1
 239 320 l 1,24,-1
 239 224 l 1,25,-1
 271 224 l 1,26,-1
 271 160 l 1,27,-1
 303 160 l 1,28,-1
 303 224 l 1,29,-1
 335 224 l 1,30,-1
 335 320 l 1,31,-1
 367 320 l 1,32,-1
 367 416 l 1,33,-1
 399 416 l 1,34,-1
 399 480 l 1,35,-1
 431 480 l 1,36,-1
 431 576 l 1,37,-1
 463 576 l 1,38,-1
 463 640 l 1,39,-1
 559 640 l 1,40,-1
 559 576 l 1,41,-1
 527 576 l 1,42,-1
 527 480 l 1,43,-1
 495 480 l 1,44,-1
 495 416 l 1,45,-1
 463 416 l 1,46,-1
 463 320 l 1,47,-1
 431 320 l 1,48,-1
 431 224 l 1,49,-1
 399 224 l 1,50,-1
 399 160 l 1,51,-1
 367 160 l 1,52,-1
 367 64 l 1,53,-1
 335 64 l 1,54,-1
 335 0 l 1,55,-1
 239 0 l 1,0,-1
EndSplineSet
Validated: 1
EndChar

StartChar: W
Encoding: 87 87 58
Width: 826
Flags: W
LayerCount: 2
Fore
SplineSet
191 0 m 1,0,-1
 191 64 l 1,1,-1
 159 64 l 1,2,-1
 159 160 l 1,3,-1
 127 160 l 1,4,-1
 127 288 l 1,5,-1
 95 288 l 1,6,-1
 95 416 l 1,7,-1
 63 416 l 1,8,-1
 63 512 l 1,9,-1
 31 512 l 1,10,-1
 31 640 l 1,11,-1
 127 640 l 1,12,-1
 127 512 l 1,13,-1
 159 512 l 1,14,-1
 159 384 l 1,15,-1
 191 384 l 1,16,-1
 191 288 l 1,17,-1
 223 288 l 1,18,-1
 223 160 l 1,19,-1
 255 160 l 1,20,-1
 255 288 l 1,21,-1
 287 288 l 1,22,-1
 287 384 l 1,23,-1
 319 384 l 1,24,-1
 319 512 l 1,25,-1
 351 512 l 1,26,-1
 351 640 l 1,27,-1
 447 640 l 1,28,-1
 447 512 l 1,29,-1
 479 512 l 1,30,-1
 479 384 l 1,31,-1
 511 384 l 1,32,-1
 511 288 l 1,33,-1
 543 288 l 1,34,-1
 543 160 l 1,35,-1
 575 160 l 1,36,-1
 575 288 l 1,37,-1
 607 288 l 1,38,-1
 607 384 l 1,39,-1
 639 384 l 1,40,-1
 639 512 l 1,41,-1
 671 512 l 1,42,-1
 671 640 l 1,43,-1
 767 640 l 1,44,-1
 767 512 l 1,45,-1
 735 512 l 1,46,-1
 735 416 l 1,47,-1
 703 416 l 1,48,-1
 703 288 l 1,49,-1
 671 288 l 1,50,-1
 671 160 l 1,51,-1
 639 160 l 1,52,-1
 639 64 l 1,53,-1
 607 64 l 1,54,-1
 607 0 l 1,55,-1
 511 0 l 1,56,-1
 511 64 l 1,57,-1
 479 64 l 1,58,-1
 479 160 l 1,59,-1
 447 160 l 1,60,-1
 447 288 l 1,61,-1
 415 288 l 1,62,-1
 415 416 l 1,63,-1
 383 416 l 1,64,-1
 383 288 l 1,65,-1
 351 288 l 1,66,-1
 351 160 l 1,67,-1
 319 160 l 1,68,-1
 319 64 l 1,69,-1
 287 64 l 1,70,-1
 287 0 l 1,71,-1
 191 0 l 1,0,-1
EndSplineSet
Validated: 1
EndChar

StartChar: X
Encoding: 88 88 59
Width: 674
Flags: W
LayerCount: 2
Fore
SplineSet
39 0 m 1,0,-1
 39 64 l 1,1,-1
 71 64 l 1,2,-1
 71 96 l 1,3,-1
 103 96 l 1,4,-1
 103 128 l 1,5,-1
 135 128 l 1,6,-1
 135 160 l 1,7,-1
 167 160 l 1,8,-1
 167 224 l 1,9,-1
 199 224 l 1,10,-1
 199 256 l 1,11,-1
 231 256 l 1,12,-1
 231 288 l 1,13,-1
 263 288 l 1,14,-1
 263 352 l 1,15,-1
 231 352 l 1,16,-1
 231 384 l 1,17,-1
 199 384 l 1,18,-1
 199 416 l 1,19,-1
 167 416 l 1,20,-1
 167 480 l 1,21,-1
 135 480 l 1,22,-1
 135 512 l 1,23,-1
 103 512 l 1,24,-1
 103 544 l 1,25,-1
 71 544 l 1,26,-1
 71 576 l 1,27,-1
 39 576 l 1,28,-1
 39 640 l 1,29,-1
 167 640 l 1,30,-1
 167 608 l 1,31,-1
 199 608 l 1,32,-1
 199 544 l 1,33,-1
 231 544 l 1,34,-1
 231 512 l 1,35,-1
 263 512 l 1,36,-1
 263 480 l 1,37,-1
 295 480 l 1,38,-1
 295 416 l 1,39,-1
 359 416 l 1,40,-1
 359 480 l 1,41,-1
 391 480 l 1,42,-1
 391 512 l 1,43,-1
 423 512 l 1,44,-1
 423 544 l 1,45,-1
 455 544 l 1,46,-1
 455 608 l 1,47,-1
 487 608 l 1,48,-1
 487 640 l 1,49,-1
 615 640 l 1,50,-1
 615 576 l 1,51,-1
 583 576 l 1,52,-1
 583 544 l 1,53,-1
 551 544 l 1,54,-1
 551 512 l 1,55,-1
 519 512 l 1,56,-1
 519 480 l 1,57,-1
 487 480 l 1,58,-1
 487 416 l 1,59,-1
 455 416 l 1,60,-1
 455 384 l 1,61,-1
 423 384 l 1,62,-1
 423 352 l 1,63,-1
 391 352 l 1,64,-1
 391 288 l 1,65,-1
 423 288 l 1,66,-1
 423 256 l 1,67,-1
 455 256 l 1,68,-1
 455 224 l 1,69,-1
 487 224 l 1,70,-1
 487 160 l 1,71,-1
 519 160 l 1,72,-1
 519 128 l 1,73,-1
 551 128 l 1,74,-1
 551 96 l 1,75,-1
 583 96 l 1,76,-1
 583 64 l 1,77,-1
 615 64 l 1,78,-1
 615 0 l 1,79,-1
 487 0 l 1,80,-1
 487 32 l 1,81,-1
 455 32 l 1,82,-1
 455 96 l 1,83,-1
 423 96 l 1,84,-1
 423 128 l 1,85,-1
 391 128 l 1,86,-1
 391 160 l 1,87,-1
 359 160 l 1,88,-1
 359 224 l 1,89,-1
 295 224 l 1,90,-1
 295 160 l 1,91,-1
 263 160 l 1,92,-1
 263 128 l 1,93,-1
 231 128 l 1,94,-1
 231 96 l 1,95,-1
 199 96 l 1,96,-1
 199 32 l 1,97,-1
 167 32 l 1,98,-1
 167 0 l 1,99,-1
 39 0 l 1,0,-1
EndSplineSet
Validated: 1
EndChar

StartChar: Y
Encoding: 89 89 60
Width: 601
Flags: W
LayerCount: 2
Fore
SplineSet
222 0 m 1,0,-1
 222 224 l 1,1,-1
 190 224 l 1,2,-1
 190 288 l 1,3,-1
 158 288 l 1,4,-1
 158 352 l 1,5,-1
 126 352 l 1,6,-1
 126 416 l 1,7,-1
 94 416 l 1,8,-1
 94 480 l 1,9,-1
 62 480 l 1,10,-1
 62 544 l 1,11,-1
 30 544 l 1,12,-1
 30 608 l 1,13,-1
 -2 608 l 1,14,-1
 -2 640 l 1,15,-1
 126 640 l 1,16,-1
 126 576 l 1,17,-1
 158 576 l 1,18,-1
 158 512 l 1,19,-1
 190 512 l 1,20,-1
 190 448 l 1,21,-1
 222 448 l 1,22,-1
 222 384 l 1,23,-1
 254 384 l 1,24,-1
 254 320 l 1,25,-1
 286 320 l 1,26,-1
 286 384 l 1,27,-1
 318 384 l 1,28,-1
 318 448 l 1,29,-1
 350 448 l 1,30,-1
 350 512 l 1,31,-1
 382 512 l 1,32,-1
 382 576 l 1,33,-1
 414 576 l 1,34,-1
 414 640 l 1,35,-1
 542 640 l 1,36,-1
 542 608 l 1,37,-1
 510 608 l 1,38,-1
 510 544 l 1,39,-1
 478 544 l 1,40,-1
 478 480 l 1,41,-1
 446 480 l 1,42,-1
 446 416 l 1,43,-1
 414 416 l 1,44,-1
 414 352 l 1,45,-1
 382 352 l 1,46,-1
 382 288 l 1,47,-1
 350 288 l 1,48,-1
 350 224 l 1,49,-1
 318 224 l 1,50,-1
 318 0 l 1,51,-1
 222 0 l 1,0,-1
EndSplineSet
Validated: 1
EndChar

StartChar: Z
Encoding: 90 90 61
Width: 582
Flags: W
LayerCount: 2
Fore
SplineSet
43 0 m 1,0,-1
 43 96 l 1,1,-1
 75 96 l 1,2,-1
 75 128 l 1,3,-1
 107 128 l 1,4,-1
 107 160 l 1,5,-1
 139 160 l 1,6,-1
 139 224 l 1,7,-1
 171 224 l 1,8,-1
 171 256 l 1,9,-1
 203 256 l 1,10,-1
 203 288 l 1,11,-1
 235 288 l 1,12,-1
 235 352 l 1,13,-1
 267 352 l 1,14,-1
 267 384 l 1,15,-1
 299 384 l 1,16,-1
 299 416 l 1,17,-1
 331 416 l 1,18,-1
 331 480 l 1,19,-1
 363 480 l 1,20,-1
 363 512 l 1,21,-1
 395 512 l 1,22,-1
 395 544 l 1,23,-1
 43 544 l 1,24,-1
 43 640 l 1,25,-1
 523 640 l 1,26,-1
 523 512 l 1,27,-1
 491 512 l 1,28,-1
 491 480 l 1,29,-1
 459 480 l 1,30,-1
 459 416 l 1,31,-1
 427 416 l 1,32,-1
 427 384 l 1,33,-1
 395 384 l 1,34,-1
 395 352 l 1,35,-1
 363 352 l 1,36,-1
 363 288 l 1,37,-1
 331 288 l 1,38,-1
 331 256 l 1,39,-1
 299 256 l 1,40,-1
 299 224 l 1,41,-1
 267 224 l 1,42,-1
 267 192 l 1,43,-1
 235 192 l 1,44,-1
 235 128 l 1,45,-1
 203 128 l 1,46,-1
 203 96 l 1,47,-1
 523 96 l 1,48,-1
 523 0 l 1,49,-1
 43 0 l 1,0,-1
EndSplineSet
Validated: 1
EndChar

StartChar: bracketleft
Encoding: 91 91 62
Width: 315
Flags: W
LayerCount: 2
Fore
SplineSet
58 -96 m 1,0,-1
 58 736 l 1,1,-1
 250 736 l 1,2,-1
 250 672 l 1,3,-1
 122 672 l 1,4,-1
 122 -32 l 1,5,-1
 250 -32 l 1,6,-1
 250 -96 l 1,7,-1
 58 -96 l 1,0,-1
EndSplineSet
Validated: 1
EndChar

StartChar: backslash
Encoding: 92 92 63
Width: 497
Flags: W
LayerCount: 2
Fore
SplineSet
344 -64 m 1,0,-1
 344 0 l 1,1,-1
 312 0 l 1,2,-1
 312 64 l 1,3,-1
 280 64 l 1,4,-1
 280 128 l 1,5,-1
 248 128 l 1,6,-1
 248 192 l 1,7,-1
 216 192 l 1,8,-1
 216 256 l 1,9,-1
 184 256 l 1,10,-1
 184 320 l 1,11,-1
 152 320 l 1,12,-1
 152 384 l 1,13,-1
 120 384 l 1,14,-1
 120 448 l 1,15,-1
 88 448 l 1,16,-1
 88 512 l 1,17,-1
 56 512 l 1,18,-1
 56 576 l 1,19,-1
 24 576 l 1,20,-1
 24 640 l 1,21,-1
 -8 640 l 1,22,-1
 -8 704 l 1,23,-1
 88 704 l 1,24,-1
 88 640 l 1,25,-1
 120 640 l 1,26,-1
 120 576 l 1,27,-1
 152 576 l 1,28,-1
 152 512 l 1,29,-1
 184 512 l 1,30,-1
 184 448 l 1,31,-1
 216 448 l 1,32,-1
 216 384 l 1,33,-1
 248 384 l 1,34,-1
 248 320 l 1,35,-1
 280 320 l 1,36,-1
 280 256 l 1,37,-1
 312 256 l 1,38,-1
 312 192 l 1,39,-1
 344 192 l 1,40,-1
 344 128 l 1,41,-1
 376 128 l 1,42,-1
 376 64 l 1,43,-1
 408 64 l 1,44,-1
 408 0 l 1,45,-1
 440 0 l 1,46,-1
 440 -64 l 1,47,-1
 344 -64 l 1,0,-1
EndSplineSet
Validated: 1
EndChar

StartChar: bracketright
Encoding: 93 93 64
Width: 269
Flags: W
LayerCount: 2
Fore
SplineSet
12 -96 m 1,0,-1
 12 -32 l 1,1,-1
 140 -32 l 1,2,-1
 140 672 l 1,3,-1
 12 672 l 1,4,-1
 12 736 l 1,5,-1
 204 736 l 1,6,-1
 204 -96 l 1,7,-1
 12 -96 l 1,0,-1
EndSplineSet
Validated: 1
EndChar

StartChar: asciicircum
Encoding: 94 94 65
Width: 400
Flags: W
LayerCount: 2
Fore
SplineSet
21 512 m 1,0,-1
 21 544 l 1,1,-1
 53 544 l 1,2,-1
 53 576 l 1,3,-1
 85 576 l 1,4,-1
 85 608 l 1,5,-1
 117 608 l 1,6,-1
 117 640 l 1,7,-1
 245 640 l 1,8,-1
 245 608 l 1,9,-1
 277 608 l 1,10,-1
 277 576 l 1,11,-1
 309 576 l 1,12,-1
 309 544 l 1,13,-1
 341 544 l 1,14,-1
 341 512 l 1,15,-1
 277 512 l 1,16,-1
 277 544 l 1,17,-1
 213 544 l 1,18,-1
 213 576 l 1,19,-1
 149 576 l 1,20,-1
 149 544 l 1,21,-1
 85 544 l 1,22,-1
 85 512 l 1,23,-1
 21 512 l 1,0,-1
EndSplineSet
Validated: 1
EndChar

StartChar: underscore
Encoding: 95 95 66
Width: 735
Flags: W
LayerCount: 2
Fore
SplineSet
6 -64 m 1,0,-1
 6 0 l 1,1,-1
 678 0 l 1,2,-1
 678 -64 l 1,3,-1
 6 -64 l 1,0,-1
EndSplineSet
Validated: 1
EndChar

StartChar: grave
Encoding: 96 96 67
Width: 229
Flags: W
LayerCount: 2
Fore
SplineSet
74 544 m 1,0,-1
 74 576 l 1,1,-1
 42 576 l 1,2,-1
 42 608 l 1,3,-1
 10 608 l 1,4,-1
 10 640 l 1,5,-1
 106 640 l 1,6,-1
 106 608 l 1,7,-1
 138 608 l 1,8,-1
 138 576 l 1,9,-1
 170 576 l 1,10,-1
 170 544 l 1,11,-1
 74 544 l 1,0,-1
EndSplineSet
Validated: 1
EndChar

StartChar: a
Encoding: 97 97 68
Width: 509
Flags: W
LayerCount: 2
Fore
SplineSet
298 96 m 1,0,-1
 298 128 l 1,1,-1
 330 128 l 1,2,-1
 330 160 l 1,3,-1
 362 160 l 1,4,-1
 362 320 l 1,5,-1
 330 320 l 1,6,-1
 330 352 l 1,7,-1
 298 352 l 1,8,-1
 298 384 l 1,9,-1
 170 384 l 1,10,-1
 170 352 l 1,11,-1
 138 352 l 1,12,-1
 138 128 l 1,13,-1
 170 128 l 1,14,-1
 170 96 l 1,15,-1
 298 96 l 1,0,-1
170 0 m 1,16,-1
 170 32 l 1,17,-1
 106 32 l 1,18,-1
 106 64 l 1,19,-1
 74 64 l 1,20,-1
 74 128 l 1,21,-1
 42 128 l 1,22,-1
 42 352 l 1,23,-1
 74 352 l 1,24,-1
 74 416 l 1,25,-1
 106 416 l 1,26,-1
 106 448 l 1,27,-1
 170 448 l 1,28,-1
 170 480 l 1,29,-1
 298 480 l 1,30,-1
 298 448 l 1,31,-1
 330 448 l 1,32,-1
 330 416 l 1,33,-1
 362 416 l 1,34,-1
 362 480 l 1,35,-1
 458 480 l 1,36,-1
 458 0 l 1,37,-1
 362 0 l 1,38,-1
 362 64 l 1,39,-1
 330 64 l 1,40,-1
 330 32 l 1,41,-1
 298 32 l 1,42,-1
 298 0 l 1,43,-1
 170 0 l 1,16,-1
EndSplineSet
Validated: 1
EndChar

StartChar: b
Encoding: 98 98 69
Width: 510
Flags: W
LayerCount: 2
Fore
SplineSet
345 96 m 1,0,-1
 345 128 l 1,1,-1
 377 128 l 1,2,-1
 377 352 l 1,3,-1
 345 352 l 1,4,-1
 345 384 l 1,5,-1
 217 384 l 1,6,-1
 217 352 l 1,7,-1
 185 352 l 1,8,-1
 185 320 l 1,9,-1
 153 320 l 1,10,-1
 153 160 l 1,11,-1
 185 160 l 1,12,-1
 185 128 l 1,13,-1
 217 128 l 1,14,-1
 217 96 l 1,15,-1
 345 96 l 1,0,-1
57 0 m 1,16,-1
 57 640 l 1,17,-1
 153 640 l 1,18,-1
 153 416 l 1,19,-1
 185 416 l 1,20,-1
 185 448 l 1,21,-1
 217 448 l 1,22,-1
 217 480 l 1,23,-1
 345 480 l 1,24,-1
 345 448 l 1,25,-1
 409 448 l 1,26,-1
 409 416 l 1,27,-1
 441 416 l 1,28,-1
 441 352 l 1,29,-1
 473 352 l 1,30,-1
 473 128 l 1,31,-1
 441 128 l 1,32,-1
 441 64 l 1,33,-1
 409 64 l 1,34,-1
 409 32 l 1,35,-1
 345 32 l 1,36,-1
 345 0 l 1,37,-1
 217 0 l 1,38,-1
 217 32 l 1,39,-1
 185 32 l 1,40,-1
 185 64 l 1,41,-1
 153 64 l 1,42,-1
 153 0 l 1,43,-1
 57 0 l 1,16,-1
EndSplineSet
Validated: 1
EndChar

StartChar: c
Encoding: 99 99 70
Width: 441
Flags: W
LayerCount: 2
Fore
SplineSet
170 0 m 1,0,-1
 170 32 l 1,1,-1
 106 32 l 1,2,-1
 106 64 l 1,3,-1
 74 64 l 1,4,-1
 74 128 l 1,5,-1
 42 128 l 1,6,-1
 42 352 l 1,7,-1
 74 352 l 1,8,-1
 74 416 l 1,9,-1
 106 416 l 1,10,-1
 106 448 l 1,11,-1
 170 448 l 1,12,-1
 170 480 l 1,13,-1
 298 480 l 1,14,-1
 298 448 l 1,15,-1
 362 448 l 1,16,-1
 362 416 l 1,17,-1
 394 416 l 1,18,-1
 394 320 l 1,19,-1
 330 320 l 1,20,-1
 330 352 l 1,21,-1
 298 352 l 1,22,-1
 298 384 l 1,23,-1
 170 384 l 1,24,-1
 170 352 l 1,25,-1
 138 352 l 1,26,-1
 138 128 l 1,27,-1
 170 128 l 1,28,-1
 170 96 l 1,29,-1
 298 96 l 1,30,-1
 298 128 l 1,31,-1
 330 128 l 1,32,-1
 330 160 l 1,33,-1
 394 160 l 1,34,-1
 394 64 l 1,35,-1
 362 64 l 1,36,-1
 362 32 l 1,37,-1
 298 32 l 1,38,-1
 298 0 l 1,39,-1
 170 0 l 1,0,-1
EndSplineSet
Validated: 1
EndChar

StartChar: d
Encoding: 100 100 71
Width: 513
Flags: W
LayerCount: 2
Fore
SplineSet
294 96 m 1,0,-1
 294 128 l 1,1,-1
 326 128 l 1,2,-1
 326 160 l 1,3,-1
 358 160 l 1,4,-1
 358 320 l 1,5,-1
 326 320 l 1,6,-1
 326 352 l 1,7,-1
 294 352 l 1,8,-1
 294 384 l 1,9,-1
 166 384 l 1,10,-1
 166 352 l 1,11,-1
 134 352 l 1,12,-1
 134 128 l 1,13,-1
 166 128 l 1,14,-1
 166 96 l 1,15,-1
 294 96 l 1,0,-1
166 0 m 1,16,-1
 166 32 l 1,17,-1
 102 32 l 1,18,-1
 102 64 l 1,19,-1
 70 64 l 1,20,-1
 70 128 l 1,21,-1
 38 128 l 1,22,-1
 38 352 l 1,23,-1
 70 352 l 1,24,-1
 70 416 l 1,25,-1
 102 416 l 1,26,-1
 102 448 l 1,27,-1
 166 448 l 1,28,-1
 166 480 l 1,29,-1
 294 480 l 1,30,-1
 294 448 l 1,31,-1
 326 448 l 1,32,-1
 326 416 l 1,33,-1
 358 416 l 1,34,-1
 358 640 l 1,35,-1
 454 640 l 1,36,-1
 454 0 l 1,37,-1
 358 0 l 1,38,-1
 358 64 l 1,39,-1
 326 64 l 1,40,-1
 326 32 l 1,41,-1
 294 32 l 1,42,-1
 294 0 l 1,43,-1
 166 0 l 1,16,-1
EndSplineSet
Validated: 1
EndChar

StartChar: e
Encoding: 101 101 72
Width: 468
Flags: W
LayerCount: 2
Fore
SplineSet
330 288 m 1,0,-1
 330 352 l 1,1,-1
 298 352 l 1,2,-1
 298 384 l 1,3,-1
 170 384 l 1,4,-1
 170 352 l 1,5,-1
 138 352 l 1,6,-1
 138 288 l 1,7,-1
 330 288 l 1,0,-1
170 0 m 1,8,-1
 170 32 l 1,9,-1
 106 32 l 1,10,-1
 106 64 l 1,11,-1
 74 64 l 1,12,-1
 74 128 l 1,13,-1
 42 128 l 1,14,-1
 42 352 l 1,15,-1
 74 352 l 1,16,-1
 74 416 l 1,17,-1
 106 416 l 1,18,-1
 106 448 l 1,19,-1
 170 448 l 1,20,-1
 170 480 l 1,21,-1
 298 480 l 1,22,-1
 298 448 l 1,23,-1
 362 448 l 1,24,-1
 362 416 l 1,25,-1
 394 416 l 1,26,-1
 394 352 l 1,27,-1
 426 352 l 1,28,-1
 426 224 l 1,29,-1
 138 224 l 1,30,-1
 138 128 l 1,31,-1
 170 128 l 1,32,-1
 170 96 l 1,33,-1
 298 96 l 1,34,-1
 298 128 l 1,35,-1
 330 128 l 1,36,-1
 330 160 l 1,37,-1
 426 160 l 1,38,-1
 426 96 l 1,39,-1
 394 96 l 1,40,-1
 394 64 l 1,41,-1
 362 64 l 1,42,-1
 362 32 l 1,43,-1
 298 32 l 1,44,-1
 298 0 l 1,45,-1
 170 0 l 1,8,-1
EndSplineSet
Validated: 1
EndChar

StartChar: f
Encoding: 102 102 73
Width: 387
Flags: W
LayerCount: 2
Fore
SplineSet
104 0 m 1,0,-1
 104 384 l 1,1,-1
 40 384 l 1,2,-1
 40 480 l 1,3,-1
 104 480 l 1,4,-1
 104 576 l 1,5,-1
 136 576 l 1,6,-1
 136 608 l 1,7,-1
 168 608 l 1,8,-1
 168 640 l 1,9,-1
 328 640 l 1,10,-1
 328 576 l 1,11,-1
 232 576 l 1,12,-1
 232 544 l 1,13,-1
 200 544 l 1,14,-1
 200 480 l 1,15,-1
 296 480 l 1,16,-1
 296 384 l 1,17,-1
 200 384 l 1,18,-1
 200 0 l 1,19,-1
 104 0 l 1,0,-1
EndSplineSet
Validated: 1
EndChar

StartChar: g
Encoding: 103 103 74
Width: 518
Flags: W
LayerCount: 2
Fore
SplineSet
301 96 m 1,0,-1
 301 128 l 1,1,-1
 333 128 l 1,2,-1
 333 160 l 1,3,-1
 365 160 l 1,4,-1
 365 320 l 1,5,-1
 333 320 l 1,6,-1
 333 352 l 1,7,-1
 301 352 l 1,8,-1
 301 384 l 1,9,-1
 173 384 l 1,10,-1
 173 352 l 1,11,-1
 141 352 l 1,12,-1
 141 128 l 1,13,-1
 173 128 l 1,14,-1
 173 96 l 1,15,-1
 301 96 l 1,0,-1
173 -192 m 1,16,-1
 173 -160 l 1,17,-1
 109 -160 l 1,18,-1
 109 -128 l 1,19,-1
 77 -128 l 1,20,-1
 77 -96 l 1,21,-1
 45 -96 l 1,22,-1
 45 -64 l 1,23,-1
 77 -64 l 1,24,-1
 77 -32 l 1,25,-1
 141 -32 l 1,26,-1
 141 -64 l 1,27,-1
 173 -64 l 1,28,-1
 173 -96 l 1,29,-1
 333 -96 l 1,30,-1
 333 -64 l 1,31,-1
 365 -64 l 1,32,-1
 365 64 l 1,33,-1
 333 64 l 1,34,-1
 333 32 l 1,35,-1
 301 32 l 1,36,-1
 301 0 l 1,37,-1
 173 0 l 1,38,-1
 173 32 l 1,39,-1
 109 32 l 1,40,-1
 109 64 l 1,41,-1
 77 64 l 1,42,-1
 77 128 l 1,43,-1
 45 128 l 1,44,-1
 45 352 l 1,45,-1
 77 352 l 1,46,-1
 77 416 l 1,47,-1
 109 416 l 1,48,-1
 109 448 l 1,49,-1
 173 448 l 1,50,-1
 173 480 l 1,51,-1
 301 480 l 1,52,-1
 301 448 l 1,53,-1
 333 448 l 1,54,-1
 333 416 l 1,55,-1
 365 416 l 1,56,-1
 365 480 l 1,57,-1
 461 480 l 1,58,-1
 461 -96 l 1,59,-1
 429 -96 l 1,60,-1
 429 -128 l 1,61,-1
 397 -128 l 1,62,-1
 397 -160 l 1,63,-1
 333 -160 l 1,64,-1
 333 -192 l 1,65,-1
 173 -192 l 1,16,-1
EndSplineSet
Validated: 1
EndChar

StartChar: h
Encoding: 104 104 75
Width: 521
Flags: W
LayerCount: 2
Fore
SplineSet
57 0 m 1,0,-1
 57 640 l 1,1,-1
 153 640 l 1,2,-1
 153 416 l 1,3,-1
 185 416 l 1,4,-1
 185 448 l 1,5,-1
 217 448 l 1,6,-1
 217 480 l 1,7,-1
 345 480 l 1,8,-1
 345 448 l 1,9,-1
 409 448 l 1,10,-1
 409 416 l 1,11,-1
 441 416 l 1,12,-1
 441 352 l 1,13,-1
 473 352 l 1,14,-1
 473 0 l 1,15,-1
 377 0 l 1,16,-1
 377 352 l 1,17,-1
 345 352 l 1,18,-1
 345 384 l 1,19,-1
 217 384 l 1,20,-1
 217 352 l 1,21,-1
 185 352 l 1,22,-1
 185 320 l 1,23,-1
 153 320 l 1,24,-1
 153 0 l 1,25,-1
 57 0 l 1,0,-1
EndSplineSet
Validated: 1
EndChar

StartChar: i
Encoding: 105 105 76
Width: 212
Flags: W
LayerCount: 2
Fore
SplineSet
57 0 m 1,0,-1
 57 480 l 1,1,-1
 152.999 480 l 1,2,-1
 152.999 0 l 1,3,-1
 57 0 l 1,0,-1
57 544 m 1,4,-1
 57 640 l 1,5,-1
 152.999 640 l 1,6,-1
 152.999 544 l 1,7,-1
 57 544 l 1,4,-1
EndSplineSet
Validated: 1
EndChar

StartChar: j
Encoding: 106 106 77
Width: 212
Flags: W
LayerCount: 2
Fore
SplineSet
57 -192 m 1,0,-1
 57 480 l 1,1,-1
 153 480 l 1,2,-1
 153 -192 l 1,3,-1
 57 -192 l 1,0,-1
57 544 m 1,4,-1
 57 640 l 1,5,-1
 153 640 l 1,6,-1
 153 544 l 1,7,-1
 57 544 l 1,4,-1
EndSplineSet
Validated: 1
EndChar

StartChar: k
Encoding: 107 107 78
Width: 521
Flags: W
LayerCount: 2
Fore
SplineSet
57 0 m 1,0,-1
 57 640 l 1,1,-1
 153 640 l 1,2,-1
 153 288 l 1,3,-1
 185 288 l 1,4,-1
 185 320 l 1,5,-1
 217 320 l 1,6,-1
 217 352 l 1,7,-1
 249 352 l 1,8,-1
 249 384 l 1,9,-1
 281 384 l 1,10,-1
 281 416 l 1,11,-1
 313 416 l 1,12,-1
 313 448 l 1,13,-1
 345 448 l 1,14,-1
 345 480 l 1,15,-1
 473 480 l 1,16,-1
 473 448 l 1,17,-1
 441 448 l 1,18,-1
 441 416 l 1,19,-1
 409 416 l 1,20,-1
 409 384 l 1,21,-1
 377 384 l 1,22,-1
 377 352 l 1,23,-1
 345 352 l 1,24,-1
 345 320 l 1,25,-1
 313 320 l 1,26,-1
 313 288 l 1,27,-1
 281 288 l 1,28,-1
 281 256 l 1,29,-1
 249 256 l 1,30,-1
 249 224 l 1,31,-1
 281 224 l 1,32,-1
 281 192 l 1,33,-1
 313 192 l 1,34,-1
 313 160 l 1,35,-1
 345 160 l 1,36,-1
 345 128 l 1,37,-1
 377 128 l 1,38,-1
 377 96 l 1,39,-1
 409 96 l 1,40,-1
 409 64 l 1,41,-1
 441 64 l 1,42,-1
 441 32 l 1,43,-1
 473 32 l 1,44,-1
 473 0 l 1,45,-1
 345 0 l 1,46,-1
 345 32 l 1,47,-1
 313 32 l 1,48,-1
 313 64 l 1,49,-1
 281 64 l 1,50,-1
 281 96 l 1,51,-1
 249 96 l 1,52,-1
 249 128 l 1,53,-1
 217 128 l 1,54,-1
 217 160 l 1,55,-1
 185 160 l 1,56,-1
 185 192 l 1,57,-1
 153 192 l 1,58,-1
 153 0 l 1,59,-1
 57 0 l 1,0,-1
EndSplineSet
Validated: 1
EndChar

StartChar: l
Encoding: 108 108 79
Width: 212
Flags: W
LayerCount: 2
Fore
SplineSet
57 0 m 1,0,-1
 57 640 l 1,1,-1
 153 640 l 1,2,-1
 153 0 l 1,3,-1
 57 0 l 1,0,-1
EndSplineSet
Validated: 1
EndChar

StartChar: m
Encoding: 109 109 80
Width: 709
Flags: W
LayerCount: 2
Fore
SplineSet
53 0 m 1,0,-1
 53 480 l 1,1,-1
 149 480 l 1,2,-1
 149 416 l 1,3,-1
 181 416 l 1,4,-1
 181 448 l 1,5,-1
 213 448 l 1,6,-1
 213 480 l 1,7,-1
 309 480 l 1,8,-1
 309 448 l 1,9,-1
 341 448 l 1,10,-1
 341 416 l 1,11,-1
 405 416 l 1,12,-1
 405 448 l 1,13,-1
 437 448 l 1,14,-1
 437 480 l 1,15,-1
 565 480 l 1,16,-1
 565 448 l 1,17,-1
 597 448 l 1,18,-1
 597 416 l 1,19,-1
 629 416 l 1,20,-1
 629 352 l 1,21,-1
 661 352 l 1,22,-1
 661 0 l 1,23,-1
 565 0 l 1,24,-1
 565 352 l 1,25,-1
 533 352 l 1,26,-1
 533 384 l 1,27,-1
 437 384 l 1,28,-1
 437 352 l 1,29,-1
 405 352 l 1,30,-1
 405 0 l 1,31,-1
 309 0 l 1,32,-1
 309 352 l 1,33,-1
 277 352 l 1,34,-1
 277 384 l 1,35,-1
 213 384 l 1,36,-1
 213 352 l 1,37,-1
 181 352 l 1,38,-1
 181 320 l 1,39,-1
 149 320 l 1,40,-1
 149 0 l 1,41,-1
 53 0 l 1,0,-1
EndSplineSet
Validated: 1
EndChar

StartChar: n
Encoding: 110 110 81
Width: 485
Flags: W
HStem: 0 21G<53 149 341 437> 352 96<181 213 309 341> 384 96<213 309>
VStem: 53 96<0 320 416 480> 341 96<0 352>
LayerCount: 2
Fore
SplineSet
53 0 m 1,0,-1
 53 480 l 1,1,-1
 149 480 l 1,2,-1
 149 416 l 1,3,-1
 181 416 l 1,4,-1
 181 448 l 1,5,-1
 213 448 l 1,6,-1
 213 480 l 1,7,-1
 309 480 l 1,8,-1
 309 448 l 1,9,-1
 373 448 l 1,10,-1
 373 416 l 1,11,-1
 405 416 l 1,12,-1
 405 352 l 1,13,-1
 437 352 l 1,14,-1
 437 0 l 1,15,-1
 341 0 l 1,16,-1
 341 352 l 1,17,-1
 309 352 l 1,18,-1
 309 384 l 1,19,-1
 213 384 l 1,20,-1
 213 352 l 1,21,-1
 181 352 l 1,22,-1
 181 320 l 1,23,-1
 149 320 l 1,24,-1
 149 0 l 1,25,-1
 53 0 l 1,0,-1
EndSplineSet
Validated: 1
EndChar

StartChar: o
Encoding: 111 111 82
Width: 467
Flags: W
LayerCount: 2
Fore
SplineSet
298 96 m 1,0,-1
 298 128 l 1,1,-1
 330 128 l 1,2,-1
 330 352 l 1,3,-1
 298 352 l 1,4,-1
 298 384 l 1,5,-1
 170 384 l 1,6,-1
 170 352 l 1,7,-1
 138 352 l 1,8,-1
 138 128 l 1,9,-1
 170 128 l 1,10,-1
 170 96 l 1,11,-1
 298 96 l 1,0,-1
170 0 m 1,12,-1
 170 32 l 1,13,-1
 106 32 l 1,14,-1
 106 64 l 1,15,-1
 74 64 l 1,16,-1
 74 128 l 1,17,-1
 42 128 l 1,18,-1
 42 352 l 1,19,-1
 74 352 l 1,20,-1
 74 416 l 1,21,-1
 106 416 l 1,22,-1
 106 448 l 1,23,-1
 170 448 l 1,24,-1
 170 480 l 1,25,-1
 298 480 l 1,26,-1
 298 448 l 1,27,-1
 362 448 l 1,28,-1
 362 416 l 1,29,-1
 394 416 l 1,30,-1
 394 352 l 1,31,-1
 426 352 l 1,32,-1
 426 128 l 1,33,-1
 394 128 l 1,34,-1
 394 64 l 1,35,-1
 362 64 l 1,36,-1
 362 32 l 1,37,-1
 298 32 l 1,38,-1
 298 0 l 1,39,-1
 170 0 l 1,12,-1
EndSplineSet
Validated: 1
EndChar

StartChar: p
Encoding: 112 112 83
Width: 510
Flags: W
LayerCount: 2
Fore
SplineSet
341 96 m 1,0,-1
 341 128 l 1,1,-1
 373 128 l 1,2,-1
 373 352 l 1,3,-1
 341 352 l 1,4,-1
 341 384 l 1,5,-1
 213 384 l 1,6,-1
 213 352 l 1,7,-1
 181 352 l 1,8,-1
 181 320 l 1,9,-1
 149 320 l 1,10,-1
 149 160 l 1,11,-1
 181 160 l 1,12,-1
 181 128 l 1,13,-1
 213 128 l 1,14,-1
 213 96 l 1,15,-1
 341 96 l 1,0,-1
53 -192 m 1,16,-1
 53 480 l 1,17,-1
 149 480 l 1,18,-1
 149 416 l 1,19,-1
 181 416 l 1,20,-1
 181 448 l 1,21,-1
 213 448 l 1,22,-1
 213 480 l 1,23,-1
 341 480 l 1,24,-1
 341 448 l 1,25,-1
 405 448 l 1,26,-1
 405 416 l 1,27,-1
 437 416 l 1,28,-1
 437 352 l 1,29,-1
 469 352 l 1,30,-1
 469 128 l 1,31,-1
 437 128 l 1,32,-1
 437 64 l 1,33,-1
 405 64 l 1,34,-1
 405 32 l 1,35,-1
 341 32 l 1,36,-1
 341 0 l 1,37,-1
 213 0 l 1,38,-1
 213 32 l 1,39,-1
 181 32 l 1,40,-1
 181 64 l 1,41,-1
 149 64 l 1,42,-1
 149 -192 l 1,43,-1
 53 -192 l 1,16,-1
EndSplineSet
Validated: 1
EndChar

StartChar: q
Encoding: 113 113 84
Width: 515
Flags: W
LayerCount: 2
Fore
SplineSet
298 96 m 1,0,-1
 298 128 l 1,1,-1
 330 128 l 1,2,-1
 330 160 l 1,3,-1
 362 160 l 1,4,-1
 362 320 l 1,5,-1
 330 320 l 1,6,-1
 330 352 l 1,7,-1
 298 352 l 1,8,-1
 298 384 l 1,9,-1
 170 384 l 1,10,-1
 170 352 l 1,11,-1
 138 352 l 1,12,-1
 138 128 l 1,13,-1
 170 128 l 1,14,-1
 170 96 l 1,15,-1
 298 96 l 1,0,-1
362 -192 m 1,16,-1
 362 64 l 1,17,-1
 330 64 l 1,18,-1
 330 32 l 1,19,-1
 298 32 l 1,20,-1
 298 0 l 1,21,-1
 170 0 l 1,22,-1
 170 32 l 1,23,-1
 106 32 l 1,24,-1
 106 64 l 1,25,-1
 74 64 l 1,26,-1
 74 128 l 1,27,-1
 42 128 l 1,28,-1
 42 352 l 1,29,-1
 74 352 l 1,30,-1
 74 416 l 1,31,-1
 106 416 l 1,32,-1
 106 448 l 1,33,-1
 170 448 l 1,34,-1
 170 480 l 1,35,-1
 298 480 l 1,36,-1
 298 448 l 1,37,-1
 330 448 l 1,38,-1
 330 416 l 1,39,-1
 362 416 l 1,40,-1
 362 480 l 1,41,-1
 458 480 l 1,42,-1
 458 -192 l 1,43,-1
 362 -192 l 1,16,-1
EndSplineSet
Validated: 1
EndChar

StartChar: r
Encoding: 114 114 85
Width: 434
Flags: W
LayerCount: 2
Fore
SplineSet
53 0 m 1,0,-1
 53 480 l 1,1,-1
 149 480 l 1,2,-1
 149 416 l 1,3,-1
 181 416 l 1,4,-1
 181 448 l 1,5,-1
 213 448 l 1,6,-1
 213 480 l 1,7,-1
 341 480 l 1,8,-1
 341 448 l 1,9,-1
 373 448 l 1,10,-1
 373 416 l 1,11,-1
 405 416 l 1,12,-1
 405 352 l 1,13,-1
 373 352 l 1,14,-1
 373 320 l 1,15,-1
 341 320 l 1,16,-1
 341 352 l 1,17,-1
 309 352 l 1,18,-1
 309 384 l 1,19,-1
 213 384 l 1,20,-1
 213 352 l 1,21,-1
 181 352 l 1,22,-1
 181 320 l 1,23,-1
 149 320 l 1,24,-1
 149 0 l 1,25,-1
 53 0 l 1,0,-1
EndSplineSet
Validated: 1
EndChar

StartChar: s
Encoding: 115 115 86
Width: 411
Flags: W
LayerCount: 2
Fore
SplineSet
112 0 m 1,0,-1
 112 32 l 1,1,-1
 80 32 l 1,2,-1
 80 64 l 1,3,-1
 48 64 l 1,4,-1
 48 128 l 1,5,-1
 80 128 l 1,6,-1
 80 160 l 1,7,-1
 112 160 l 1,8,-1
 112 128 l 1,9,-1
 144 128 l 1,10,-1
 144 96 l 1,11,-1
 176 96 l 1,12,-1
 176 64 l 1,13,-1
 240 64 l 1,14,-1
 240 96 l 1,15,-1
 272 96 l 1,16,-1
 272 160 l 1,17,-1
 240 160 l 1,18,-1
 240 192 l 1,19,-1
 208 192 l 1,20,-1
 208 224 l 1,21,-1
 144 224 l 1,22,-1
 144 256 l 1,23,-1
 112 256 l 1,24,-1
 112 288 l 1,25,-1
 80 288 l 1,26,-1
 80 320 l 1,27,-1
 48 320 l 1,28,-1
 48 416 l 1,29,-1
 80 416 l 1,30,-1
 80 448 l 1,31,-1
 112 448 l 1,32,-1
 112 480 l 1,33,-1
 304 480 l 1,34,-1
 304 448 l 1,35,-1
 336 448 l 1,36,-1
 336 352 l 1,37,-1
 272 352 l 1,38,-1
 272 384 l 1,39,-1
 240 384 l 1,40,-1
 240 416 l 1,41,-1
 176 416 l 1,42,-1
 176 384 l 1,43,-1
 144 384 l 1,44,-1
 144 352 l 1,45,-1
 176 352 l 1,46,-1
 176 320 l 1,47,-1
 208 320 l 1,48,-1
 208 288 l 1,49,-1
 272 288 l 1,50,-1
 272 256 l 1,51,-1
 304 256 l 1,52,-1
 304 224 l 1,53,-1
 336 224 l 1,54,-1
 336 192 l 1,55,-1
 368 192 l 1,56,-1
 368 64 l 1,57,-1
 336 64 l 1,58,-1
 336 32 l 1,59,-1
 304 32 l 1,60,-1
 304 0 l 1,61,-1
 112 0 l 1,0,-1
EndSplineSet
Validated: 1
EndChar

StartChar: t
Encoding: 116 116 87
Width: 361
Flags: W
LayerCount: 2
Fore
SplineSet
104 0 m 1,0,-1
 104 384 l 1,1,-1
 40 384 l 1,2,-1
 40 480 l 1,3,-1
 104 480 l 1,4,-1
 104 608 l 1,5,-1
 200 608 l 1,6,-1
 200 480 l 1,7,-1
 328 480 l 1,8,-1
 328 384 l 1,9,-1
 200 384 l 1,10,-1
 200 0 l 1,11,-1
 104 0 l 1,0,-1
EndSplineSet
Validated: 1
EndChar

StartChar: u
Encoding: 117 117 88
Width: 487
Flags: W
LayerCount: 2
Fore
SplineSet
116 0 m 1,0,-1
 116 32 l 1,1,-1
 84 32 l 1,2,-1
 84 64 l 1,3,-1
 52 64 l 1,4,-1
 52 480 l 1,5,-1
 148 480 l 1,6,-1
 148 128 l 1,7,-1
 180 128 l 1,8,-1
 180 96 l 1,9,-1
 276 96 l 1,10,-1
 276 128 l 1,11,-1
 308 128 l 1,12,-1
 308 160 l 1,13,-1
 340 160 l 1,14,-1
 340 480 l 1,15,-1
 436 480 l 1,16,-1
 436 0 l 1,17,-1
 340 0 l 1,18,-1
 340 64 l 1,19,-1
 308 64 l 1,20,-1
 308 32 l 1,21,-1
 276 32 l 1,22,-1
 276 0 l 1,23,-1
 116 0 l 1,0,-1
EndSplineSet
Validated: 1
EndChar

StartChar: v
Encoding: 118 118 89
Width: 492
Flags: W
LayerCount: 2
Fore
SplineSet
166 0 m 1,0,-1
 166 64 l 1,1,-1
 134 64 l 1,2,-1
 134 160 l 1,3,-1
 102 160 l 1,4,-1
 102 288 l 1,5,-1
 70 288 l 1,6,-1
 70 384 l 1,7,-1
 38 384 l 1,8,-1
 38 480 l 1,9,-1
 134 480 l 1,10,-1
 134 416 l 1,11,-1
 166 416 l 1,12,-1
 166 288 l 1,13,-1
 198 288 l 1,14,-1
 198 192 l 1,15,-1
 230 192 l 1,16,-1
 230 96 l 1,17,-1
 262 96 l 1,18,-1
 262 192 l 1,19,-1
 294 192 l 1,20,-1
 294 288 l 1,21,-1
 326 288 l 1,22,-1
 326 416 l 1,23,-1
 358 416 l 1,24,-1
 358 480 l 1,25,-1
 454 480 l 1,26,-1
 454 384 l 1,27,-1
 422 384 l 1,28,-1
 422 288 l 1,29,-1
 390 288 l 1,30,-1
 390 160 l 1,31,-1
 358 160 l 1,32,-1
 358 64 l 1,33,-1
 326 64 l 1,34,-1
 326 0 l 1,35,-1
 166 0 l 1,0,-1
EndSplineSet
Validated: 1
EndChar

StartChar: w
Encoding: 119 119 90
Width: 684
Flags: W
LayerCount: 2
Fore
SplineSet
390 288 m 1,0,-1
 390 192 l 1,1,-1
 422 192 l 1,2,-1
 422 96 l 1,3,-1
 454 96 l 1,4,-1
 454 192 l 1,5,-1
 486 192 l 1,6,-1
 486 288 l 1,7,-1
 518 288 l 1,8,-1
 518 384 l 1,9,-1
 550 384 l 1,10,-1
 550 480 l 1,11,-1
 646 480 l 1,12,-1
 646 384 l 1,13,-1
 614 384 l 1,14,-1
 614 288 l 1,15,-1
 582 288 l 1,16,-1
 582 160 l 1,17,-1
 550 160 l 1,18,-1
 550 64 l 1,19,-1
 518 64 l 1,20,-1
 518 0 l 1,21,-1
 390 0 l 1,22,-1
 390 64 l 1,23,-1
 358 64 l 1,24,-1
 358 160 l 1,25,-1
 326 160 l 1,26,-1
 326 64 l 1,27,-1
 294 64 l 1,28,-1
 294 0 l 1,29,-1
 166 0 l 1,30,-1
 166 64 l 1,31,-1
 134 64 l 1,32,-1
 134 160 l 1,33,-1
 102 160 l 1,34,-1
 102 288 l 1,35,-1
 70 288 l 1,36,-1
 70 384 l 1,37,-1
 38 384 l 1,38,-1
 38 480 l 1,39,-1
 134 480 l 1,40,-1
 134 384 l 1,41,-1
 166 384 l 1,42,-1
 166 288 l 1,43,-1
 198 288 l 1,44,-1
 198 192 l 1,45,-1
 230 192 l 1,46,-1
 230 96 l 1,47,-1
 262 96 l 1,48,-1
 262 192 l 1,49,-1
 294 192 l 1,50,-1
 294 288 l 1,51,-1
 326 288 l 1,52,-1
 326 352 l 1,53,-1
 358 352 l 1,54,-1
 358 288 l 5,55,-1
 390 288 l 1,0,-1
EndSplineSet
Validated: 1
EndChar

StartChar: x
Encoding: 120 120 91
Width: 485
Flags: W
LayerCount: 2
Fore
SplineSet
51 0 m 1,0,-1
 51 96 l 1,1,-1
 83 96 l 1,2,-1
 83 128 l 1,3,-1
 115 128 l 1,4,-1
 115 160 l 1,5,-1
 147 160 l 1,6,-1
 147 192 l 1,7,-1
 179 192 l 1,8,-1
 179 224 l 1,9,-1
 211 224 l 1,10,-1
 211 256 l 1,11,-1
 179 256 l 1,12,-1
 179 288 l 1,13,-1
 147 288 l 1,14,-1
 147 320 l 1,15,-1
 115 320 l 1,16,-1
 115 352 l 1,17,-1
 83 352 l 1,18,-1
 83 384 l 1,19,-1
 51 384 l 1,20,-1
 51 480 l 1,21,-1
 115 480 l 1,22,-1
 115 448 l 1,23,-1
 147 448 l 1,24,-1
 147 416 l 1,25,-1
 179 416 l 1,26,-1
 179 384 l 1,27,-1
 211 384 l 1,28,-1
 211 320 l 1,29,-1
 275 320 l 1,30,-1
 275 384 l 1,31,-1
 307 384 l 1,32,-1
 307 416 l 1,33,-1
 339 416 l 1,34,-1
 339 448 l 1,35,-1
 371 448 l 1,36,-1
 371 480 l 1,37,-1
 435 480 l 1,38,-1
 435 384 l 1,39,-1
 403 384 l 1,40,-1
 403 352 l 1,41,-1
 371 352 l 1,42,-1
 371 320 l 1,43,-1
 339 320 l 1,44,-1
 339 288 l 1,45,-1
 307 288 l 1,46,-1
 307 256 l 1,47,-1
 275 256 l 1,48,-1
 275 224 l 1,49,-1
 307 224 l 1,50,-1
 307 192 l 1,51,-1
 339 192 l 1,52,-1
 339 160 l 1,53,-1
 371 160 l 1,54,-1
 371 128 l 1,55,-1
 403 128 l 1,56,-1
 403 96 l 1,57,-1
 435 96 l 1,58,-1
 435 0 l 1,59,-1
 371 0 l 1,60,-1
 371 32 l 1,61,-1
 339 32 l 1,62,-1
 339 64 l 1,63,-1
 307 64 l 1,64,-1
 307 96 l 1,65,-1
 275 96 l 1,66,-1
 275 160 l 1,67,-1
 211 160 l 1,68,-1
 211 96 l 1,69,-1
 179 96 l 1,70,-1
 179 64 l 1,71,-1
 147 64 l 1,72,-1
 147 32 l 1,73,-1
 115 32 l 1,74,-1
 115 0 l 1,75,-1
 51 0 l 1,0,-1
EndSplineSet
Validated: 1
EndChar

StartChar: y
Encoding: 121 121 92
Width: 460
Flags: W
LayerCount: 2
Fore
SplineSet
134 -192 m 1,0,-1
 134 -96 l 1,1,-1
 166 -96 l 1,2,-1
 166 0 l 1,3,-1
 198 0 l 1,4,-1
 198 64 l 1,5,-1
 166 64 l 1,6,-1
 166 128 l 1,7,-1
 134 128 l 1,8,-1
 134 192 l 1,9,-1
 102 192 l 1,10,-1
 102 288 l 1,11,-1
 70 288 l 1,12,-1
 70 384 l 1,13,-1
 38 384 l 1,14,-1
 38 480 l 1,15,-1
 134 480 l 1,16,-1
 134 384 l 1,17,-1
 166 384 l 1,18,-1
 166 288 l 1,19,-1
 198 288 l 1,20,-1
 198 192 l 1,21,-1
 230 192 l 1,22,-1
 230 160 l 1,23,-1
 262 160 l 1,24,-1
 262 288 l 1,25,-1
 294 288 l 1,26,-1
 294 384 l 1,27,-1
 326 384 l 1,28,-1
 326 480 l 1,29,-1
 422 480 l 1,30,-1
 422 384 l 1,31,-1
 390 384 l 1,32,-1
 390 288 l 1,33,-1
 358 288 l 1,34,-1
 358 192 l 1,35,-1
 326 192 l 1,36,-1
 326 96 l 1,37,-1
 294 96 l 1,38,-1
 294 0 l 1,39,-1
 262 0 l 1,40,-1
 262 -96 l 1,41,-1
 230 -96 l 1,42,-1
 230 -192 l 1,43,-1
 134 -192 l 1,0,-1
EndSplineSet
Validated: 1
EndChar

StartChar: z
Encoding: 122 122 93
Width: 516
Flags: W
LayerCount: 2
Fore
SplineSet
50 0 m 1,0,-1
 50 96 l 1,1,-1
 82 96 l 1,2,-1
 82 128 l 1,3,-1
 114 128 l 1,4,-1
 114 160 l 1,5,-1
 146 160 l 1,6,-1
 146 192 l 1,7,-1
 178 192 l 1,8,-1
 178 224 l 1,9,-1
 210 224 l 1,10,-1
 210 256 l 1,11,-1
 242 256 l 1,12,-1
 242 288 l 1,13,-1
 274 288 l 1,14,-1
 274 320 l 1,15,-1
 306 320 l 1,16,-1
 306 352 l 1,17,-1
 338 352 l 1,18,-1
 338 384 l 1,19,-1
 50 384 l 1,20,-1
 50 480 l 1,21,-1
 466 480 l 1,22,-1
 466 384 l 1,23,-1
 434 384 l 1,24,-1
 434 352 l 1,25,-1
 402 352 l 1,26,-1
 402 320 l 1,27,-1
 370 320 l 1,28,-1
 370 288 l 1,29,-1
 338 288 l 1,30,-1
 338 256 l 1,31,-1
 306 256 l 1,32,-1
 306 224 l 1,33,-1
 274 224 l 1,34,-1
 274 192 l 1,35,-1
 242 192 l 1,36,-1
 242 160 l 1,37,-1
 210 160 l 1,38,-1
 210 128 l 1,39,-1
 178 128 l 1,40,-1
 178 96 l 1,41,-1
 466 96 l 1,42,-1
 466 0 l 1,43,-1
 50 0 l 1,0,-1
EndSplineSet
Validated: 1
EndChar

StartChar: braceleft
Encoding: 123 123 94
Width: 357
Flags: W
LayerCount: 2
Fore
SplineSet
164 -96 m 1,0,-1
 164 -64 l 1,1,-1
 132 -64 l 1,2,-1
 132 -32 l 1,3,-1
 100 -32 l 1,4,-1
 100 288 l 1,5,-1
 68 288 l 1,6,-1
 68 320 l 1,7,-1
 36 320 l 1,8,-1
 36 352 l 1,9,-1
 68 352 l 1,10,-1
 68 384 l 1,11,-1
 100 384 l 1,12,-1
 100 672 l 1,13,-1
 132 672 l 1,14,-1
 132 704 l 1,15,-1
 164 704 l 1,16,-1
 164 736 l 1,17,-1
 292 736 l 1,18,-1
 292 704 l 1,19,-1
 228 704 l 1,20,-1
 228 672 l 1,21,-1
 196 672 l 1,22,-1
 196 416 l 1,23,-1
 164 416 l 1,24,-1
 164 384 l 1,25,-1
 132 384 l 1,26,-1
 132 352 l 1,27,-1
 100 352 l 1,28,-1
 100 320 l 1,29,-1
 132 320 l 1,30,-1
 132 288 l 1,31,-1
 164 288 l 1,32,-1
 164 256 l 1,33,-1
 196 256 l 1,34,-1
 196 -32 l 1,35,-1
 228 -32 l 1,36,-1
 228 -64 l 1,37,-1
 292 -64 l 1,38,-1
 292 -96 l 1,39,-1
 164 -96 l 1,0,-1
EndSplineSet
Validated: 1
EndChar

StartChar: bar
Encoding: 124 124 95
Width: 187
Flags: W
LayerCount: 2
Fore
SplineSet
58 -96 m 1,0,-1
 58 736 l 1,1,-1
 122 736 l 1,2,-1
 122 -96 l 1,3,-1
 58 -96 l 1,0,-1
EndSplineSet
Validated: 1
EndChar

StartChar: braceright
Encoding: 125 125 96
Width: 283
Flags: W
LayerCount: 2
Fore
SplineSet
-10 -96 m 1,0,-1
 -10 -64 l 1,1,-1
 54 -64 l 1,2,-1
 54 -32 l 1,3,-1
 86 -32 l 1,4,-1
 86 256 l 1,5,-1
 118 256 l 1,6,-1
 118 288 l 1,7,-1
 150 288 l 1,8,-1
 150 320 l 1,9,-1
 182 320 l 1,10,-1
 182 352 l 1,11,-1
 150 352 l 1,12,-1
 150 384 l 1,13,-1
 118 384 l 1,14,-1
 118 416 l 1,15,-1
 86 416 l 1,16,-1
 86 672 l 1,17,-1
 54 672 l 1,18,-1
 54 704 l 1,19,-1
 -10 704 l 1,20,-1
 -10 736 l 1,21,-1
 118 736 l 1,22,-1
 118 704 l 1,23,-1
 150 704 l 1,24,-1
 150 672 l 1,25,-1
 182 672 l 1,26,-1
 182 384 l 1,27,-1
 214 384 l 1,28,-1
 214 352 l 1,29,-1
 246 352 l 1,30,-1
 246 320 l 1,31,-1
 214 320 l 1,32,-1
 214 288 l 1,33,-1
 182 288 l 1,34,-1
 182 -32 l 1,35,-1
 150 -32 l 1,36,-1
 150 -64 l 1,37,-1
 118 -64 l 1,38,-1
 118 -96 l 1,39,-1
 -10 -96 l 1,0,-1
EndSplineSet
Validated: 1
EndChar

StartChar: asciitilde
Encoding: 126 126 97
Width: 457
Flags: W
LayerCount: 2
Fore
SplineSet
35 256 m 1,0,-1
 35 352 l 1,1,-1
 67 352 l 1,2,-1
 67 384 l 1,3,-1
 99 384 l 1,4,-1
 99 416 l 1,5,-1
 195 416 l 1,6,-1
 195 384 l 1,7,-1
 259 384 l 1,8,-1
 259 352 l 1,9,-1
 355 352 l 1,10,-1
 355 384 l 1,11,-1
 387 384 l 1,12,-1
 387 416 l 1,13,-1
 419 416 l 1,14,-1
 419 320 l 1,15,-1
 387 320 l 1,16,-1
 387 288 l 1,17,-1
 355 288 l 1,18,-1
 355 256 l 1,19,-1
 259 256 l 1,20,-1
 259 288 l 1,21,-1
 195 288 l 1,22,-1
 195 320 l 1,23,-1
 99 320 l 1,24,-1
 99 288 l 1,25,-1
 67 288 l 1,26,-1
 67 256 l 1,27,-1
 35 256 l 1,0,-1
EndSplineSet
Validated: 1
EndChar

StartChar: exclamdown
Encoding: 161 161 98
Width: 212
Flags: W
LayerCount: 2
Fore
SplineSet
57 0 m 1,0,-1
 57 448 l 1,1,-1
 153 448 l 1,2,-1
 153 0 l 1,3,-1
 57 0 l 1,0,-1
57 544 m 1,4,-1
 57 640 l 1,5,-1
 153 640 l 1,6,-1
 153 544 l 1,7,-1
 57 544 l 1,4,-1
EndSplineSet
Validated: 1
EndChar

StartChar: cent
Encoding: 162 162 99
Width: 467
Flags: W
LayerCount: 2
Fore
SplineSet
1 -32 m 1,0,-1
 1 0 l 1,1,-1
 33 0 l 1,2,-1
 33 32 l 1,3,-1
 65 32 l 1,4,-1
 65 320 l 1,5,-1
 97 320 l 1,6,-1
 97 352 l 1,7,-1
 129 352 l 1,8,-1
 129 384 l 1,9,-1
 161 384 l 1,10,-1
 161 416 l 1,11,-1
 321 416 l 1,12,-1
 321 448 l 1,13,-1
 353 448 l 1,14,-1
 353 480 l 1,15,-1
 417 480 l 1,16,-1
 417 448 l 1,17,-1
 385 448 l 1,18,-1
 385 416 l 1,19,-1
 353 416 l 1,20,-1
 353 384 l 1,21,-1
 385 384 l 1,22,-1
 385 352 l 1,23,-1
 417 352 l 1,24,-1
 417 288 l 1,25,-1
 353 288 l 1,26,-1
 353 320 l 1,27,-1
 321 320 l 1,28,-1
 321 352 l 1,29,-1
 193 352 l 1,30,-1
 193 320 l 1,31,-1
 161 320 l 1,32,-1
 161 288 l 1,33,-1
 129 288 l 1,34,-1
 129 128 l 1,35,-1
 161 128 l 1,36,-1
 161 96 l 1,37,-1
 193 96 l 1,38,-1
 193 64 l 1,39,-1
 321 64 l 1,40,-1
 321 96 l 1,41,-1
 353 96 l 1,42,-1
 353 128 l 1,43,-1
 417 128 l 1,44,-1
 417 64 l 1,45,-1
 385 64 l 1,46,-1
 385 32 l 1,47,-1
 353 32 l 1,48,-1
 353 0 l 1,49,-1
 161 0 l 1,50,-1
 161 32 l 1,51,-1
 97 32 l 1,52,-1
 97 0 l 1,53,-1
 65 0 l 1,54,-1
 65 -32 l 1,55,-1
 1 -32 l 1,0,-1
EndSplineSet
Validated: 1
EndChar

StartChar: sterling
Encoding: 163 163 100
Width: 604
Flags: W
LayerCount: 2
Fore
SplineSet
161 64 m 1,0,-1
 161 128 l 1,1,-1
 129 128 l 1,2,-1
 129 160 l 1,3,-1
 65 160 l 1,4,-1
 65 64 l 1,5,-1
 161 64 l 1,0,-1
65 0 m 1,6,-1
 65 32 l 1,7,-1
 33 32 l 1,8,-1
 33 192 l 1,9,-1
 65 192 l 1,10,-1
 65 224 l 1,11,-1
 161 224 l 1,12,-1
 161 192 l 1,13,-1
 193 192 l 1,14,-1
 193 320 l 1,15,-1
 65 320 l 1,16,-1
 65 384 l 1,17,-1
 193 384 l 1,18,-1
 193 576 l 1,19,-1
 225 576 l 1,20,-1
 225 608 l 1,21,-1
 257 608 l 1,22,-1
 257 640 l 1,23,-1
 481 640 l 1,24,-1
 481 608 l 1,25,-1
 513 608 l 1,26,-1
 513 576 l 1,27,-1
 545 576 l 1,28,-1
 545 512 l 1,29,-1
 449 512 l 1,30,-1
 449 544 l 1,31,-1
 417 544 l 1,32,-1
 417 576 l 1,33,-1
 321 576 l 1,34,-1
 321 544 l 1,35,-1
 289 544 l 1,36,-1
 289 384 l 1,37,-1
 481 384 l 1,38,-1
 481 320 l 1,39,-1
 289 320 l 1,40,-1
 289 128 l 1,41,-1
 321 128 l 1,42,-1
 321 96 l 1,43,-1
 353 96 l 1,44,-1
 353 64 l 1,45,-1
 417 64 l 1,46,-1
 417 96 l 1,47,-1
 449 96 l 1,48,-1
 449 128 l 1,49,-1
 481 128 l 1,50,-1
 481 160 l 1,51,-1
 545 160 l 1,52,-1
 545 64 l 1,53,-1
 513 64 l 1,54,-1
 513 32 l 1,55,-1
 481 32 l 1,56,-1
 481 0 l 1,57,-1
 289 0 l 1,58,-1
 289 32 l 1,59,-1
 257 32 l 1,60,-1
 257 64 l 1,61,-1
 225 64 l 1,62,-1
 225 32 l 1,63,-1
 193 32 l 1,64,-1
 193 0 l 1,65,-1
 65 0 l 1,6,-1
EndSplineSet
Validated: 1
EndChar

StartChar: currency
Encoding: 164 164 101
Width: 609
Flags: W
LayerCount: 2
Fore
SplineSet
401 96 m 1,0,-1
 401 128 l 1,1,-1
 433 128 l 1,2,-1
 433 160 l 1,3,-1
 465 160 l 1,4,-1
 465 352 l 1,5,-1
 433 352 l 1,6,-1
 433 384 l 1,7,-1
 401 384 l 1,8,-1
 401 416 l 1,9,-1
 209 416 l 1,10,-1
 209 384 l 1,11,-1
 177 384 l 1,12,-1
 177 352 l 1,13,-1
 145 352 l 1,14,-1
 145 160 l 1,15,-1
 177 160 l 1,16,-1
 177 128 l 1,17,-1
 209 128 l 1,18,-1
 209 96 l 1,19,-1
 401 96 l 1,0,-1
81 0 m 1,20,-1
 81 32 l 1,21,-1
 49 32 l 1,22,-1
 49 64 l 1,23,-1
 81 64 l 1,24,-1
 81 96 l 1,25,-1
 113 96 l 1,26,-1
 113 160 l 1,27,-1
 81 160 l 1,28,-1
 81 352 l 1,29,-1
 113 352 l 1,30,-1
 113 416 l 1,31,-1
 81 416 l 1,32,-1
 81 448 l 1,33,-1
 49 448 l 1,34,-1
 49 480 l 1,35,-1
 81 480 l 1,36,-1
 81 512 l 1,37,-1
 113 512 l 1,38,-1
 113 480 l 1,39,-1
 145 480 l 1,40,-1
 145 448 l 1,41,-1
 209 448 l 1,42,-1
 209 480 l 1,43,-1
 401 480 l 1,44,-1
 401 448 l 1,45,-1
 465 448 l 1,46,-1
 465 480 l 1,47,-1
 497 480 l 1,48,-1
 497 512 l 1,49,-1
 529 512 l 1,50,-1
 529 480 l 1,51,-1
 561 480 l 1,52,-1
 561 448 l 1,53,-1
 529 448 l 1,54,-1
 529 416 l 1,55,-1
 497 416 l 1,56,-1
 497 352 l 1,57,-1
 529 352 l 1,58,-1
 529 160 l 1,59,-1
 497 160 l 1,60,-1
 497 96 l 1,61,-1
 529 96 l 1,62,-1
 529 64 l 1,63,-1
 561 64 l 1,64,-1
 561 32 l 1,65,-1
 529 32 l 1,66,-1
 529 0 l 1,67,-1
 497 0 l 1,68,-1
 497 32 l 1,69,-1
 465 32 l 1,70,-1
 465 64 l 1,71,-1
 401 64 l 1,72,-1
 401 32 l 1,73,-1
 209 32 l 1,74,-1
 209 64 l 1,75,-1
 145 64 l 1,76,-1
 145 32 l 1,77,-1
 113 32 l 1,78,-1
 113 0 l 1,79,-1
 81 0 l 1,20,-1
EndSplineSet
Validated: 1
EndChar

StartChar: yen
Encoding: 165 165 102
Width: 647
Flags: W
LayerCount: 2
Fore
SplineSet
332 320 m 1,0,-1
 332 384 l 1,1,-1
 364 384 l 1,2,-1
 364 416 l 1,3,-1
 268 416 l 1,4,-1
 268 384 l 1,5,-1
 300 384 l 1,6,-1
 300 320 l 1,7,-1
 332 320 l 1,0,-1
268 0 m 1,8,-1
 268 224 l 1,9,-1
 44 224 l 1,10,-1
 44 288 l 1,11,-1
 204 288 l 1,12,-1
 204 352 l 1,13,-1
 172 352 l 1,14,-1
 172 416 l 1,15,-1
 44 416 l 1,16,-1
 44 480 l 1,17,-1
 108 480 l 1,18,-1
 108 544 l 1,19,-1
 76 544 l 1,20,-1
 76 608 l 1,21,-1
 44 608 l 1,22,-1
 44 640 l 1,23,-1
 172 640 l 1,24,-1
 172 576 l 1,25,-1
 204 576 l 1,26,-1
 204 512 l 1,27,-1
 236 512 l 1,28,-1
 236 480 l 1,29,-1
 396 480 l 1,30,-1
 396 512 l 1,31,-1
 428 512 l 1,32,-1
 428 576 l 1,33,-1
 460 576 l 1,34,-1
 460 640 l 1,35,-1
 588 640 l 1,36,-1
 588 608 l 1,37,-1
 556 608 l 1,38,-1
 556 544 l 1,39,-1
 524 544 l 1,40,-1
 524 480 l 1,41,-1
 588 480 l 1,42,-1
 588 416 l 1,43,-1
 460 416 l 1,44,-1
 460 352 l 1,45,-1
 428 352 l 1,46,-1
 428 288 l 1,47,-1
 588 288 l 1,48,-1
 588 224 l 1,49,-1
 364 224 l 1,50,-1
 364 0 l 1,51,-1
 268 0 l 1,8,-1
EndSplineSet
Validated: 1
EndChar

StartChar: brokenbar
Encoding: 166 166 103
Width: 187
Flags: W
LayerCount: 2
Fore
SplineSet
58 -64 m 1,0,-1
 58 704 l 1,1,-1
 122 704 l 1,2,-1
 122 -64 l 1,3,-1
 58 -64 l 1,0,-1
EndSplineSet
Validated: 1
EndChar

StartChar: section
Encoding: 167 167 104
Width: 410
Flags: W
LayerCount: 2
Fore
SplineSet
269 160 m 1,0,-1
 269 192 l 1,1,-1
 301 192 l 1,2,-1
 301 256 l 1,3,-1
 269 256 l 1,4,-1
 269 288 l 1,5,-1
 237 288 l 1,6,-1
 237 320 l 1,7,-1
 141 320 l 1,8,-1
 141 288 l 1,9,-1
 109 288 l 1,10,-1
 109 224 l 1,11,-1
 141 224 l 1,12,-1
 141 192 l 1,13,-1
 173 192 l 1,14,-1
 173 160 l 1,15,-1
 269 160 l 1,0,-1
141 -160 m 1,16,-1
 141 -128 l 1,17,-1
 109 -128 l 1,18,-1
 109 -64 l 1,19,-1
 77 -64 l 1,20,-1
 77 0 l 1,21,-1
 141 0 l 1,22,-1
 141 -64 l 1,23,-1
 173 -64 l 1,24,-1
 173 -96 l 1,25,-1
 237 -96 l 1,26,-1
 237 -64 l 1,27,-1
 269 -64 l 1,28,-1
 269 0 l 1,29,-1
 237 0 l 1,30,-1
 237 32 l 1,31,-1
 205 32 l 1,32,-1
 205 64 l 1,33,-1
 173 64 l 1,34,-1
 173 96 l 1,35,-1
 141 96 l 1,36,-1
 141 128 l 1,37,-1
 109 128 l 1,38,-1
 109 160 l 1,39,-1
 77 160 l 1,40,-1
 77 192 l 1,41,-1
 45 192 l 1,42,-1
 45 320 l 1,43,-1
 77 320 l 1,44,-1
 77 352 l 1,45,-1
 141 352 l 1,46,-1
 141 416 l 1,47,-1
 109 416 l 1,48,-1
 109 448 l 1,49,-1
 77 448 l 1,50,-1
 77 576 l 1,51,-1
 109 576 l 1,52,-1
 109 608 l 1,53,-1
 141 608 l 1,54,-1
 141 640 l 1,55,-1
 269 640 l 1,56,-1
 269 608 l 1,57,-1
 301 608 l 1,58,-1
 301 544 l 1,59,-1
 333 544 l 1,60,-1
 333 480 l 1,61,-1
 269 480 l 1,62,-1
 269 544 l 1,63,-1
 237 544 l 1,64,-1
 237 576 l 1,65,-1
 173 576 l 1,66,-1
 173 544 l 1,67,-1
 141 544 l 1,68,-1
 141 480 l 1,69,-1
 173 480 l 1,70,-1
 173 448 l 1,71,-1
 205 448 l 1,72,-1
 205 416 l 1,73,-1
 237 416 l 1,74,-1
 237 384 l 1,75,-1
 269 384 l 1,76,-1
 269 352 l 1,77,-1
 301 352 l 1,78,-1
 301 320 l 1,79,-1
 333 320 l 1,80,-1
 333 288 l 1,81,-1
 365 288 l 1,82,-1
 365 160 l 1,83,-1
 333 160 l 1,84,-1
 333 128 l 1,85,-1
 269 128 l 1,86,-1
 269 96 l 1,87,-1
 301 96 l 1,88,-1
 301 32 l 1,89,-1
 333 32 l 1,90,-1
 333 -96 l 1,91,-1
 301 -96 l 1,92,-1
 301 -128 l 1,93,-1
 269 -128 l 1,94,-1
 269 -160 l 1,95,-1
 141 -160 l 1,16,-1
EndSplineSet
Validated: 1
EndChar

StartChar: dieresis
Encoding: 168 168 105
Width: 386
Flags: W
LayerCount: 2
Fore
SplineSet
33 704 m 1,0,-1
 33 800 l 1,1,-1
 129 800 l 1,2,-1
 129 704 l 1,3,-1
 33 704 l 1,0,-1
225 704 m 1,4,-1
 225 800 l 1,5,-1
 321 800 l 1,6,-1
 321 704 l 1,7,-1
 225 704 l 1,4,-1
EndSplineSet
Validated: 1
EndChar

StartChar: copyright
Encoding: 169 169 106
Width: 730
Flags: W
LayerCount: 2
Fore
SplineSet
236 0 m 1,0,-1
 236 32 l 1,1,-1
 172 32 l 1,2,-1
 172 64 l 1,3,-1
 140 64 l 1,4,-1
 140 96 l 1,5,-1
 108 96 l 1,6,-1
 108 128 l 1,7,-1
 76 128 l 1,8,-1
 76 224 l 1,9,-1
 108 224 l 1,10,-1
 108 160 l 1,11,-1
 140 160 l 1,12,-1
 140 128 l 1,13,-1
 172 128 l 1,14,-1
 172 96 l 1,15,-1
 236 96 l 1,16,-1
 236 64 l 1,17,-1
 492 64 l 1,18,-1
 492 96 l 1,19,-1
 556 96 l 1,20,-1
 556 128 l 1,21,-1
 588 128 l 1,22,-1
 588 160 l 1,23,-1
 620 160 l 1,24,-1
 620 224 l 1,25,-1
 652 224 l 1,26,-1
 652 128 l 1,27,-1
 620 128 l 1,28,-1
 620 96 l 1,29,-1
 588 96 l 1,30,-1
 588 64 l 1,31,-1
 556 64 l 1,32,-1
 556 32 l 1,33,-1
 492 32 l 1,34,-1
 492 0 l 1,35,-1
 236 0 l 1,0,-1
44 224 m 1,36,-1
 44 448 l 1,37,-1
 76 448 l 1,38,-1
 76 224 l 1,39,-1
 44 224 l 1,36,-1
652 224 m 1,40,-1
 652 448 l 1,41,-1
 684 448 l 1,42,-1
 684 224 l 1,43,-1
 652 224 l 1,40,-1
268 128 m 1,44,-1
 268 160 l 1,45,-1
 236 160 l 1,46,-1
 236 192 l 1,47,-1
 204 192 l 1,48,-1
 204 224 l 1,49,-1
 172 224 l 1,50,-1
 172 448 l 1,51,-1
 204 448 l 1,52,-1
 204 480 l 1,53,-1
 236 480 l 1,54,-1
 236 512 l 1,55,-1
 268 512 l 1,56,-1
 268 544 l 1,57,-1
 460 544 l 1,58,-1
 460 512 l 1,59,-1
 492 512 l 1,60,-1
 492 480 l 1,61,-1
 524 480 l 1,62,-1
 524 416 l 1,63,-1
 460 416 l 1,64,-1
 460 448 l 1,65,-1
 428 448 l 1,66,-1
 428 480 l 1,67,-1
 300 480 l 1,68,-1
 300 448 l 1,69,-1
 268 448 l 1,70,-1
 268 416 l 1,71,-1
 236 416 l 1,72,-1
 236 256 l 1,73,-1
 268 256 l 1,74,-1
 268 224 l 1,75,-1
 300 224 l 1,76,-1
 300 192 l 1,77,-1
 428 192 l 1,78,-1
 428 224 l 1,79,-1
 460 224 l 1,80,-1
 460 256 l 1,81,-1
 524 256 l 1,82,-1
 524 192 l 1,83,-1
 492 192 l 1,84,-1
 492 160 l 1,85,-1
 460 160 l 1,86,-1
 460 128 l 1,87,-1
 268 128 l 1,44,-1
76 448 m 1,88,-1
 76 544 l 1,89,-1
 108 544 l 1,90,-1
 108 576 l 1,91,-1
 140 576 l 1,92,-1
 140 608 l 1,93,-1
 172 608 l 1,94,-1
 172 640 l 1,95,-1
 236 640 l 1,96,-1
 236 672 l 1,97,-1
 492 672 l 1,98,-1
 492 640 l 1,99,-1
 556 640 l 1,100,-1
 556 608 l 1,101,-1
 588 608 l 1,102,-1
 588 576 l 1,103,-1
 620 576 l 1,104,-1
 620 544 l 1,105,-1
 652 544 l 1,106,-1
 652 448 l 1,107,-1
 620 448 l 1,108,-1
 620 512 l 1,109,-1
 588 512 l 1,110,-1
 588 544 l 1,111,-1
 556 544 l 1,112,-1
 556 576 l 1,113,-1
 492 576 l 1,114,-1
 492 608 l 1,115,-1
 236 608 l 1,116,-1
 236 576 l 1,117,-1
 172 576 l 1,118,-1
 172 544 l 1,119,-1
 140 544 l 1,120,-1
 140 512 l 1,121,-1
 108 512 l 1,122,-1
 108 448 l 1,123,-1
 76 448 l 1,88,-1
EndSplineSet
Validated: 5
EndChar

StartChar: ordfeminine
Encoding: 170 170 107
Width: 367
Flags: W
LayerCount: 2
Fore
SplineSet
52 128 m 1,0,-1
 52 192 l 1,1,-1
 308 192 l 1,2,-1
 308 128 l 1,3,-1
 52 128 l 1,0,-1
212 288 m 1,4,-1
 212 320 l 1,5,-1
 244 320 l 1,6,-1
 244 384 l 1,7,-1
 148 384 l 1,8,-1
 148 352 l 1,9,-1
 116 352 l 1,10,-1
 116 320 l 1,11,-1
 148 320 l 1,12,-1
 148 288 l 1,13,-1
 212 288 l 1,4,-1
116 224 m 1,14,-1
 116 256 l 1,15,-1
 84 256 l 1,16,-1
 84 288 l 1,17,-1
 52 288 l 1,18,-1
 52 384 l 1,19,-1
 84 384 l 1,20,-1
 84 416 l 1,21,-1
 116 416 l 1,22,-1
 116 448 l 1,23,-1
 244 448 l 1,24,-1
 244 512 l 1,25,-1
 116 512 l 1,26,-1
 116 480 l 1,27,-1
 52 480 l 1,28,-1
 52 512 l 1,29,-1
 84 512 l 1,30,-1
 84 544 l 1,31,-1
 116 544 l 1,32,-1
 116 576 l 1,33,-1
 244 576 l 1,34,-1
 244 544 l 1,35,-1
 276 544 l 1,36,-1
 276 512 l 1,37,-1
 308 512 l 1,38,-1
 308 224 l 1,39,-1
 244 224 l 1,40,-1
 244 256 l 1,41,-1
 212 256 l 1,42,-1
 212 224 l 1,43,-1
 116 224 l 1,14,-1
EndSplineSet
Validated: 1
EndChar

StartChar: guillemotleft
Encoding: 171 171 108
Width: 558
Flags: W
LayerCount: 2
Fore
SplineSet
243 64 m 1,0,-1
 243 96 l 1,1,-1
 211 96 l 1,2,-1
 211 128 l 1,3,-1
 179 128 l 1,4,-1
 179 160 l 1,5,-1
 147 160 l 1,6,-1
 147 192 l 1,7,-1
 115 192 l 1,8,-1
 115 224 l 1,9,-1
 83 224 l 1,10,-1
 83 256 l 1,11,-1
 51 256 l 1,12,-1
 51 288 l 1,13,-1
 19 288 l 1,14,-1
 19 320 l 1,15,-1
 51 320 l 1,16,-1
 51 352 l 1,17,-1
 83 352 l 1,18,-1
 83 384 l 1,19,-1
 115 384 l 1,20,-1
 115 416 l 1,21,-1
 147 416 l 1,22,-1
 147 448 l 1,23,-1
 179 448 l 1,24,-1
 179 480 l 1,25,-1
 211 480 l 1,26,-1
 211 512 l 1,27,-1
 243 512 l 1,28,-1
 243 544 l 1,29,-1
 275 544 l 1,30,-1
 275 512 l 1,31,-1
 307 512 l 1,32,-1
 307 480 l 1,33,-1
 275 480 l 1,34,-1
 275 448 l 1,35,-1
 243 448 l 1,36,-1
 243 416 l 1,37,-1
 211 416 l 1,38,-1
 211 384 l 1,39,-1
 179 384 l 1,40,-1
 179 352 l 1,41,-1
 147 352 l 1,42,-1
 147 320 l 1,43,-1
 115 320 l 1,44,-1
 115 288 l 1,45,-1
 147 288 l 1,46,-1
 147 256 l 1,47,-1
 179 256 l 1,48,-1
 179 224 l 1,49,-1
 211 224 l 1,50,-1
 211 192 l 1,51,-1
 243 192 l 1,52,-1
 243 160 l 1,53,-1
 275 160 l 1,54,-1
 275 128 l 1,55,-1
 307 128 l 1,56,-1
 307 96 l 1,57,-1
 275 96 l 1,58,-1
 275 64 l 1,59,-1
 243 64 l 1,0,-1
435 64 m 1,60,-1
 435 96 l 1,61,-1
 403 96 l 1,62,-1
 403 128 l 1,63,-1
 371 128 l 1,64,-1
 371 160 l 1,65,-1
 339 160 l 1,66,-1
 339 192 l 1,67,-1
 307 192 l 1,68,-1
 307 224 l 1,69,-1
 275 224 l 1,70,-1
 275 256 l 1,71,-1
 243 256 l 1,72,-1
 243 288 l 1,73,-1
 211 288 l 1,74,-1
 211 320 l 1,75,-1
 243 320 l 1,76,-1
 243 352 l 1,77,-1
 275 352 l 1,78,-1
 275 384 l 1,79,-1
 307 384 l 1,80,-1
 307 416 l 1,81,-1
 339 416 l 1,82,-1
 339 448 l 1,83,-1
 371 448 l 1,84,-1
 371 480 l 1,85,-1
 403 480 l 1,86,-1
 403 512 l 1,87,-1
 435 512 l 1,88,-1
 435 544 l 1,89,-1
 467 544 l 1,90,-1
 467 512 l 1,91,-1
 499 512 l 1,92,-1
 499 480 l 1,93,-1
 467 480 l 1,94,-1
 467 448 l 1,95,-1
 435 448 l 1,96,-1
 435 416 l 1,97,-1
 403 416 l 1,98,-1
 403 384 l 1,99,-1
 371 384 l 1,100,-1
 371 352 l 1,101,-1
 339 352 l 1,102,-1
 339 320 l 1,103,-1
 307 320 l 1,104,-1
 307 288 l 1,105,-1
 339 288 l 1,106,-1
 339 256 l 1,107,-1
 371 256 l 1,108,-1
 371 224 l 1,109,-1
 403 224 l 1,110,-1
 403 192 l 1,111,-1
 435 192 l 1,112,-1
 435 160 l 1,113,-1
 467 160 l 1,114,-1
 467 128 l 1,115,-1
 499 128 l 1,116,-1
 499 96 l 1,117,-1
 467 96 l 1,118,-1
 467 64 l 1,119,-1
 435 64 l 1,60,-1
EndSplineSet
Validated: 1
EndChar

StartChar: logicalnot
Encoding: 172 172 109
Width: 761
Flags: W
LayerCount: 2
Fore
SplineSet
649 0 m 1,0,-1
 649 288 l 1,1,-1
 9 288 l 1,2,-1
 9 352 l 1,3,-1
 713 352 l 1,4,-1
 713 0 l 1,5,-1
 649 0 l 1,0,-1
EndSplineSet
Validated: 1
EndChar

StartChar: registered
Encoding: 174 174 110
Width: 730
Flags: W
LayerCount: 2
Fore
SplineSet
236 0 m 1,0,-1
 236 32 l 1,1,-1
 172 32 l 1,2,-1
 172 64 l 1,3,-1
 140 64 l 1,4,-1
 140 96 l 1,5,-1
 108 96 l 1,6,-1
 108 128 l 1,7,-1
 76 128 l 1,8,-1
 76 224 l 1,9,-1
 108 224 l 1,10,-1
 108 160 l 1,11,-1
 140 160 l 1,12,-1
 140 128 l 1,13,-1
 172 128 l 1,14,-1
 172 96 l 1,15,-1
 236 96 l 1,16,-1
 236 64 l 1,17,-1
 492 64 l 1,18,-1
 492 96 l 1,19,-1
 556 96 l 1,20,-1
 556 128 l 1,21,-1
 588 128 l 1,22,-1
 588 160 l 1,23,-1
 620 160 l 1,24,-1
 620 224 l 1,25,-1
 652 224 l 1,26,-1
 652 128 l 1,27,-1
 620 128 l 1,28,-1
 620 96 l 1,29,-1
 588 96 l 1,30,-1
 588 64 l 1,31,-1
 556 64 l 1,32,-1
 556 32 l 1,33,-1
 492 32 l 1,34,-1
 492 0 l 1,35,-1
 236 0 l 1,0,-1
44 224 m 1,36,-1
 44 448 l 1,37,-1
 76 448 l 1,38,-1
 76 224 l 1,39,-1
 44 224 l 1,36,-1
460 352 m 1,40,-1
 460 448 l 1,41,-1
 300 448 l 1,42,-1
 300 352 l 1,43,-1
 460 352 l 1,40,-1
652 224 m 1,44,-1
 652 448 l 1,45,-1
 684 448 l 1,46,-1
 684 224 l 1,47,-1
 652 224 l 1,44,-1
236 160 m 1,48,-1
 236 512 l 1,49,-1
 460 512 l 1,50,-1
 460 480 l 1,51,-1
 492 480 l 1,52,-1
 492 448 l 1,53,-1
 524 448 l 1,54,-1
 524 352 l 1,55,-1
 492 352 l 1,56,-1
 492 320 l 1,57,-1
 396 320 l 1,58,-1
 396 288 l 1,59,-1
 428 288 l 1,60,-1
 428 256 l 1,61,-1
 460 256 l 1,62,-1
 460 224 l 1,63,-1
 492 224 l 1,64,-1
 492 192 l 1,65,-1
 524 192 l 1,66,-1
 524 160 l 1,67,-1
 428 160 l 1,68,-1
 428 192 l 1,69,-1
 396 192 l 1,70,-1
 396 224 l 1,71,-1
 364 224 l 1,72,-1
 364 256 l 1,73,-1
 332 256 l 1,74,-1
 332 288 l 1,75,-1
 300 288 l 1,76,-1
 300 160 l 1,77,-1
 236 160 l 1,48,-1
76 448 m 1,78,-1
 76 544 l 1,79,-1
 108 544 l 1,80,-1
 108 576 l 1,81,-1
 140 576 l 1,82,-1
 140 608 l 1,83,-1
 172 608 l 1,84,-1
 172 640 l 1,85,-1
 236 640 l 1,86,-1
 236 672 l 1,87,-1
 492 672 l 1,88,-1
 492 640 l 1,89,-1
 556 640 l 1,90,-1
 556 608 l 1,91,-1
 588 608 l 1,92,-1
 588 576 l 1,93,-1
 620 576 l 1,94,-1
 620 544 l 1,95,-1
 652 544 l 1,96,-1
 652 448 l 1,97,-1
 620 448 l 1,98,-1
 620 512 l 1,99,-1
 588 512 l 1,100,-1
 588 544 l 1,101,-1
 556 544 l 1,102,-1
 556 576 l 1,103,-1
 492 576 l 1,104,-1
 492 608 l 1,105,-1
 236 608 l 1,106,-1
 236 576 l 1,107,-1
 172 576 l 1,108,-1
 172 544 l 1,109,-1
 140 544 l 1,110,-1
 140 512 l 1,111,-1
 108 512 l 1,112,-1
 108 448 l 1,113,-1
 76 448 l 1,78,-1
EndSplineSet
Validated: 5
EndChar

StartChar: macron
Encoding: 175 175 111
Width: 496
Flags: W
LayerCount: 2
Fore
SplineSet
15 608 m 1,0,-1
 15 672 l 1,1,-1
 431 672 l 1,2,-1
 431 608 l 1,3,-1
 15 608 l 1,0,-1
EndSplineSet
Validated: 1
EndChar

StartChar: degree
Encoding: 176 176 112
Width: 267
Flags: W
LayerCount: 2
Fore
SplineSet
144 544 m 1,0,-1
 144 608 l 1,1,-1
 80 608 l 1,2,-1
 80 544 l 1,3,-1
 144 544 l 1,0,-1
80 480 m 1,4,-1
 80 512 l 1,5,-1
 48 512 l 1,6,-1
 48 544 l 1,7,-1
 16 544 l 1,8,-1
 16 608 l 1,9,-1
 48 608 l 1,10,-1
 48 640 l 1,11,-1
 80 640 l 1,12,-1
 80 672 l 1,13,-1
 144 672 l 1,14,-1
 144 640 l 1,15,-1
 176 640 l 1,16,-1
 176 608 l 1,17,-1
 208 608 l 1,18,-1
 208 544 l 1,19,-1
 176 544 l 1,20,-1
 176 512 l 1,21,-1
 144 512 l 1,22,-1
 144 480 l 1,23,-1
 80 480 l 1,4,-1
EndSplineSet
Validated: 1
EndChar

StartChar: plusminus
Encoding: 177 177 113
Width: 568
Flags: W
LayerCount: 2
Fore
SplineSet
40 0 m 1,0,-1
 40 96 l 1,1,-1
 520 96 l 1,2,-1
 520 0 l 1,3,-1
 40 0 l 1,0,-1
232 128 m 1,4,-1
 232 320 l 1,5,-1
 40 320 l 1,6,-1
 40 416 l 1,7,-1
 232 416 l 1,8,-1
 232 608 l 1,9,-1
 328 608 l 1,10,-1
 328 416 l 1,11,-1
 520 416 l 1,12,-1
 520 320 l 1,13,-1
 328 320 l 1,14,-1
 328 128 l 1,15,-1
 232 128 l 1,4,-1
EndSplineSet
Validated: 1
EndChar

StartChar: uni00B2
Encoding: 178 178 114
Width: 256
Flags: W
LayerCount: 2
Fore
SplineSet
37 448 m 1,0,-1
 37 512 l 1,1,-1
 69 512 l 1,2,-1
 69 544 l 1,3,-1
 101 544 l 1,4,-1
 101 576 l 1,5,-1
 133 576 l 1,6,-1
 133 640 l 1,7,-1
 69 640 l 1,8,-1
 69 608 l 1,9,-1
 37 608 l 1,10,-1
 37 672 l 1,11,-1
 165 672 l 1,12,-1
 165 640 l 1,13,-1
 197 640 l 1,14,-1
 197 576 l 1,15,-1
 165 576 l 1,16,-1
 165 544 l 1,17,-1
 133 544 l 1,18,-1
 133 512 l 1,19,-1
 101 512 l 1,20,-1
 101 480 l 1,21,-1
 165 480 l 1,22,-1
 165 512 l 1,23,-1
 197 512 l 1,24,-1
 197 448 l 1,25,-1
 37 448 l 1,0,-1
EndSplineSet
Validated: 1
EndChar

StartChar: uni00B3
Encoding: 179 179 115
Width: 252
Flags: W
LayerCount: 2
Fore
SplineSet
33 480 m 1,0,-1
 33 512 l 1,1,-1
 65 512 l 1,2,-1
 65 480 l 1,3,-1
 33 480 l 1,0,-1
33 608 m 1,4,-1
 33 640 l 1,5,-1
 65 640 l 1,6,-1
 65 608 l 1,7,-1
 33 608 l 1,4,-1
65 448 m 1,8,-1
 65 480 l 1,9,-1
 129 480 l 1,10,-1
 129 544 l 1,11,-1
 97 544 l 1,12,-1
 97 576 l 1,13,-1
 129 576 l 1,14,-1
 129 640 l 1,15,-1
 65 640 l 1,16,-1
 65 672 l 1,17,-1
 161 672 l 1,18,-1
 161 640 l 1,19,-1
 193 640 l 1,20,-1
 193 576 l 1,21,-1
 161 576 l 1,22,-1
 161 544 l 1,23,-1
 193 544 l 1,24,-1
 193 480 l 1,25,-1
 161 480 l 1,26,-1
 161 448 l 1,27,-1
 65 448 l 1,8,-1
EndSplineSet
Validated: 5
EndChar

StartChar: acute
Encoding: 180 180 116
Width: 242
Flags: W
LayerCount: 2
Fore
SplineSet
17 576 m 1,0,-1
 17 608 l 1,1,-1
 49 608 l 1,2,-1
 49 640 l 1,3,-1
 81 640 l 1,4,-1
 81 672 l 1,5,-1
 177 672 l 1,6,-1
 177 640 l 1,7,-1
 145 640 l 1,8,-1
 145 608 l 1,9,-1
 113 608 l 1,10,-1
 113 576 l 1,11,-1
 17 576 l 1,0,-1
EndSplineSet
Validated: 1
EndChar

StartChar: uni00B5
Encoding: 181 181 117
Width: 488
Flags: W
LayerCount: 2
Fore
SplineSet
53 -192 m 1,0,-1
 53 480 l 1,1,-1
 149 480 l 1,2,-1
 149 128 l 1,3,-1
 181 128 l 1,4,-1
 181 96 l 1,5,-1
 277 96 l 1,6,-1
 277 128 l 1,7,-1
 309 128 l 1,8,-1
 309 160 l 1,9,-1
 341 160 l 1,10,-1
 341 480 l 1,11,-1
 437 480 l 1,12,-1
 437 0 l 1,13,-1
 341 0 l 1,14,-1
 341 64 l 1,15,-1
 309 64 l 1,16,-1
 309 32 l 1,17,-1
 277 32 l 1,18,-1
 277 0 l 1,19,-1
 181 0 l 1,20,-1
 181 32 l 1,21,-1
 149 32 l 1,22,-1
 149 -192 l 1,23,-1
 53 -192 l 1,0,-1
EndSplineSet
Validated: 1
EndChar

StartChar: paragraph
Encoding: 182 182 118
Width: 518
Flags: W
LayerCount: 2
Fore
SplineSet
229 -160 m 1,0,-1
 229 288 l 1,1,-1
 165 288 l 1,2,-1
 165 320 l 1,3,-1
 101 320 l 1,4,-1
 101 352 l 1,5,-1
 69 352 l 1,6,-1
 69 384 l 1,7,-1
 37 384 l 1,8,-1
 37 576 l 1,9,-1
 69 576 l 1,10,-1
 69 608 l 1,11,-1
 101 608 l 1,12,-1
 101 640 l 1,13,-1
 165 640 l 1,14,-1
 165 672 l 1,15,-1
 453 672 l 1,16,-1
 453 -160 l 1,17,-1
 389 -160 l 1,18,-1
 389 640 l 1,19,-1
 293 640 l 1,20,-1
 293 -160 l 1,21,-1
 229 -160 l 1,0,-1
EndSplineSet
Validated: 1
EndChar

StartChar: periodcentered
Encoding: 183 183 119
Width: 188
Flags: W
LayerCount: 2
Fore
SplineSet
33 448 m 1,0,-1
 33 544 l 1,1,-1
 129 544 l 1,2,-1
 129 448 l 1,3,-1
 33 448 l 1,0,-1
EndSplineSet
Validated: 1
EndChar

StartChar: cedilla
Encoding: 184 184 120
Width: 230
Flags: W
LayerCount: 2
Fore
SplineSet
13 -192 m 1,0,-1
 13 -160 l 1,1,-1
 -19 -160 l 1,2,-1
 -19 -96 l 1,3,-1
 13 -96 l 1,4,-1
 13 -128 l 1,5,-1
 77 -128 l 1,6,-1
 77 -64 l 1,7,-1
 13 -64 l 1,8,-1
 13 0 l 1,9,-1
 45 0 l 1,10,-1
 45 -32 l 1,11,-1
 141 -32 l 1,12,-1
 141 -64 l 1,13,-1
 173 -64 l 1,14,-1
 173 -160 l 1,15,-1
 141 -160 l 1,16,-1
 141 -192 l 1,17,-1
 13 -192 l 1,0,-1
EndSplineSet
Validated: 1
EndChar

StartChar: uni00B9
Encoding: 185 185 121
Width: 201
Flags: W
LayerCount: 2
Fore
SplineSet
8 576 m 1,0,-1
 8 608 l 1,1,-1
 40 608 l 1,2,-1
 40 576 l 1,3,-1
 8 576 l 1,0,-1
72 480 m 1,4,-1
 72 608 l 1,5,-1
 40 608 l 1,6,-1
 40 640 l 1,7,-1
 72 640 l 1,8,-1
 72 672 l 1,9,-1
 136 672 l 1,10,-1
 136 480 l 1,11,-1
 72 480 l 1,4,-1
EndSplineSet
Validated: 5
EndChar

StartChar: ordmasculine
Encoding: 186 186 122
Width: 399
Flags: W
LayerCount: 2
Fore
SplineSet
52 128 m 1,0,-1
 52 192 l 1,1,-1
 340 192 l 1,2,-1
 340 128 l 1,3,-1
 52 128 l 1,0,-1
244 288 m 1,4,-1
 244 320 l 1,5,-1
 276 320 l 1,6,-1
 276 480 l 1,7,-1
 244 480 l 1,8,-1
 244 512 l 1,9,-1
 148 512 l 1,10,-1
 148 480 l 1,11,-1
 116 480 l 1,12,-1
 116 320 l 1,13,-1
 148 320 l 1,14,-1
 148 288 l 1,15,-1
 244 288 l 1,4,-1
116 224 m 1,16,-1
 116 256 l 1,17,-1
 84 256 l 1,18,-1
 84 288 l 1,19,-1
 52 288 l 1,20,-1
 52 512 l 1,21,-1
 84 512 l 1,22,-1
 84 544 l 1,23,-1
 116 544 l 1,24,-1
 116 576 l 1,25,-1
 276 576 l 1,26,-1
 276 544 l 1,27,-1
 308 544 l 1,28,-1
 308 512 l 1,29,-1
 340 512 l 1,30,-1
 340 288 l 1,31,-1
 308 288 l 1,32,-1
 308 256 l 1,33,-1
 276 256 l 1,34,-1
 276 224 l 1,35,-1
 116 224 l 1,16,-1
EndSplineSet
Validated: 1
EndChar

StartChar: guillemotright
Encoding: 187 187 123
Width: 558
Flags: W
LayerCount: 2
Fore
SplineSet
81 64 m 1,0,-1
 81 96 l 1,1,-1
 49 96 l 1,2,-1
 49 128 l 1,3,-1
 81 128 l 1,4,-1
 81 160 l 1,5,-1
 113 160 l 1,6,-1
 113 192 l 1,7,-1
 145 192 l 1,8,-1
 145 224 l 1,9,-1
 177 224 l 1,10,-1
 177 256 l 1,11,-1
 209 256 l 1,12,-1
 209 288 l 1,13,-1
 241 288 l 1,14,-1
 241 320 l 1,15,-1
 209 320 l 1,16,-1
 209 352 l 1,17,-1
 177 352 l 1,18,-1
 177 384 l 1,19,-1
 145 384 l 1,20,-1
 145 416 l 1,21,-1
 113 416 l 1,22,-1
 113 448 l 1,23,-1
 81 448 l 1,24,-1
 81 480 l 1,25,-1
 49 480 l 1,26,-1
 49 512 l 1,27,-1
 81 512 l 1,28,-1
 81 544 l 1,29,-1
 113 544 l 1,30,-1
 113 512 l 1,31,-1
 145 512 l 1,32,-1
 145 480 l 1,33,-1
 177 480 l 1,34,-1
 177 448 l 1,35,-1
 209 448 l 1,36,-1
 209 416 l 1,37,-1
 241 416 l 1,38,-1
 241 384 l 1,39,-1
 273 384 l 1,40,-1
 273 352 l 1,41,-1
 305 352 l 1,42,-1
 305 320 l 1,43,-1
 337 320 l 1,44,-1
 337 288 l 1,45,-1
 305 288 l 1,46,-1
 305 256 l 1,47,-1
 273 256 l 1,48,-1
 273 224 l 1,49,-1
 241 224 l 1,50,-1
 241 192 l 1,51,-1
 209 192 l 1,52,-1
 209 160 l 1,53,-1
 177 160 l 1,54,-1
 177 128 l 1,55,-1
 145 128 l 1,56,-1
 145 96 l 1,57,-1
 113 96 l 1,58,-1
 113 64 l 1,59,-1
 81 64 l 1,0,-1
273 64 m 1,60,-1
 273 96 l 1,61,-1
 241 96 l 1,62,-1
 241 128 l 1,63,-1
 273 128 l 1,64,-1
 273 160 l 1,65,-1
 305 160 l 1,66,-1
 305 192 l 1,67,-1
 337 192 l 1,68,-1
 337 224 l 1,69,-1
 369 224 l 1,70,-1
 369 256 l 1,71,-1
 401 256 l 1,72,-1
 401 288 l 1,73,-1
 433 288 l 1,74,-1
 433 320 l 1,75,-1
 401 320 l 1,76,-1
 401 352 l 1,77,-1
 369 352 l 1,78,-1
 369 384 l 1,79,-1
 337 384 l 1,80,-1
 337 416 l 1,81,-1
 305 416 l 1,82,-1
 305 448 l 1,83,-1
 273 448 l 1,84,-1
 273 480 l 1,85,-1
 241 480 l 1,86,-1
 241 512 l 1,87,-1
 273 512 l 1,88,-1
 273 544 l 1,89,-1
 305 544 l 1,90,-1
 305 512 l 1,91,-1
 337 512 l 1,92,-1
 337 480 l 1,93,-1
 369 480 l 1,94,-1
 369 448 l 1,95,-1
 401 448 l 1,96,-1
 401 416 l 1,97,-1
 433 416 l 1,98,-1
 433 384 l 1,99,-1
 465 384 l 1,100,-1
 465 352 l 1,101,-1
 497 352 l 1,102,-1
 497 320 l 1,103,-1
 529 320 l 1,104,-1
 529 288 l 1,105,-1
 497 288 l 1,106,-1
 497 256 l 1,107,-1
 465 256 l 1,108,-1
 465 224 l 1,109,-1
 433 224 l 1,110,-1
 433 192 l 1,111,-1
 401 192 l 1,112,-1
 401 160 l 1,113,-1
 369 160 l 1,114,-1
 369 128 l 1,115,-1
 337 128 l 1,116,-1
 337 96 l 1,117,-1
 305 96 l 1,118,-1
 305 64 l 1,119,-1
 273 64 l 1,60,-1
EndSplineSet
Validated: 1
EndChar

StartChar: onequarter
Encoding: 188 188 124
Width: 729
Flags: W
LayerCount: 2
Fore
SplineSet
590 128 m 1,0,-1
 590 224 l 1,1,-1
 558 224 l 1,2,-1
 558 192 l 1,3,-1
 526 192 l 1,4,-1
 526 160 l 1,5,-1
 494 160 l 1,6,-1
 494 128 l 1,7,-1
 590 128 l 1,0,-1
590 0 m 1,8,-1
 590 64 l 1,9,-1
 430 64 l 1,10,-1
 430 160 l 1,11,-1
 462 160 l 1,12,-1
 462 192 l 1,13,-1
 494 192 l 1,14,-1
 494 224 l 1,15,-1
 526 224 l 1,16,-1
 526 256 l 1,17,-1
 558 256 l 1,18,-1
 558 288 l 1,19,-1
 590 288 l 1,20,-1
 590 320 l 1,21,-1
 654 320 l 1,22,-1
 654 128 l 1,23,-1
 686 128 l 1,24,-1
 686 64 l 1,25,-1
 654 64 l 1,26,-1
 654 0 l 1,27,-1
 590 0 l 1,8,-1
110 320 m 1,28,-1
 110 480 l 1,29,-1
 46 480 l 1,30,-1
 46 512 l 1,31,-1
 78 512 l 1,32,-1
 78 544 l 1,33,-1
 110 544 l 1,34,-1
 110 576 l 1,35,-1
 174 576 l 1,36,-1
 174 320 l 1,37,-1
 110 320 l 1,28,-1
46 0 m 1,38,-1
 46 32 l 1,39,-1
 78 32 l 1,40,-1
 78 64 l 1,41,-1
 110 64 l 1,42,-1
 110 96 l 1,43,-1
 142 96 l 1,44,-1
 142 128 l 1,45,-1
 174 128 l 1,46,-1
 174 160 l 1,47,-1
 206 160 l 1,48,-1
 206 192 l 1,49,-1
 238 192 l 1,50,-1
 238 224 l 1,51,-1
 270 224 l 1,52,-1
 270 256 l 1,53,-1
 302 256 l 1,54,-1
 302 288 l 1,55,-1
 334 288 l 1,56,-1
 334 320 l 1,57,-1
 366 320 l 1,58,-1
 366 352 l 1,59,-1
 398 352 l 1,60,-1
 398 384 l 1,61,-1
 430 384 l 1,62,-1
 430 416 l 1,63,-1
 462 416 l 1,64,-1
 462 448 l 1,65,-1
 494 448 l 1,66,-1
 494 480 l 1,67,-1
 526 480 l 1,68,-1
 526 512 l 1,69,-1
 558 512 l 1,70,-1
 558 544 l 1,71,-1
 590 544 l 1,72,-1
 590 576 l 1,73,-1
 654 576 l 1,74,-1
 654 544 l 1,75,-1
 622 544 l 1,76,-1
 622 512 l 1,77,-1
 590 512 l 1,78,-1
 590 480 l 1,79,-1
 558 480 l 1,80,-1
 558 448 l 1,81,-1
 526 448 l 1,82,-1
 526 416 l 1,83,-1
 494 416 l 1,84,-1
 494 384 l 1,85,-1
 462 384 l 1,86,-1
 462 352 l 1,87,-1
 430 352 l 1,88,-1
 430 320 l 1,89,-1
 398 320 l 1,90,-1
 398 288 l 1,91,-1
 366 288 l 1,92,-1
 366 256 l 1,93,-1
 334 256 l 1,94,-1
 334 224 l 1,95,-1
 302 224 l 1,96,-1
 302 192 l 1,97,-1
 270 192 l 1,98,-1
 270 160 l 1,99,-1
 238 160 l 1,100,-1
 238 128 l 1,101,-1
 206 128 l 1,102,-1
 206 96 l 1,103,-1
 174 96 l 1,104,-1
 174 64 l 1,105,-1
 142 64 l 1,106,-1
 142 32 l 1,107,-1
 110 32 l 1,108,-1
 110 0 l 1,109,-1
 46 0 l 1,38,-1
EndSplineSet
Validated: 1
EndChar

StartChar: onehalf
Encoding: 189 189 125
Width: 766
Flags: W
LayerCount: 2
Fore
SplineSet
494 0 m 1,0,-1
 494 64 l 1,1,-1
 526 64 l 1,2,-1
 526 96 l 1,3,-1
 558 96 l 1,4,-1
 558 128 l 1,5,-1
 590 128 l 1,6,-1
 590 160 l 1,7,-1
 622 160 l 1,8,-1
 622 192 l 1,9,-1
 654 192 l 1,10,-1
 654 256 l 1,11,-1
 558 256 l 1,12,-1
 558 224 l 1,13,-1
 494 224 l 1,14,-1
 494 256 l 1,15,-1
 526 256 l 1,16,-1
 526 288 l 1,17,-1
 558 288 l 1,18,-1
 558 320 l 1,19,-1
 686 320 l 1,20,-1
 686 288 l 1,21,-1
 718 288 l 1,22,-1
 718 192 l 1,23,-1
 686 192 l 1,24,-1
 686 160 l 1,25,-1
 654 160 l 1,26,-1
 654 128 l 1,27,-1
 622 128 l 1,28,-1
 622 96 l 1,29,-1
 590 96 l 1,30,-1
 590 64 l 1,31,-1
 718 64 l 1,32,-1
 718 0 l 1,33,-1
 494 0 l 1,0,-1
110 320 m 1,34,-1
 110 480 l 1,35,-1
 46 480 l 1,36,-1
 46 512 l 1,37,-1
 78 512 l 1,38,-1
 78 544 l 1,39,-1
 110 544 l 1,40,-1
 110 576 l 1,41,-1
 174 576 l 1,42,-1
 174 320 l 1,43,-1
 110 320 l 1,34,-1
46 0 m 1,44,-1
 46 32 l 1,45,-1
 78 32 l 1,46,-1
 78 64 l 1,47,-1
 110 64 l 1,48,-1
 110 96 l 1,49,-1
 142 96 l 1,50,-1
 142 128 l 1,51,-1
 174 128 l 1,52,-1
 174 160 l 1,53,-1
 206 160 l 1,54,-1
 206 192 l 1,55,-1
 238 192 l 1,56,-1
 238 224 l 1,57,-1
 270 224 l 1,58,-1
 270 256 l 1,59,-1
 302 256 l 1,60,-1
 302 288 l 1,61,-1
 334 288 l 1,62,-1
 334 320 l 1,63,-1
 366 320 l 1,64,-1
 366 352 l 1,65,-1
 398 352 l 1,66,-1
 398 384 l 1,67,-1
 430 384 l 1,68,-1
 430 416 l 1,69,-1
 462 416 l 1,70,-1
 462 448 l 1,71,-1
 494 448 l 1,72,-1
 494 480 l 1,73,-1
 526 480 l 1,74,-1
 526 512 l 1,75,-1
 558 512 l 1,76,-1
 558 544 l 1,77,-1
 590 544 l 1,78,-1
 590 576 l 1,79,-1
 654 576 l 1,80,-1
 654 544 l 1,81,-1
 622 544 l 1,82,-1
 622 512 l 1,83,-1
 590 512 l 1,84,-1
 590 480 l 1,85,-1
 558 480 l 1,86,-1
 558 448 l 1,87,-1
 526 448 l 1,88,-1
 526 416 l 1,89,-1
 494 416 l 1,90,-1
 494 384 l 1,91,-1
 462 384 l 1,92,-1
 462 352 l 1,93,-1
 430 352 l 1,94,-1
 430 320 l 1,95,-1
 398 320 l 1,96,-1
 398 288 l 1,97,-1
 366 288 l 1,98,-1
 366 256 l 1,99,-1
 334 256 l 1,100,-1
 334 224 l 1,101,-1
 302 224 l 1,102,-1
 302 192 l 1,103,-1
 270 192 l 1,104,-1
 270 160 l 1,105,-1
 238 160 l 1,106,-1
 238 128 l 1,107,-1
 206 128 l 1,108,-1
 206 96 l 1,109,-1
 174 96 l 1,110,-1
 174 64 l 1,111,-1
 142 64 l 1,112,-1
 142 32 l 1,113,-1
 110 32 l 1,114,-1
 110 0 l 1,115,-1
 46 0 l 1,44,-1
EndSplineSet
Validated: 1
EndChar

StartChar: threequarters
Encoding: 190 190 126
Width: 737
Flags: W
LayerCount: 2
Fore
SplineSet
598 128 m 1,0,-1
 598 224 l 1,1,-1
 566 224 l 1,2,-1
 566 192 l 1,3,-1
 534 192 l 1,4,-1
 534 160 l 1,5,-1
 502 160 l 1,6,-1
 502 128 l 1,7,-1
 598 128 l 1,0,-1
598 0 m 1,8,-1
 598 64 l 1,9,-1
 438 64 l 1,10,-1
 438 160 l 1,11,-1
 470 160 l 1,12,-1
 470 192 l 1,13,-1
 502 192 l 1,14,-1
 502 224 l 1,15,-1
 534 224 l 1,16,-1
 534 256 l 1,17,-1
 566 256 l 1,18,-1
 566 288 l 1,19,-1
 598 288 l 1,20,-1
 598 320 l 1,21,-1
 662 320 l 1,22,-1
 662 128 l 1,23,-1
 694 128 l 1,24,-1
 694 64 l 1,25,-1
 662 64 l 1,26,-1
 662 0 l 1,27,-1
 598 0 l 1,8,-1
86 288 m 1,28,-1
 86 320 l 1,29,-1
 54 320 l 1,30,-1
 54 384 l 1,31,-1
 118 384 l 1,32,-1
 118 320 l 1,33,-1
 182 320 l 1,34,-1
 182 416 l 1,35,-1
 118 416 l 1,36,-1
 118 448 l 1,37,-1
 182 448 l 1,38,-1
 182 544 l 1,39,-1
 118 544 l 1,40,-1
 118 480 l 1,41,-1
 54 480 l 1,42,-1
 54 544 l 1,43,-1
 86 544 l 1,44,-1
 86 576 l 1,45,-1
 214 576 l 1,46,-1
 214 544 l 1,47,-1
 246 544 l 1,48,-1
 246 448 l 1,49,-1
 214 448 l 1,50,-1
 214 416 l 1,51,-1
 246 416 l 1,52,-1
 246 320 l 1,53,-1
 214 320 l 1,54,-1
 214 288 l 1,55,-1
 86 288 l 1,28,-1
54 0 m 1,56,-1
 54 32 l 1,57,-1
 86 32 l 1,58,-1
 86 64 l 1,59,-1
 118 64 l 1,60,-1
 118 96 l 1,61,-1
 150 96 l 1,62,-1
 150 128 l 1,63,-1
 182 128 l 1,64,-1
 182 160 l 1,65,-1
 214 160 l 1,66,-1
 214 192 l 1,67,-1
 246 192 l 1,68,-1
 246 224 l 1,69,-1
 278 224 l 1,70,-1
 278 256 l 1,71,-1
 310 256 l 1,72,-1
 310 288 l 1,73,-1
 342 288 l 1,74,-1
 342 320 l 1,75,-1
 374 320 l 1,76,-1
 374 352 l 1,77,-1
 406 352 l 1,78,-1
 406 384 l 1,79,-1
 438 384 l 1,80,-1
 438 416 l 1,81,-1
 470 416 l 1,82,-1
 470 448 l 1,83,-1
 502 448 l 1,84,-1
 502 480 l 1,85,-1
 534 480 l 1,86,-1
 534 512 l 1,87,-1
 566 512 l 1,88,-1
 566 544 l 1,89,-1
 598 544 l 1,90,-1
 598 576 l 1,91,-1
 662 576 l 1,92,-1
 662 544 l 1,93,-1
 630 544 l 1,94,-1
 630 512 l 1,95,-1
 598 512 l 1,96,-1
 598 480 l 1,97,-1
 566 480 l 1,98,-1
 566 448 l 1,99,-1
 534 448 l 1,100,-1
 534 416 l 1,101,-1
 502 416 l 1,102,-1
 502 384 l 1,103,-1
 470 384 l 1,104,-1
 470 352 l 1,105,-1
 438 352 l 1,106,-1
 438 320 l 1,107,-1
 406 320 l 1,108,-1
 406 288 l 1,109,-1
 374 288 l 1,110,-1
 374 256 l 1,111,-1
 342 256 l 1,112,-1
 342 224 l 1,113,-1
 310 224 l 1,114,-1
 310 192 l 1,115,-1
 278 192 l 1,116,-1
 278 160 l 1,117,-1
 246 160 l 1,118,-1
 246 128 l 1,119,-1
 214 128 l 1,120,-1
 214 96 l 1,121,-1
 182 96 l 1,122,-1
 182 64 l 1,123,-1
 150 64 l 1,124,-1
 150 32 l 1,125,-1
 118 32 l 1,126,-1
 118 0 l 1,127,-1
 54 0 l 1,56,-1
EndSplineSet
Validated: 1
EndChar

StartChar: questiondown
Encoding: 191 191 127
Width: 501
Flags: W
LayerCount: 2
Fore
SplineSet
158 0 m 1,0,-1
 158 32 l 1,1,-1
 94 32 l 1,2,-1
 94 64 l 1,3,-1
 62 64 l 1,4,-1
 62 96 l 1,5,-1
 30 96 l 1,6,-1
 30 256 l 1,7,-1
 62 256 l 1,8,-1
 62 288 l 1,9,-1
 94 288 l 1,10,-1
 94 320 l 1,11,-1
 126 320 l 1,12,-1
 126 352 l 1,13,-1
 158 352 l 1,14,-1
 158 384 l 1,15,-1
 190 384 l 1,16,-1
 190 448 l 1,17,-1
 286 448 l 1,18,-1
 286 352 l 1,19,-1
 254 352 l 1,20,-1
 254 320 l 1,21,-1
 222 320 l 1,22,-1
 222 288 l 1,23,-1
 190 288 l 1,24,-1
 190 256 l 1,25,-1
 158 256 l 1,26,-1
 158 224 l 1,27,-1
 126 224 l 1,28,-1
 126 128 l 1,29,-1
 158 128 l 1,30,-1
 158 96 l 1,31,-1
 318 96 l 1,32,-1
 318 128 l 1,33,-1
 350 128 l 1,34,-1
 350 160 l 1,35,-1
 382 160 l 1,36,-1
 382 224 l 1,37,-1
 478 224 l 1,38,-1
 478 160 l 1,39,-1
 446 160 l 1,40,-1
 446 96 l 1,41,-1
 414 96 l 1,42,-1
 414 64 l 1,43,-1
 382 64 l 1,44,-1
 382 32 l 1,45,-1
 350 32 l 1,46,-1
 350 0 l 1,47,-1
 158 0 l 1,0,-1
190 544 m 1,48,-1
 190 640 l 1,49,-1
 286 640 l 1,50,-1
 286 544 l 1,51,-1
 190 544 l 1,48,-1
EndSplineSet
Validated: 1
EndChar

StartChar: Agrave
Encoding: 192 192 128
Width: 673
Flags: W
LayerCount: 2
Fore
SplineSet
433 288 m 1,0,-1
 433 320 l 1,1,-1
 401 320 l 1,2,-1
 401 384 l 1,3,-1
 369 384 l 1,4,-1
 369 448 l 1,5,-1
 337 448 l 1,6,-1
 337 512 l 1,7,-1
 305 512 l 1,8,-1
 305 448 l 1,9,-1
 273 448 l 1,10,-1
 273 384 l 1,11,-1
 241 384 l 1,12,-1
 241 320 l 1,13,-1
 209 320 l 1,14,-1
 209 288 l 1,15,-1
 433 288 l 1,0,-1
17 0 m 1,16,-1
 17 96 l 1,17,-1
 49 96 l 1,18,-1
 49 160 l 1,19,-1
 81 160 l 1,20,-1
 81 256 l 1,21,-1
 113 256 l 1,22,-1
 113 320 l 1,23,-1
 145 320 l 1,24,-1
 145 384 l 1,25,-1
 177 384 l 1,26,-1
 177 448 l 1,27,-1
 209 448 l 1,28,-1
 209 512 l 1,29,-1
 241 512 l 1,30,-1
 241 576 l 1,31,-1
 273 576 l 1,32,-1
 273 640 l 1,33,-1
 369 640 l 1,34,-1
 369 576 l 1,35,-1
 401 576 l 1,36,-1
 401 512 l 1,37,-1
 433 512 l 1,38,-1
 433 448 l 1,39,-1
 465 448 l 1,40,-1
 465 384 l 1,41,-1
 497 384 l 1,42,-1
 497 320 l 1,43,-1
 529 320 l 1,44,-1
 529 256 l 1,45,-1
 561 256 l 1,46,-1
 561 160 l 1,47,-1
 593 160 l 1,48,-1
 593 96 l 1,49,-1
 625 96 l 1,50,-1
 625 0 l 1,51,-1
 529 0 l 1,52,-1
 529 64 l 1,53,-1
 497 64 l 1,54,-1
 497 128 l 1,55,-1
 465 128 l 1,56,-1
 465 192 l 1,57,-1
 177 192 l 1,58,-1
 177 128 l 1,59,-1
 145 128 l 1,60,-1
 145 64 l 1,61,-1
 113 64 l 1,62,-1
 113 0 l 1,63,-1
 17 0 l 1,16,-1
273 704 m 1,64,-1
 273 736 l 1,65,-1
 241 736 l 1,66,-1
 241 768 l 1,67,-1
 209 768 l 1,68,-1
 209 800 l 1,69,-1
 305 800 l 1,70,-1
 305 768 l 1,71,-1
 337 768 l 1,72,-1
 337 736 l 1,73,-1
 369 736 l 1,74,-1
 369 704 l 1,75,-1
 273 704 l 1,64,-1
EndSplineSet
Validated: 1
EndChar

StartChar: Aacute
Encoding: 193 193 129
Width: 672
Flags: W
LayerCount: 2
Fore
SplineSet
432 288 m 1,0,-1
 432 320 l 1,1,-1
 400 320 l 1,2,-1
 400 384 l 1,3,-1
 368 384 l 1,4,-1
 368 448 l 1,5,-1
 336 448 l 1,6,-1
 336 512 l 1,7,-1
 304 512 l 1,8,-1
 304 448 l 1,9,-1
 272 448 l 1,10,-1
 272 384 l 1,11,-1
 240 384 l 1,12,-1
 240 320 l 1,13,-1
 208 320 l 1,14,-1
 208 288 l 1,15,-1
 432 288 l 1,0,-1
16 0 m 1,16,-1
 16 96 l 1,17,-1
 48 96 l 1,18,-1
 48 160 l 1,19,-1
 80 160 l 1,20,-1
 80 256 l 1,21,-1
 112 256 l 1,22,-1
 112 320 l 1,23,-1
 144 320 l 1,24,-1
 144 384 l 1,25,-1
 176 384 l 1,26,-1
 176 448 l 1,27,-1
 208 448 l 1,28,-1
 208 512 l 1,29,-1
 240 512 l 1,30,-1
 240 576 l 1,31,-1
 272 576 l 1,32,-1
 272 640 l 1,33,-1
 368 640 l 1,34,-1
 368 576 l 1,35,-1
 400 576 l 1,36,-1
 400 512 l 1,37,-1
 432 512 l 1,38,-1
 432 448 l 1,39,-1
 464 448 l 1,40,-1
 464 384 l 1,41,-1
 496 384 l 1,42,-1
 496 320 l 1,43,-1
 528 320 l 1,44,-1
 528 256 l 1,45,-1
 560 256 l 1,46,-1
 560 160 l 1,47,-1
 592 160 l 1,48,-1
 592 96 l 1,49,-1
 624 96 l 1,50,-1
 624 0 l 1,51,-1
 528 0 l 1,52,-1
 528 64 l 1,53,-1
 496 64 l 1,54,-1
 496 128 l 1,55,-1
 464 128 l 1,56,-1
 464 192 l 1,57,-1
 176 192 l 1,58,-1
 176 128 l 1,59,-1
 144 128 l 1,60,-1
 144 64 l 1,61,-1
 112 64 l 1,62,-1
 112 0 l 1,63,-1
 16 0 l 1,16,-1
272 704 m 1,64,-1
 272 736 l 1,65,-1
 304 736 l 1,66,-1
 304 768 l 1,67,-1
 336 768 l 1,68,-1
 336 800 l 1,69,-1
 432 800 l 1,70,-1
 432 768 l 1,71,-1
 400 768 l 1,72,-1
 400 736 l 1,73,-1
 368 736 l 1,74,-1
 368 704 l 1,75,-1
 272 704 l 1,64,-1
EndSplineSet
Validated: 1
EndChar

StartChar: Acircumflex
Encoding: 194 194 130
Width: 679
Flags: W
LayerCount: 2
Fore
SplineSet
439 288 m 1,0,-1
 439 320 l 1,1,-1
 407 320 l 1,2,-1
 407 384 l 1,3,-1
 375 384 l 1,4,-1
 375 448 l 1,5,-1
 343 448 l 1,6,-1
 343 512 l 1,7,-1
 311 512 l 1,8,-1
 311 448 l 1,9,-1
 279 448 l 1,10,-1
 279 384 l 1,11,-1
 247 384 l 1,12,-1
 247 320 l 1,13,-1
 215 320 l 1,14,-1
 215 288 l 1,15,-1
 439 288 l 1,0,-1
23 0 m 1,16,-1
 23 96 l 1,17,-1
 55 96 l 1,18,-1
 55 160 l 1,19,-1
 87 160 l 1,20,-1
 87 256 l 1,21,-1
 119 256 l 1,22,-1
 119 320 l 1,23,-1
 151 320 l 1,24,-1
 151 384 l 1,25,-1
 183 384 l 1,26,-1
 183 448 l 1,27,-1
 215 448 l 1,28,-1
 215 512 l 1,29,-1
 247 512 l 1,30,-1
 247 576 l 1,31,-1
 279 576 l 1,32,-1
 279 640 l 1,33,-1
 375 640 l 1,34,-1
 375 576 l 1,35,-1
 407 576 l 1,36,-1
 407 512 l 1,37,-1
 439 512 l 1,38,-1
 439 448 l 1,39,-1
 471 448 l 1,40,-1
 471 384 l 1,41,-1
 503 384 l 1,42,-1
 503 320 l 1,43,-1
 535 320 l 1,44,-1
 535 256 l 1,45,-1
 567 256 l 1,46,-1
 567 160 l 1,47,-1
 599 160 l 1,48,-1
 599 96 l 1,49,-1
 631 96 l 1,50,-1
 631 0 l 1,51,-1
 535 0 l 1,52,-1
 535 64 l 1,53,-1
 503 64 l 1,54,-1
 503 128 l 1,55,-1
 471 128 l 1,56,-1
 471 192 l 1,57,-1
 183 192 l 1,58,-1
 183 128 l 1,59,-1
 151 128 l 1,60,-1
 151 64 l 1,61,-1
 119 64 l 1,62,-1
 119 0 l 1,63,-1
 23 0 l 1,16,-1
151 640 m 1,64,-1
 151 672 l 1,65,-1
 183 672 l 1,66,-1
 183 704 l 1,67,-1
 215 704 l 1,68,-1
 215 736 l 1,69,-1
 247 736 l 1,70,-1
 247 768 l 1,71,-1
 279 768 l 1,72,-1
 279 800 l 1,73,-1
 375 800 l 1,74,-1
 375 768 l 1,75,-1
 407 768 l 1,76,-1
 407 736 l 1,77,-1
 439 736 l 1,78,-1
 439 704 l 1,79,-1
 471 704 l 1,80,-1
 471 672 l 1,81,-1
 503 672 l 1,82,-1
 503 640 l 1,83,-1
 439 640 l 1,84,-1
 439 672 l 1,85,-1
 375 672 l 1,86,-1
 375 704 l 1,87,-1
 343 704 l 1,88,-1
 343 736 l 1,89,-1
 311 736 l 1,90,-1
 311 704 l 1,91,-1
 279 704 l 1,92,-1
 279 672 l 1,93,-1
 215 672 l 1,94,-1
 215 640 l 1,95,-1
 151 640 l 1,64,-1
EndSplineSet
Validated: 1
EndChar

StartChar: Atilde
Encoding: 195 195 131
Width: 675
Flags: W
LayerCount: 2
Fore
SplineSet
435 288 m 1,0,-1
 435 320 l 1,1,-1
 403 320 l 1,2,-1
 403 384 l 1,3,-1
 371 384 l 1,4,-1
 371 448 l 1,5,-1
 339 448 l 1,6,-1
 339 512 l 1,7,-1
 307 512 l 1,8,-1
 307 448 l 1,9,-1
 275 448 l 1,10,-1
 275 384 l 1,11,-1
 243 384 l 1,12,-1
 243 320 l 1,13,-1
 211 320 l 1,14,-1
 211 288 l 1,15,-1
 435 288 l 1,0,-1
19 0 m 1,16,-1
 19 96 l 1,17,-1
 51 96 l 1,18,-1
 51 160 l 1,19,-1
 83 160 l 1,20,-1
 83 256 l 1,21,-1
 115 256 l 1,22,-1
 115 320 l 1,23,-1
 147 320 l 1,24,-1
 147 384 l 1,25,-1
 179 384 l 1,26,-1
 179 448 l 1,27,-1
 211 448 l 1,28,-1
 211 512 l 1,29,-1
 243 512 l 1,30,-1
 243 576 l 1,31,-1
 275 576 l 1,32,-1
 275 640 l 1,33,-1
 371 640 l 1,34,-1
 371 576 l 1,35,-1
 403 576 l 1,36,-1
 403 512 l 1,37,-1
 435 512 l 1,38,-1
 435 448 l 1,39,-1
 467 448 l 1,40,-1
 467 384 l 1,41,-1
 499 384 l 1,42,-1
 499 320 l 1,43,-1
 531 320 l 1,44,-1
 531 256 l 1,45,-1
 563 256 l 1,46,-1
 563 160 l 1,47,-1
 595 160 l 1,48,-1
 595 96 l 1,49,-1
 627 96 l 1,50,-1
 627 0 l 1,51,-1
 531 0 l 1,52,-1
 531 64 l 1,53,-1
 499 64 l 1,54,-1
 499 128 l 1,55,-1
 467 128 l 1,56,-1
 467 192 l 1,57,-1
 179 192 l 1,58,-1
 179 128 l 1,59,-1
 147 128 l 1,60,-1
 147 64 l 1,61,-1
 115 64 l 1,62,-1
 115 0 l 1,63,-1
 19 0 l 1,16,-1
339 672 m 1,64,-1
 339 704 l 1,65,-1
 307 704 l 1,66,-1
 307 736 l 1,67,-1
 275 736 l 1,68,-1
 275 768 l 1,69,-1
 211 768 l 1,70,-1
 211 736 l 1,71,-1
 179 736 l 1,72,-1
 179 704 l 1,73,-1
 147 704 l 1,74,-1
 147 768 l 1,75,-1
 179 768 l 1,76,-1
 179 800 l 1,77,-1
 211 800 l 1,78,-1
 211 832 l 1,79,-1
 307 832 l 1,80,-1
 307 800 l 1,81,-1
 339 800 l 1,82,-1
 339 768 l 1,83,-1
 371 768 l 1,84,-1
 371 736 l 1,85,-1
 435 736 l 1,86,-1
 435 768 l 1,87,-1
 467 768 l 1,88,-1
 467 800 l 1,89,-1
 499 800 l 1,90,-1
 499 736 l 1,91,-1
 467 736 l 1,92,-1
 467 704 l 1,93,-1
 435 704 l 1,94,-1
 435 672 l 1,95,-1
 339 672 l 1,64,-1
EndSplineSet
Validated: 1
EndChar

StartChar: Adieresis
Encoding: 196 196 132
Width: 674
Flags: W
LayerCount: 2
Fore
SplineSet
434 288 m 1,0,-1
 434 320 l 1,1,-1
 402 320 l 1,2,-1
 402 384 l 1,3,-1
 370 384 l 1,4,-1
 370 448 l 1,5,-1
 338 448 l 1,6,-1
 338 512 l 1,7,-1
 306 512 l 1,8,-1
 306 448 l 1,9,-1
 274 448 l 1,10,-1
 274 384 l 1,11,-1
 242 384 l 1,12,-1
 242 320 l 1,13,-1
 210 320 l 1,14,-1
 210 288 l 1,15,-1
 434 288 l 1,0,-1
18 0 m 1,16,-1
 18 96 l 1,17,-1
 50 96 l 1,18,-1
 50 160 l 1,19,-1
 82 160 l 1,20,-1
 82 256 l 1,21,-1
 114 256 l 1,22,-1
 114 320 l 1,23,-1
 146 320 l 1,24,-1
 146 384 l 1,25,-1
 178 384 l 1,26,-1
 178 448 l 1,27,-1
 210 448 l 1,28,-1
 210 512 l 1,29,-1
 242 512 l 1,30,-1
 242 576 l 1,31,-1
 274 576 l 1,32,-1
 274 640 l 1,33,-1
 370 640 l 1,34,-1
 370 576 l 1,35,-1
 402 576 l 1,36,-1
 402 512 l 1,37,-1
 434 512 l 1,38,-1
 434 448 l 1,39,-1
 466 448 l 1,40,-1
 466 384 l 1,41,-1
 498 384 l 1,42,-1
 498 320 l 1,43,-1
 530 320 l 1,44,-1
 530 256 l 1,45,-1
 562 256 l 1,46,-1
 562 160 l 1,47,-1
 594 160 l 1,48,-1
 594 96 l 1,49,-1
 626 96 l 1,50,-1
 626 0 l 1,51,-1
 530 0 l 1,52,-1
 530 64 l 1,53,-1
 498 64 l 1,54,-1
 498 128 l 1,55,-1
 466 128 l 1,56,-1
 466 192 l 1,57,-1
 178 192 l 1,58,-1
 178 128 l 1,59,-1
 146 128 l 1,60,-1
 146 64 l 1,61,-1
 114 64 l 1,62,-1
 114 0 l 1,63,-1
 18 0 l 1,16,-1
178 704 m 1,64,-1
 178 800 l 1,65,-1
 274 800 l 1,66,-1
 274 704 l 1,67,-1
 178 704 l 1,64,-1
370 704 m 1,68,-1
 370 800 l 1,69,-1
 466 800 l 1,70,-1
 466 704 l 1,71,-1
 370 704 l 1,68,-1
EndSplineSet
Validated: 1
EndChar

StartChar: Aring
Encoding: 197 197 133
Width: 673
Flags: W
LayerCount: 2
Fore
SplineSet
433 288 m 1,0,-1
 433 320 l 1,1,-1
 401 320 l 1,2,-1
 401 384 l 1,3,-1
 369 384 l 1,4,-1
 369 448 l 1,5,-1
 337 448 l 1,6,-1
 337 512 l 1,7,-1
 305 512 l 1,8,-1
 305 448 l 1,9,-1
 273 448 l 1,10,-1
 273 384 l 1,11,-1
 241 384 l 1,12,-1
 241 320 l 1,13,-1
 209 320 l 1,14,-1
 209 288 l 1,15,-1
 433 288 l 1,0,-1
337 640 m 1,16,-1
 337 672 l 1,17,-1
 369 672 l 1,18,-1
 369 704 l 1,19,-1
 337 704 l 1,20,-1
 337 736 l 1,21,-1
 305 736 l 1,22,-1
 305 704 l 1,23,-1
 273 704 l 1,24,-1
 273 672 l 1,25,-1
 305 672 l 1,26,-1
 305 640 l 1,27,-1
 337 640 l 1,16,-1
17 0 m 1,28,-1
 17 96 l 1,29,-1
 49 96 l 1,30,-1
 49 160 l 1,31,-1
 81 160 l 1,32,-1
 81 256 l 1,33,-1
 113 256 l 1,34,-1
 113 320 l 1,35,-1
 145 320 l 1,36,-1
 145 384 l 1,37,-1
 177 384 l 1,38,-1
 177 448 l 1,39,-1
 209 448 l 1,40,-1
 209 512 l 1,41,-1
 241 512 l 1,42,-1
 241 576 l 1,43,-1
 273 576 l 1,44,-1
 273 640 l 1,45,-1
 241 640 l 1,46,-1
 241 736 l 1,47,-1
 273 736 l 1,48,-1
 273 768 l 1,49,-1
 369 768 l 1,50,-1
 369 736 l 1,51,-1
 401 736 l 1,52,-1
 401 640 l 1,53,-1
 369 640 l 1,54,-1
 369 576 l 1,55,-1
 401 576 l 1,56,-1
 401 512 l 1,57,-1
 433 512 l 1,58,-1
 433 448 l 1,59,-1
 465 448 l 1,60,-1
 465 384 l 1,61,-1
 497 384 l 1,62,-1
 497 320 l 1,63,-1
 529 320 l 1,64,-1
 529 256 l 1,65,-1
 561 256 l 1,66,-1
 561 160 l 1,67,-1
 593 160 l 1,68,-1
 593 96 l 1,69,-1
 625 96 l 1,70,-1
 625 0 l 1,71,-1
 529 0 l 1,72,-1
 529 64 l 1,73,-1
 497 64 l 1,74,-1
 497 128 l 1,75,-1
 465 128 l 1,76,-1
 465 192 l 1,77,-1
 177 192 l 1,78,-1
 177 128 l 1,79,-1
 145 128 l 1,80,-1
 145 64 l 1,81,-1
 113 64 l 1,82,-1
 113 0 l 1,83,-1
 17 0 l 1,28,-1
EndSplineSet
Validated: 1
EndChar

StartChar: AE
Encoding: 198 198 134
Width: 962
Flags: W
LayerCount: 2
Fore
SplineSet
434 288 m 1,0,-1
 434 320 l 1,1,-1
 402 320 l 1,2,-1
 402 384 l 1,3,-1
 370 384 l 1,4,-1
 370 448 l 1,5,-1
 338 448 l 1,6,-1
 338 480 l 1,7,-1
 306 480 l 1,8,-1
 306 448 l 1,9,-1
 274 448 l 1,10,-1
 274 384 l 1,11,-1
 242 384 l 1,12,-1
 242 320 l 1,13,-1
 210 320 l 1,14,-1
 210 288 l 1,15,-1
 434 288 l 1,0,-1
18 0 m 1,16,-1
 18 96 l 1,17,-1
 50 96 l 1,18,-1
 50 160 l 1,19,-1
 82 160 l 1,20,-1
 82 256 l 1,21,-1
 114 256 l 1,22,-1
 114 320 l 1,23,-1
 146 320 l 1,24,-1
 146 384 l 1,25,-1
 178 384 l 1,26,-1
 178 448 l 1,27,-1
 210 448 l 1,28,-1
 210 512 l 1,29,-1
 242 512 l 1,30,-1
 242 576 l 1,31,-1
 274 576 l 1,32,-1
 274 640 l 1,33,-1
 690 640 l 1,34,-1
 690 544 l 1,35,-1
 402 544 l 1,36,-1
 402 512 l 1,37,-1
 434 512 l 1,38,-1
 434 448 l 1,39,-1
 466 448 l 1,40,-1
 466 384 l 1,41,-1
 786 384 l 1,42,-1
 786 288 l 1,43,-1
 530 288 l 1,44,-1
 530 256 l 1,45,-1
 562 256 l 1,46,-1
 562 160 l 1,47,-1
 594 160 l 1,48,-1
 594 96 l 1,49,-1
 914 96 l 1,50,-1
 914 0 l 1,51,-1
 530 0 l 1,52,-1
 530 64 l 1,53,-1
 498 64 l 1,54,-1
 498 128 l 1,55,-1
 466 128 l 1,56,-1
 466 192 l 1,57,-1
 178 192 l 1,58,-1
 178 128 l 1,59,-1
 146 128 l 1,60,-1
 146 64 l 1,61,-1
 114 64 l 1,62,-1
 114 0 l 1,63,-1
 18 0 l 1,16,-1
EndSplineSet
Validated: 1
EndChar

StartChar: Ccedilla
Encoding: 199 199 135
Width: 662
Flags: W
LayerCount: 2
Fore
SplineSet
269 -192 m 1,0,-1
 269 -160 l 1,1,-1
 237 -160 l 1,2,-1
 237 -96 l 1,3,-1
 269 -96 l 1,4,-1
 269 -128 l 1,5,-1
 333 -128 l 1,6,-1
 333 -64 l 1,7,-1
 269 -64 l 1,8,-1
 269 32 l 1,9,-1
 173 32 l 1,10,-1
 173 64 l 1,11,-1
 141 64 l 1,12,-1
 141 96 l 1,13,-1
 109 96 l 1,14,-1
 109 128 l 1,15,-1
 77 128 l 1,16,-1
 77 192 l 1,17,-1
 45 192 l 1,18,-1
 45 448 l 1,19,-1
 77 448 l 1,20,-1
 77 512 l 1,21,-1
 109 512 l 1,22,-1
 109 544 l 1,23,-1
 141 544 l 1,24,-1
 141 576 l 1,25,-1
 173 576 l 1,26,-1
 173 608 l 1,27,-1
 269 608 l 1,28,-1
 269 640 l 1,29,-1
 429 640 l 1,30,-1
 429 608 l 1,31,-1
 525 608 l 1,32,-1
 525 576 l 1,33,-1
 557 576 l 1,34,-1
 557 512 l 1,35,-1
 589 512 l 1,36,-1
 589 480 l 1,37,-1
 621 480 l 1,38,-1
 621 448 l 1,39,-1
 493 448 l 1,40,-1
 493 480 l 1,41,-1
 461 480 l 1,42,-1
 461 512 l 1,43,-1
 397 512 l 1,44,-1
 397 544 l 1,45,-1
 301 544 l 1,46,-1
 301 512 l 1,47,-1
 237 512 l 1,48,-1
 237 480 l 1,49,-1
 205 480 l 1,50,-1
 205 448 l 1,51,-1
 173 448 l 1,52,-1
 173 384 l 1,53,-1
 141 384 l 1,54,-1
 141 256 l 1,55,-1
 173 256 l 1,56,-1
 173 192 l 1,57,-1
 205 192 l 1,58,-1
 205 160 l 1,59,-1
 237 160 l 1,60,-1
 237 128 l 1,61,-1
 301 128 l 1,62,-1
 301 96 l 1,63,-1
 397 96 l 1,64,-1
 397 128 l 1,65,-1
 461 128 l 1,66,-1
 461 160 l 1,67,-1
 493 160 l 1,68,-1
 493 192 l 1,69,-1
 621 192 l 1,70,-1
 621 160 l 1,71,-1
 589 160 l 1,72,-1
 589 128 l 1,73,-1
 557 128 l 1,74,-1
 557 64 l 1,75,-1
 525 64 l 1,76,-1
 525 32 l 1,77,-1
 429 32 l 1,78,-1
 429 0 l 1,79,-1
 301 0 l 1,80,-1
 301 -32 l 1,81,-1
 397 -32 l 1,82,-1
 397 -64 l 1,83,-1
 429 -64 l 1,84,-1
 429 -160 l 1,85,-1
 397 -160 l 1,86,-1
 397 -192 l 1,87,-1
 269 -192 l 1,0,-1
EndSplineSet
Validated: 1
EndChar

StartChar: Egrave
Encoding: 200 200 136
Width: 500
Flags: W
LayerCount: 2
Fore
SplineSet
57 0 m 1,0,-1
 57 640 l 1,1,-1
 441 640 l 1,2,-1
 441 544 l 1,3,-1
 153 544 l 1,4,-1
 153 384 l 1,5,-1
 441 384 l 1,6,-1
 441 288 l 1,7,-1
 153 288 l 1,8,-1
 153 96 l 1,9,-1
 441 96 l 1,10,-1
 441 0 l 1,11,-1
 57 0 l 1,0,-1
217 704 m 1,12,-1
 217 736 l 1,13,-1
 185 736 l 1,14,-1
 185 768 l 1,15,-1
 153 768 l 1,16,-1
 153 800 l 1,17,-1
 249 800 l 1,18,-1
 249 768 l 1,19,-1
 281 768 l 1,20,-1
 281 736 l 1,21,-1
 313 736 l 1,22,-1
 313 704 l 1,23,-1
 217 704 l 1,12,-1
EndSplineSet
Validated: 1
EndChar

StartChar: Eacute
Encoding: 201 201 137
Width: 499
Flags: W
LayerCount: 2
Fore
SplineSet
56 0 m 1,0,-1
 56 640 l 1,1,-1
 440 640 l 1,2,-1
 440 544 l 1,3,-1
 152 544 l 1,4,-1
 152 384 l 1,5,-1
 440 384 l 1,6,-1
 440 288 l 1,7,-1
 152 288 l 1,8,-1
 152 96 l 1,9,-1
 440 96 l 1,10,-1
 440 0 l 1,11,-1
 56 0 l 1,0,-1
216 704 m 1,12,-1
 216 736 l 1,13,-1
 248 736 l 1,14,-1
 248 768 l 1,15,-1
 280 768 l 1,16,-1
 280 800 l 1,17,-1
 376 800 l 1,18,-1
 376 768 l 1,19,-1
 344 768 l 1,20,-1
 344 736 l 1,21,-1
 312 736 l 1,22,-1
 312 704 l 1,23,-1
 216 704 l 1,12,-1
EndSplineSet
Validated: 1
EndChar

StartChar: Ecircumflex
Encoding: 202 202 138
Width: 500
Flags: W
LayerCount: 2
Fore
SplineSet
57 0 m 1,0,-1
 57 640 l 1,1,-1
 441 640 l 1,2,-1
 441 544 l 1,3,-1
 153 544 l 1,4,-1
 153 384 l 1,5,-1
 441 384 l 1,6,-1
 441 288 l 1,7,-1
 153 288 l 1,8,-1
 153 96 l 1,9,-1
 441 96 l 1,10,-1
 441 0 l 1,11,-1
 57 0 l 1,0,-1
89 672 m 1,12,-1
 89 704 l 1,13,-1
 121 704 l 1,14,-1
 121 736 l 1,15,-1
 153 736 l 1,16,-1
 153 768 l 1,17,-1
 185 768 l 1,18,-1
 185 800 l 1,19,-1
 313 800 l 1,20,-1
 313 768 l 1,21,-1
 345 768 l 1,22,-1
 345 736 l 1,23,-1
 377 736 l 1,24,-1
 377 704 l 1,25,-1
 409 704 l 1,26,-1
 409 672 l 1,27,-1
 345 672 l 1,28,-1
 345 704 l 1,29,-1
 281 704 l 1,30,-1
 281 736 l 1,31,-1
 217 736 l 1,32,-1
 217 704 l 1,33,-1
 153 704 l 1,34,-1
 153 672 l 1,35,-1
 89 672 l 1,12,-1
EndSplineSet
Validated: 1
EndChar

StartChar: Edieresis
Encoding: 203 203 139
Width: 500
Flags: W
LayerCount: 2
Fore
SplineSet
57 0 m 1,0,-1
 57 640 l 1,1,-1
 441 640 l 1,2,-1
 441 544 l 1,3,-1
 153 544 l 1,4,-1
 153 384 l 1,5,-1
 441 384 l 1,6,-1
 441 288 l 1,7,-1
 153 288 l 1,8,-1
 153 96 l 1,9,-1
 441 96 l 1,10,-1
 441 0 l 1,11,-1
 57 0 l 1,0,-1
121 704 m 1,12,-1
 121 800 l 1,13,-1
 217 800 l 1,14,-1
 217 704 l 1,15,-1
 121 704 l 1,12,-1
281 704 m 1,16,-1
 281 800 l 1,17,-1
 377 800 l 1,18,-1
 377 704 l 1,19,-1
 281 704 l 1,16,-1
EndSplineSet
Validated: 1
EndChar

StartChar: Igrave
Encoding: 204 204 140
Width: 223
Flags: W
LayerCount: 2
Fore
SplineSet
62 0 m 1,0,-1
 62 640 l 1,1,-1
 158 640 l 1,2,-1
 158 0 l 1,3,-1
 62 0 l 1,0,-1
62 704 m 1,4,-1
 62 736 l 1,5,-1
 30 736 l 1,6,-1
 30 768 l 1,7,-1
 -2 768 l 1,8,-1
 -2 800 l 1,9,-1
 94 800 l 1,10,-1
 94 768 l 1,11,-1
 126 768 l 1,12,-1
 126 736 l 1,13,-1
 158 736 l 1,14,-1
 158 704 l 1,15,-1
 62 704 l 1,4,-1
EndSplineSet
Validated: 1
EndChar

StartChar: Iacute
Encoding: 205 205 141
Width: 283
Flags: W
LayerCount: 2
Fore
SplineSet
58 0 m 1,0,-1
 58 640 l 1,1,-1
 154 640 l 1,2,-1
 154 0 l 1,3,-1
 58 0 l 1,0,-1
58 704 m 1,4,-1
 58 736 l 1,5,-1
 90 736 l 1,6,-1
 90 768 l 1,7,-1
 122 768 l 1,8,-1
 122 800 l 1,9,-1
 218 800 l 1,10,-1
 218 768 l 1,11,-1
 186 768 l 1,12,-1
 186 736 l 1,13,-1
 154 736 l 1,14,-1
 154 704 l 1,15,-1
 58 704 l 1,4,-1
EndSplineSet
Validated: 1
EndChar

StartChar: Icircumflex
Encoding: 206 206 142
Width: 405
Flags: W
LayerCount: 2
Fore
SplineSet
116 0 m 1,0,-1
 116 640 l 1,1,-1
 212 640 l 1,2,-1
 212 0 l 1,3,-1
 116 0 l 1,0,-1
-12 640 m 1,4,-1
 -12 672 l 1,5,-1
 20 672 l 1,6,-1
 20 704 l 1,7,-1
 52 704 l 1,8,-1
 52 736 l 1,9,-1
 84 736 l 1,10,-1
 84 768 l 1,11,-1
 116 768 l 1,12,-1
 116 800 l 1,13,-1
 212 800 l 1,14,-1
 212 768 l 1,15,-1
 244 768 l 1,16,-1
 244 736 l 1,17,-1
 276 736 l 1,18,-1
 276 704 l 1,19,-1
 308 704 l 1,20,-1
 308 672 l 1,21,-1
 340 672 l 1,22,-1
 340 640 l 1,23,-1
 276 640 l 1,24,-1
 276 672 l 1,25,-1
 212 672 l 1,26,-1
 212 704 l 1,27,-1
 180 704 l 1,28,-1
 180 736 l 1,29,-1
 148 736 l 1,30,-1
 148 704 l 1,31,-1
 116 704 l 1,32,-1
 116 672 l 1,33,-1
 52 672 l 1,34,-1
 52 640 l 1,35,-1
 -12 640 l 1,4,-1
EndSplineSet
Validated: 1
EndChar

StartChar: Idieresis
Encoding: 207 207 143
Width: 326
Flags: W
LayerCount: 2
Fore
SplineSet
69 0 m 1,0,-1
 69 640 l 1,1,-1
 165 640 l 1,2,-1
 165 0 l 1,3,-1
 69 0 l 1,0,-1
-27 704 m 1,4,-1
 -27 800 l 1,5,-1
 69 800 l 1,6,-1
 69 704 l 1,7,-1
 -27 704 l 1,4,-1
165 704 m 1,8,-1
 165 800 l 1,9,-1
 261 800 l 1,10,-1
 261 704 l 1,11,-1
 165 704 l 1,8,-1
EndSplineSet
Validated: 1
EndChar

StartChar: Eth
Encoding: 208 208 144
Width: 658
Flags: W
LayerCount: 2
Fore
SplineSet
356 96 m 1,0,-1
 356 128 l 1,1,-1
 420 128 l 1,2,-1
 420 160 l 1,3,-1
 452 160 l 1,4,-1
 452 192 l 1,5,-1
 484 192 l 1,6,-1
 484 256 l 1,7,-1
 516 256 l 1,8,-1
 516 384 l 1,9,-1
 484 384 l 1,10,-1
 484 448 l 1,11,-1
 452 448 l 1,12,-1
 452 480 l 1,13,-1
 420 480 l 1,14,-1
 420 512 l 1,15,-1
 356 512 l 1,16,-1
 356 544 l 1,17,-1
 196 544 l 1,18,-1
 196 352 l 1,19,-1
 324 352 l 1,20,-1
 324 288 l 1,21,-1
 196 288 l 1,22,-1
 196 96 l 1,23,-1
 356 96 l 1,0,-1
100 0 m 1,24,-1
 100 288 l 1,25,-1
 36 288 l 1,26,-1
 36 352 l 1,27,-1
 100 352 l 1,28,-1
 100 640 l 1,29,-1
 388 640 l 1,30,-1
 388 608 l 1,31,-1
 484 608 l 1,32,-1
 484 576 l 1,33,-1
 516 576 l 1,34,-1
 516 544 l 1,35,-1
 548 544 l 1,36,-1
 548 512 l 1,37,-1
 580 512 l 1,38,-1
 580 448 l 1,39,-1
 612 448 l 1,40,-1
 612 192 l 1,41,-1
 580 192 l 1,42,-1
 580 128 l 1,43,-1
 548 128 l 1,44,-1
 548 96 l 1,45,-1
 516 96 l 1,46,-1
 516 64 l 1,47,-1
 484 64 l 1,48,-1
 484 32 l 1,49,-1
 388 32 l 1,50,-1
 388 0 l 1,51,-1
 100 0 l 1,24,-1
EndSplineSet
Validated: 1
EndChar

StartChar: Ntilde
Encoding: 209 209 145
Width: 628
Flags: W
LayerCount: 2
Fore
SplineSet
57 0 m 1,0,-1
 57 640 l 1,1,-1
 217 640 l 1,2,-1
 217 576 l 1,3,-1
 249 576 l 1,4,-1
 249 512 l 1,5,-1
 281 512 l 1,6,-1
 281 448 l 1,7,-1
 313 448 l 1,8,-1
 313 384 l 1,9,-1
 345 384 l 1,10,-1
 345 320 l 1,11,-1
 377 320 l 1,12,-1
 377 256 l 1,13,-1
 409 256 l 1,14,-1
 409 192 l 1,15,-1
 441 192 l 1,16,-1
 441 128 l 1,17,-1
 473 128 l 1,18,-1
 473 640 l 1,19,-1
 569 640 l 1,20,-1
 569 0 l 1,21,-1
 409 0 l 1,22,-1
 409 64 l 1,23,-1
 377 64 l 1,24,-1
 377 128 l 1,25,-1
 345 128 l 1,26,-1
 345 192 l 1,27,-1
 313 192 l 1,28,-1
 313 256 l 1,29,-1
 281 256 l 1,30,-1
 281 320 l 1,31,-1
 249 320 l 1,32,-1
 249 384 l 1,33,-1
 217 384 l 1,34,-1
 217 448 l 1,35,-1
 185 448 l 1,36,-1
 185 512 l 1,37,-1
 153 512 l 1,38,-1
 153 0 l 1,39,-1
 57 0 l 1,0,-1
345 672 m 1,40,-1
 345 704 l 1,41,-1
 313 704 l 1,42,-1
 313 736 l 1,43,-1
 281 736 l 1,44,-1
 281 768 l 1,45,-1
 217 768 l 1,46,-1
 217 736 l 1,47,-1
 185 736 l 1,48,-1
 185 704 l 1,49,-1
 153 704 l 1,50,-1
 153 768 l 1,51,-1
 185 768 l 1,52,-1
 185 800 l 1,53,-1
 217 800 l 1,54,-1
 217 832 l 1,55,-1
 313 832 l 1,56,-1
 313 800 l 1,57,-1
 345 800 l 1,58,-1
 345 768 l 1,59,-1
 377 768 l 1,60,-1
 377 736 l 1,61,-1
 441 736 l 1,62,-1
 441 768 l 1,63,-1
 473 768 l 1,64,-1
 473 800 l 1,65,-1
 505 800 l 1,66,-1
 505 736 l 1,67,-1
 473 736 l 1,68,-1
 473 704 l 1,69,-1
 441 704 l 1,70,-1
 441 672 l 1,71,-1
 345 672 l 1,40,-1
EndSplineSet
Validated: 1
EndChar

StartChar: Ograve
Encoding: 210 210 146
Width: 695
Flags: W
LayerCount: 2
Fore
SplineSet
395 96 m 1,0,-1
 395 128 l 1,1,-1
 459 128 l 1,2,-1
 459 160 l 1,3,-1
 491 160 l 1,4,-1
 491 192 l 1,5,-1
 523 192 l 1,6,-1
 523 256 l 1,7,-1
 555 256 l 1,8,-1
 555 384 l 1,9,-1
 523 384 l 1,10,-1
 523 448 l 1,11,-1
 491 448 l 1,12,-1
 491 480 l 1,13,-1
 459 480 l 1,14,-1
 459 512 l 1,15,-1
 395 512 l 1,16,-1
 395 544 l 1,17,-1
 299 544 l 1,18,-1
 299 512 l 1,19,-1
 235 512 l 1,20,-1
 235 480 l 1,21,-1
 203 480 l 1,22,-1
 203 448 l 1,23,-1
 171 448 l 1,24,-1
 171 384 l 1,25,-1
 139 384 l 1,26,-1
 139 256 l 1,27,-1
 171 256 l 1,28,-1
 171 192 l 1,29,-1
 203 192 l 1,30,-1
 203 160 l 1,31,-1
 235 160 l 1,32,-1
 235 128 l 1,33,-1
 299 128 l 1,34,-1
 299 96 l 1,35,-1
 395 96 l 1,0,-1
267 0 m 1,36,-1
 267 32 l 1,37,-1
 171 32 l 1,38,-1
 171 64 l 1,39,-1
 139 64 l 1,40,-1
 139 96 l 1,41,-1
 107 96 l 1,42,-1
 107 128 l 1,43,-1
 75 128 l 1,44,-1
 75 192 l 1,45,-1
 43 192 l 1,46,-1
 43 448 l 1,47,-1
 75 448 l 1,48,-1
 75 512 l 1,49,-1
 107 512 l 1,50,-1
 107 544 l 1,51,-1
 139 544 l 1,52,-1
 139 576 l 1,53,-1
 171 576 l 1,54,-1
 171 608 l 1,55,-1
 267 608 l 1,56,-1
 267 640 l 1,57,-1
 427 640 l 1,58,-1
 427 608 l 1,59,-1
 523 608 l 1,60,-1
 523 576 l 1,61,-1
 555 576 l 1,62,-1
 555 544 l 1,63,-1
 587 544 l 1,64,-1
 587 512 l 1,65,-1
 619 512 l 1,66,-1
 619 448 l 1,67,-1
 651 448 l 1,68,-1
 651 192 l 1,69,-1
 619 192 l 1,70,-1
 619 128 l 1,71,-1
 587 128 l 1,72,-1
 587 96 l 1,73,-1
 555 96 l 1,74,-1
 555 64 l 1,75,-1
 523 64 l 1,76,-1
 523 32 l 1,77,-1
 427 32 l 1,78,-1
 427 0 l 1,79,-1
 267 0 l 1,36,-1
299 704 m 1,80,-1
 299 736 l 1,81,-1
 267 736 l 1,82,-1
 267 768 l 1,83,-1
 235 768 l 1,84,-1
 235 800 l 1,85,-1
 331 800 l 1,86,-1
 331 768 l 1,87,-1
 363 768 l 1,88,-1
 363 736 l 1,89,-1
 395 736 l 1,90,-1
 395 704 l 1,91,-1
 299 704 l 1,80,-1
EndSplineSet
Validated: 1
EndChar

StartChar: Oacute
Encoding: 211 211 147
Width: 696
Flags: W
LayerCount: 2
Fore
SplineSet
395 96 m 1,0,-1
 395 128 l 1,1,-1
 459 128 l 1,2,-1
 459 160 l 1,3,-1
 491 160 l 1,4,-1
 491 192 l 1,5,-1
 523 192 l 1,6,-1
 523 256 l 1,7,-1
 555 256 l 1,8,-1
 555 384 l 1,9,-1
 523 384 l 1,10,-1
 523 448 l 1,11,-1
 491 448 l 1,12,-1
 491 480 l 1,13,-1
 459 480 l 1,14,-1
 459 512 l 1,15,-1
 395 512 l 1,16,-1
 395 544 l 1,17,-1
 299 544 l 1,18,-1
 299 512 l 1,19,-1
 235 512 l 1,20,-1
 235 480 l 1,21,-1
 203 480 l 1,22,-1
 203 448 l 1,23,-1
 171 448 l 1,24,-1
 171 384 l 1,25,-1
 139 384 l 1,26,-1
 139 256 l 1,27,-1
 171 256 l 1,28,-1
 171 192 l 1,29,-1
 203 192 l 1,30,-1
 203 160 l 1,31,-1
 235 160 l 1,32,-1
 235 128 l 1,33,-1
 299 128 l 1,34,-1
 299 96 l 1,35,-1
 395 96 l 1,0,-1
267 0 m 1,36,-1
 267 32 l 1,37,-1
 171 32 l 1,38,-1
 171 64 l 1,39,-1
 139 64 l 1,40,-1
 139 96 l 1,41,-1
 107 96 l 1,42,-1
 107 128 l 1,43,-1
 75 128 l 1,44,-1
 75 192 l 1,45,-1
 43 192 l 1,46,-1
 43 448 l 1,47,-1
 75 448 l 1,48,-1
 75 512 l 1,49,-1
 107 512 l 1,50,-1
 107 544 l 1,51,-1
 139 544 l 1,52,-1
 139 576 l 1,53,-1
 171 576 l 1,54,-1
 171 608 l 1,55,-1
 267 608 l 1,56,-1
 267 640 l 1,57,-1
 427 640 l 1,58,-1
 427 608 l 1,59,-1
 523 608 l 1,60,-1
 523 576 l 1,61,-1
 555 576 l 1,62,-1
 555 544 l 1,63,-1
 587 544 l 1,64,-1
 587 512 l 1,65,-1
 619 512 l 1,66,-1
 619 448 l 1,67,-1
 651 448 l 1,68,-1
 651 192 l 1,69,-1
 619 192 l 1,70,-1
 619 128 l 1,71,-1
 587 128 l 1,72,-1
 587 96 l 1,73,-1
 555 96 l 1,74,-1
 555 64 l 1,75,-1
 523 64 l 1,76,-1
 523 32 l 1,77,-1
 427 32 l 1,78,-1
 427 0 l 1,79,-1
 267 0 l 1,36,-1
299 704 m 1,80,-1
 299 736 l 1,81,-1
 331 736 l 1,82,-1
 331 768 l 1,83,-1
 363 768 l 1,84,-1
 363 800 l 1,85,-1
 459 800 l 1,86,-1
 459 768 l 1,87,-1
 427 768 l 1,88,-1
 427 736 l 1,89,-1
 395 736 l 1,90,-1
 395 704 l 1,91,-1
 299 704 l 1,80,-1
EndSplineSet
Validated: 1
EndChar

StartChar: Ocircumflex
Encoding: 212 212 148
Width: 697
Flags: W
LayerCount: 2
Fore
SplineSet
396 96 m 1,0,-1
 396 128 l 1,1,-1
 460 128 l 1,2,-1
 460 160 l 1,3,-1
 492 160 l 1,4,-1
 492 192 l 1,5,-1
 524 192 l 1,6,-1
 524 256 l 1,7,-1
 556 256 l 1,8,-1
 556 384 l 1,9,-1
 524 384 l 1,10,-1
 524 448 l 1,11,-1
 492 448 l 1,12,-1
 492 480 l 1,13,-1
 460 480 l 1,14,-1
 460 512 l 1,15,-1
 396 512 l 1,16,-1
 396 544 l 1,17,-1
 300 544 l 1,18,-1
 300 512 l 1,19,-1
 236 512 l 1,20,-1
 236 480 l 1,21,-1
 204 480 l 1,22,-1
 204 448 l 1,23,-1
 172 448 l 1,24,-1
 172 384 l 1,25,-1
 140 384 l 1,26,-1
 140 256 l 1,27,-1
 172 256 l 1,28,-1
 172 192 l 1,29,-1
 204 192 l 1,30,-1
 204 160 l 1,31,-1
 236 160 l 1,32,-1
 236 128 l 1,33,-1
 300 128 l 1,34,-1
 300 96 l 1,35,-1
 396 96 l 1,0,-1
268 0 m 1,36,-1
 268 32 l 1,37,-1
 172 32 l 1,38,-1
 172 64 l 1,39,-1
 140 64 l 1,40,-1
 140 96 l 1,41,-1
 108 96 l 1,42,-1
 108 128 l 1,43,-1
 76 128 l 1,44,-1
 76 192 l 1,45,-1
 44 192 l 1,46,-1
 44 448 l 1,47,-1
 76 448 l 1,48,-1
 76 512 l 1,49,-1
 108 512 l 1,50,-1
 108 544 l 1,51,-1
 140 544 l 1,52,-1
 140 576 l 1,53,-1
 172 576 l 1,54,-1
 172 608 l 1,55,-1
 268 608 l 1,56,-1
 268 640 l 1,57,-1
 428 640 l 1,58,-1
 428 608 l 1,59,-1
 524 608 l 1,60,-1
 524 576 l 1,61,-1
 556 576 l 1,62,-1
 556 544 l 1,63,-1
 588 544 l 1,64,-1
 588 512 l 1,65,-1
 620 512 l 1,66,-1
 620 448 l 1,67,-1
 652 448 l 1,68,-1
 652 192 l 1,69,-1
 620 192 l 1,70,-1
 620 128 l 1,71,-1
 588 128 l 1,72,-1
 588 96 l 1,73,-1
 556 96 l 1,74,-1
 556 64 l 1,75,-1
 524 64 l 1,76,-1
 524 32 l 1,77,-1
 428 32 l 1,78,-1
 428 0 l 1,79,-1
 268 0 l 1,36,-1
172 640 m 1,80,-1
 172 672 l 1,81,-1
 204 672 l 1,82,-1
 204 704 l 1,83,-1
 236 704 l 1,84,-1
 236 736 l 1,85,-1
 268 736 l 1,86,-1
 268 768 l 1,87,-1
 300 768 l 1,88,-1
 300 800 l 1,89,-1
 396 800 l 1,90,-1
 396 768 l 1,91,-1
 428 768 l 1,92,-1
 428 736 l 1,93,-1
 460 736 l 1,94,-1
 460 704 l 1,95,-1
 492 704 l 1,96,-1
 492 672 l 1,97,-1
 524 672 l 1,98,-1
 524 640 l 1,99,-1
 460 640 l 1,100,-1
 460 672 l 1,101,-1
 396 672 l 1,102,-1
 396 704 l 1,103,-1
 364 704 l 1,104,-1
 364 736 l 1,105,-1
 332 736 l 1,106,-1
 332 704 l 1,107,-1
 300 704 l 1,108,-1
 300 672 l 1,109,-1
 236 672 l 1,110,-1
 236 640 l 1,111,-1
 172 640 l 1,80,-1
EndSplineSet
Validated: 1
EndChar

StartChar: Otilde
Encoding: 213 213 149
Width: 697
Flags: W
LayerCount: 2
Fore
SplineSet
396 96 m 1,0,-1
 396 128 l 1,1,-1
 460 128 l 1,2,-1
 460 160 l 1,3,-1
 492 160 l 1,4,-1
 492 192 l 1,5,-1
 524 192 l 1,6,-1
 524 256 l 1,7,-1
 556 256 l 1,8,-1
 556 384 l 1,9,-1
 524 384 l 1,10,-1
 524 448 l 1,11,-1
 492 448 l 1,12,-1
 492 480 l 1,13,-1
 460 480 l 1,14,-1
 460 512 l 1,15,-1
 396 512 l 1,16,-1
 396 544 l 1,17,-1
 300 544 l 1,18,-1
 300 512 l 1,19,-1
 236 512 l 1,20,-1
 236 480 l 1,21,-1
 204 480 l 1,22,-1
 204 448 l 1,23,-1
 172 448 l 1,24,-1
 172 384 l 1,25,-1
 140 384 l 1,26,-1
 140 256 l 1,27,-1
 172 256 l 1,28,-1
 172 192 l 1,29,-1
 204 192 l 1,30,-1
 204 160 l 1,31,-1
 236 160 l 1,32,-1
 236 128 l 1,33,-1
 300 128 l 1,34,-1
 300 96 l 1,35,-1
 396 96 l 1,0,-1
268 0 m 1,36,-1
 268 32 l 1,37,-1
 172 32 l 1,38,-1
 172 64 l 1,39,-1
 140 64 l 1,40,-1
 140 96 l 1,41,-1
 108 96 l 1,42,-1
 108 128 l 1,43,-1
 76 128 l 1,44,-1
 76 192 l 1,45,-1
 44 192 l 1,46,-1
 44 448 l 1,47,-1
 76 448 l 1,48,-1
 76 512 l 1,49,-1
 108 512 l 1,50,-1
 108 544 l 1,51,-1
 140 544 l 1,52,-1
 140 576 l 1,53,-1
 172 576 l 1,54,-1
 172 608 l 1,55,-1
 268 608 l 1,56,-1
 268 640 l 1,57,-1
 428 640 l 1,58,-1
 428 608 l 1,59,-1
 524 608 l 1,60,-1
 524 576 l 1,61,-1
 556 576 l 1,62,-1
 556 544 l 1,63,-1
 588 544 l 1,64,-1
 588 512 l 1,65,-1
 620 512 l 1,66,-1
 620 448 l 1,67,-1
 652 448 l 1,68,-1
 652 192 l 1,69,-1
 620 192 l 1,70,-1
 620 128 l 1,71,-1
 588 128 l 1,72,-1
 588 96 l 1,73,-1
 556 96 l 1,74,-1
 556 64 l 1,75,-1
 524 64 l 1,76,-1
 524 32 l 1,77,-1
 428 32 l 1,78,-1
 428 0 l 1,79,-1
 268 0 l 1,36,-1
364 672 m 1,80,-1
 364 704 l 1,81,-1
 332 704 l 1,82,-1
 332 736 l 1,83,-1
 300 736 l 1,84,-1
 300 768 l 1,85,-1
 236 768 l 1,86,-1
 236 736 l 1,87,-1
 204 736 l 1,88,-1
 204 704 l 1,89,-1
 172 704 l 1,90,-1
 172 768 l 1,91,-1
 204 768 l 1,92,-1
 204 800 l 1,93,-1
 236 800 l 1,94,-1
 236 832 l 1,95,-1
 332 832 l 1,96,-1
 332 800 l 1,97,-1
 364 800 l 1,98,-1
 364 768 l 1,99,-1
 396 768 l 1,100,-1
 396 736 l 1,101,-1
 460 736 l 1,102,-1
 460 768 l 1,103,-1
 492 768 l 1,104,-1
 492 800 l 1,105,-1
 524 800 l 1,106,-1
 524 736 l 1,107,-1
 492 736 l 1,108,-1
 492 704 l 1,109,-1
 460 704 l 1,110,-1
 460 672 l 1,111,-1
 364 672 l 1,80,-1
EndSplineSet
Validated: 1
EndChar

StartChar: Odieresis
Encoding: 214 214 150
Width: 696
Flags: W
LayerCount: 2
Fore
SplineSet
395 96 m 1,0,-1
 395 128 l 1,1,-1
 459 128 l 1,2,-1
 459 160 l 1,3,-1
 491 160 l 1,4,-1
 491 192 l 1,5,-1
 523 192 l 1,6,-1
 523 256 l 1,7,-1
 555 256 l 1,8,-1
 555 384 l 1,9,-1
 523 384 l 1,10,-1
 523 448 l 1,11,-1
 491 448 l 1,12,-1
 491 480 l 1,13,-1
 459 480 l 1,14,-1
 459 512 l 1,15,-1
 395 512 l 1,16,-1
 395 544 l 1,17,-1
 299 544 l 1,18,-1
 299 512 l 1,19,-1
 235 512 l 1,20,-1
 235 480 l 1,21,-1
 203 480 l 1,22,-1
 203 448 l 1,23,-1
 171 448 l 1,24,-1
 171 384 l 1,25,-1
 139 384 l 1,26,-1
 139 256 l 1,27,-1
 171 256 l 1,28,-1
 171 192 l 1,29,-1
 203 192 l 1,30,-1
 203 160 l 1,31,-1
 235 160 l 1,32,-1
 235 128 l 1,33,-1
 299 128 l 1,34,-1
 299 96 l 1,35,-1
 395 96 l 1,0,-1
267 0 m 1,36,-1
 267 32 l 1,37,-1
 171 32 l 1,38,-1
 171 64 l 1,39,-1
 139 64 l 1,40,-1
 139 96 l 1,41,-1
 107 96 l 1,42,-1
 107 128 l 1,43,-1
 75 128 l 1,44,-1
 75 192 l 1,45,-1
 43 192 l 1,46,-1
 43 448 l 1,47,-1
 75 448 l 1,48,-1
 75 512 l 1,49,-1
 107 512 l 1,50,-1
 107 544 l 1,51,-1
 139 544 l 1,52,-1
 139 576 l 1,53,-1
 171 576 l 1,54,-1
 171 608 l 1,55,-1
 267 608 l 1,56,-1
 267 640 l 1,57,-1
 427 640 l 1,58,-1
 427 608 l 1,59,-1
 523 608 l 1,60,-1
 523 576 l 1,61,-1
 555 576 l 1,62,-1
 555 544 l 1,63,-1
 587 544 l 1,64,-1
 587 512 l 1,65,-1
 619 512 l 1,66,-1
 619 448 l 1,67,-1
 651 448 l 1,68,-1
 651 192 l 1,69,-1
 619 192 l 1,70,-1
 619 128 l 1,71,-1
 587 128 l 1,72,-1
 587 96 l 1,73,-1
 555 96 l 1,74,-1
 555 64 l 1,75,-1
 523 64 l 1,76,-1
 523 32 l 1,77,-1
 427 32 l 1,78,-1
 427 0 l 1,79,-1
 267 0 l 1,36,-1
203 704 m 1,80,-1
 203 800 l 1,81,-1
 299 800 l 1,82,-1
 299 704 l 1,83,-1
 203 704 l 1,80,-1
395 704 m 1,84,-1
 395 800 l 1,85,-1
 491 800 l 1,86,-1
 491 704 l 1,87,-1
 395 704 l 1,84,-1
EndSplineSet
Validated: 1
EndChar

StartChar: multiply
Encoding: 215 215 151
Width: 480
Flags: W
LayerCount: 2
Fore
SplineSet
48 64 m 1,0,-1
 48 96 l 1,1,-1
 80 96 l 1,2,-1
 80 128 l 1,3,-1
 112 128 l 1,4,-1
 112 160 l 1,5,-1
 144 160 l 1,6,-1
 144 192 l 1,7,-1
 176 192 l 1,8,-1
 176 224 l 1,9,-1
 208 224 l 1,10,-1
 208 256 l 1,11,-1
 176 256 l 1,12,-1
 176 288 l 1,13,-1
 144 288 l 1,14,-1
 144 320 l 1,15,-1
 112 320 l 1,16,-1
 112 352 l 1,17,-1
 80 352 l 1,18,-1
 80 384 l 1,19,-1
 48 384 l 1,20,-1
 48 416 l 1,21,-1
 112 416 l 1,22,-1
 112 384 l 1,23,-1
 144 384 l 1,24,-1
 144 352 l 1,25,-1
 176 352 l 1,26,-1
 176 320 l 1,27,-1
 208 320 l 1,28,-1
 208 288 l 1,29,-1
 272 288 l 1,30,-1
 272 320 l 1,31,-1
 304 320 l 1,32,-1
 304 352 l 1,33,-1
 336 352 l 1,34,-1
 336 384 l 1,35,-1
 368 384 l 1,36,-1
 368 416 l 1,37,-1
 432 416 l 1,38,-1
 432 384 l 1,39,-1
 400 384 l 1,40,-1
 400 352 l 1,41,-1
 368 352 l 1,42,-1
 368 320 l 1,43,-1
 336 320 l 1,44,-1
 336 288 l 1,45,-1
 304 288 l 1,46,-1
 304 256 l 1,47,-1
 272 256 l 1,48,-1
 272 224 l 1,49,-1
 304 224 l 1,50,-1
 304 192 l 1,51,-1
 336 192 l 1,52,-1
 336 160 l 1,53,-1
 368 160 l 1,54,-1
 368 128 l 1,55,-1
 400 128 l 1,56,-1
 400 96 l 1,57,-1
 432 96 l 1,58,-1
 432 64 l 1,59,-1
 368 64 l 1,60,-1
 368 96 l 1,61,-1
 336 96 l 1,62,-1
 336 128 l 1,63,-1
 304 128 l 1,64,-1
 304 160 l 1,65,-1
 272 160 l 1,66,-1
 272 192 l 1,67,-1
 208 192 l 1,68,-1
 208 160 l 1,69,-1
 176 160 l 1,70,-1
 176 128 l 1,71,-1
 144 128 l 1,72,-1
 144 96 l 1,73,-1
 112 96 l 1,74,-1
 112 64 l 1,75,-1
 48 64 l 1,0,-1
EndSplineSet
Validated: 1
EndChar

StartChar: Oslash
Encoding: 216 216 152
Width: 751
Flags: W
LayerCount: 2
Fore
SplineSet
404 96 m 1,0,-1
 404 128 l 1,1,-1
 468 128 l 1,2,-1
 468 160 l 1,3,-1
 500 160 l 1,4,-1
 500 192 l 1,5,-1
 532 192 l 1,6,-1
 532 256 l 1,7,-1
 564 256 l 1,8,-1
 564 384 l 1,9,-1
 532 384 l 1,10,-1
 532 416 l 1,11,-1
 500 416 l 1,12,-1
 500 384 l 1,13,-1
 468 384 l 1,14,-1
 468 352 l 1,15,-1
 436 352 l 1,16,-1
 436 320 l 1,17,-1
 404 320 l 1,18,-1
 404 288 l 1,19,-1
 372 288 l 1,20,-1
 372 256 l 1,21,-1
 340 256 l 1,22,-1
 340 224 l 1,23,-1
 308 224 l 1,24,-1
 308 192 l 1,25,-1
 276 192 l 1,26,-1
 276 160 l 1,27,-1
 244 160 l 1,28,-1
 244 128 l 1,29,-1
 308 128 l 1,30,-1
 308 96 l 1,31,-1
 404 96 l 1,0,-1
212 192 m 1,32,-1
 212 224 l 1,33,-1
 244 224 l 1,34,-1
 244 256 l 1,35,-1
 276 256 l 1,36,-1
 276 288 l 1,37,-1
 308 288 l 1,38,-1
 308 320 l 1,39,-1
 340 320 l 1,40,-1
 340 352 l 1,41,-1
 372 352 l 1,42,-1
 372 384 l 1,43,-1
 404 384 l 1,44,-1
 404 416 l 1,45,-1
 436 416 l 1,46,-1
 436 448 l 1,47,-1
 468 448 l 1,48,-1
 468 512 l 1,49,-1
 404 512 l 1,50,-1
 404 544 l 1,51,-1
 308 544 l 1,52,-1
 308 512 l 1,53,-1
 244 512 l 1,54,-1
 244 480 l 1,55,-1
 212 480 l 1,56,-1
 212 448 l 1,57,-1
 180 448 l 1,58,-1
 180 384 l 1,59,-1
 148 384 l 1,60,-1
 148 256 l 1,61,-1
 180 256 l 1,62,-1
 180 192 l 1,63,-1
 212 192 l 1,32,-1
52 0 m 1,64,-1
 52 64 l 1,65,-1
 84 64 l 1,66,-1
 84 96 l 1,67,-1
 116 96 l 1,68,-1
 116 128 l 1,69,-1
 84 128 l 1,70,-1
 84 192 l 1,71,-1
 52 192 l 1,72,-1
 52 448 l 1,73,-1
 84 448 l 1,74,-1
 84 512 l 1,75,-1
 116 512 l 1,76,-1
 116 544 l 1,77,-1
 148 544 l 1,78,-1
 148 576 l 1,79,-1
 180 576 l 1,80,-1
 180 608 l 1,81,-1
 276 608 l 1,82,-1
 276 640 l 1,83,-1
 436 640 l 1,84,-1
 436 608 l 1,85,-1
 532 608 l 1,86,-1
 532 576 l 1,87,-1
 596 576 l 1,88,-1
 596 608 l 1,89,-1
 628 608 l 1,90,-1
 628 640 l 1,91,-1
 692 640 l 1,92,-1
 692 576 l 1,93,-1
 660 576 l 1,94,-1
 660 544 l 1,95,-1
 628 544 l 1,96,-1
 628 448 l 1,97,-1
 660 448 l 1,98,-1
 660 192 l 1,99,-1
 628 192 l 1,100,-1
 628 128 l 1,101,-1
 596 128 l 1,102,-1
 596 96 l 1,103,-1
 564 96 l 1,104,-1
 564 64 l 1,105,-1
 532 64 l 1,106,-1
 532 32 l 1,107,-1
 436 32 l 1,108,-1
 436 0 l 1,109,-1
 276 0 l 1,110,-1
 276 32 l 1,111,-1
 180 32 l 1,112,-1
 180 64 l 1,113,-1
 148 64 l 1,114,-1
 148 32 l 1,115,-1
 116 32 l 1,116,-1
 116 0 l 1,117,-1
 52 0 l 1,64,-1
EndSplineSet
Validated: 1
EndChar

StartChar: Ugrave
Encoding: 217 217 153
Width: 594
Flags: W
LayerCount: 2
Fore
SplineSet
183 0 m 1,0,-1
 183 32 l 1,1,-1
 119 32 l 1,2,-1
 119 64 l 1,3,-1
 87 64 l 1,4,-1
 87 128 l 1,5,-1
 55 128 l 1,6,-1
 55 640 l 1,7,-1
 151 640 l 1,8,-1
 151 192 l 1,9,-1
 183 192 l 1,10,-1
 183 128 l 1,11,-1
 215 128 l 1,12,-1
 215 96 l 1,13,-1
 375 96 l 1,14,-1
 375 128 l 1,15,-1
 407 128 l 1,16,-1
 407 192 l 1,17,-1
 439 192 l 1,18,-1
 439 640 l 1,19,-1
 535 640 l 1,20,-1
 535 128 l 1,21,-1
 503 128 l 1,22,-1
 503 64 l 1,23,-1
 471 64 l 1,24,-1
 471 32 l 1,25,-1
 407 32 l 1,26,-1
 407 0 l 1,27,-1
 183 0 l 1,0,-1
247 704 m 1,28,-1
 247 736 l 1,29,-1
 215 736 l 1,30,-1
 215 768 l 1,31,-1
 183 768 l 1,32,-1
 183 800 l 1,33,-1
 279 800 l 1,34,-1
 279 768 l 1,35,-1
 311 768 l 1,36,-1
 311 736 l 1,37,-1
 343 736 l 1,38,-1
 343 704 l 1,39,-1
 247 704 l 1,28,-1
EndSplineSet
Validated: 1
EndChar

StartChar: Uacute
Encoding: 218 218 154
Width: 594
Flags: W
LayerCount: 2
Fore
SplineSet
183 0 m 1,0,-1
 183 32 l 1,1,-1
 119 32 l 1,2,-1
 119 64 l 1,3,-1
 87 64 l 1,4,-1
 87 128 l 1,5,-1
 55 128 l 1,6,-1
 55 640 l 1,7,-1
 151 640 l 1,8,-1
 151 192 l 1,9,-1
 183 192 l 1,10,-1
 183 128 l 1,11,-1
 215 128 l 1,12,-1
 215 96 l 1,13,-1
 375 96 l 1,14,-1
 375 128 l 1,15,-1
 407 128 l 1,16,-1
 407 192 l 1,17,-1
 439 192 l 1,18,-1
 439 640 l 1,19,-1
 535 640 l 1,20,-1
 535 128 l 1,21,-1
 503 128 l 1,22,-1
 503 64 l 1,23,-1
 471 64 l 1,24,-1
 471 32 l 1,25,-1
 407 32 l 1,26,-1
 407 0 l 1,27,-1
 183 0 l 1,0,-1
247 704 m 1,28,-1
 247 736 l 1,29,-1
 279 736 l 1,30,-1
 279 768 l 1,31,-1
 311 768 l 1,32,-1
 311 800 l 1,33,-1
 407 800 l 1,34,-1
 407 768 l 1,35,-1
 375 768 l 1,36,-1
 375 736 l 1,37,-1
 343 736 l 1,38,-1
 343 704 l 1,39,-1
 247 704 l 1,28,-1
EndSplineSet
Validated: 1
EndChar

StartChar: Ucircumflex
Encoding: 219 219 155
Width: 594
Flags: W
LayerCount: 2
Fore
SplineSet
183 0 m 1,0,-1
 183 32 l 1,1,-1
 119 32 l 1,2,-1
 119 64 l 1,3,-1
 87 64 l 1,4,-1
 87 128 l 1,5,-1
 55 128 l 1,6,-1
 55 640 l 1,7,-1
 151 640 l 1,8,-1
 151 192 l 1,9,-1
 183 192 l 1,10,-1
 183 128 l 1,11,-1
 215 128 l 1,12,-1
 215 96 l 1,13,-1
 375 96 l 1,14,-1
 375 128 l 1,15,-1
 407 128 l 1,16,-1
 407 192 l 1,17,-1
 439 192 l 1,18,-1
 439 640 l 1,19,-1
 535 640 l 1,20,-1
 535 128 l 1,21,-1
 503 128 l 1,22,-1
 503 64 l 1,23,-1
 471 64 l 1,24,-1
 471 32 l 1,25,-1
 407 32 l 1,26,-1
 407 0 l 1,27,-1
 183 0 l 1,0,-1
119 672 m 1,28,-1
 119 704 l 1,29,-1
 151 704 l 1,30,-1
 151 736 l 1,31,-1
 183 736 l 1,32,-1
 183 768 l 1,33,-1
 215 768 l 1,34,-1
 215 800 l 1,35,-1
 247 800 l 1,36,-1
 247 832 l 1,37,-1
 343 832 l 1,38,-1
 343 800 l 1,39,-1
 375 800 l 1,40,-1
 375 768 l 1,41,-1
 407 768 l 1,42,-1
 407 736 l 1,43,-1
 439 736 l 1,44,-1
 439 704 l 1,45,-1
 471 704 l 1,46,-1
 471 672 l 1,47,-1
 407 672 l 1,48,-1
 407 704 l 1,49,-1
 343 704 l 1,50,-1
 343 736 l 1,51,-1
 311 736 l 1,52,-1
 311 768 l 1,53,-1
 279 768 l 1,54,-1
 279 736 l 1,55,-1
 247 736 l 1,56,-1
 247 704 l 1,57,-1
 183 704 l 1,58,-1
 183 672 l 1,59,-1
 119 672 l 1,28,-1
EndSplineSet
Validated: 1
EndChar

StartChar: Udieresis
Encoding: 220 220 156
Width: 594
Flags: W
LayerCount: 2
Fore
SplineSet
183 0 m 1,0,-1
 183 32 l 1,1,-1
 119 32 l 1,2,-1
 119 64 l 1,3,-1
 87 64 l 1,4,-1
 87 128 l 1,5,-1
 55 128 l 1,6,-1
 55 640 l 1,7,-1
 151 640 l 1,8,-1
 151 192 l 1,9,-1
 183 192 l 1,10,-1
 183 128 l 1,11,-1
 215 128 l 1,12,-1
 215 96 l 1,13,-1
 375 96 l 1,14,-1
 375 128 l 1,15,-1
 407 128 l 1,16,-1
 407 192 l 1,17,-1
 439 192 l 1,18,-1
 439 640 l 1,19,-1
 535 640 l 1,20,-1
 535 128 l 1,21,-1
 503 128 l 1,22,-1
 503 64 l 1,23,-1
 471 64 l 1,24,-1
 471 32 l 1,25,-1
 407 32 l 1,26,-1
 407 0 l 1,27,-1
 183 0 l 1,0,-1
EndSplineSet
Validated: 1
EndChar

StartChar: Yacute
Encoding: 221 221 157
Width: 600
Flags: W
LayerCount: 2
Fore
SplineSet
221 0 m 1,0,-1
 221 224 l 1,1,-1
 189 224 l 1,2,-1
 189 288 l 1,3,-1
 157 288 l 1,4,-1
 157 352 l 1,5,-1
 125 352 l 1,6,-1
 125 416 l 1,7,-1
 93 416 l 1,8,-1
 93 480 l 1,9,-1
 61 480 l 1,10,-1
 61 544 l 1,11,-1
 29 544 l 1,12,-1
 29 608 l 1,13,-1
 -3 608 l 1,14,-1
 -3 640 l 1,15,-1
 125 640 l 1,16,-1
 125 576 l 1,17,-1
 157 576 l 1,18,-1
 157 512 l 1,19,-1
 189 512 l 1,20,-1
 189 448 l 1,21,-1
 221 448 l 1,22,-1
 221 384 l 1,23,-1
 253 384 l 1,24,-1
 253 320 l 1,25,-1
 285 320 l 1,26,-1
 285 384 l 1,27,-1
 317 384 l 1,28,-1
 317 448 l 1,29,-1
 349 448 l 1,30,-1
 349 512 l 1,31,-1
 381 512 l 1,32,-1
 381 576 l 1,33,-1
 413 576 l 1,34,-1
 413 640 l 1,35,-1
 541 640 l 1,36,-1
 541 608 l 1,37,-1
 509 608 l 1,38,-1
 509 544 l 1,39,-1
 477 544 l 1,40,-1
 477 480 l 1,41,-1
 445 480 l 1,42,-1
 445 416 l 1,43,-1
 413 416 l 1,44,-1
 413 352 l 1,45,-1
 381 352 l 1,46,-1
 381 288 l 1,47,-1
 349 288 l 1,48,-1
 349 224 l 1,49,-1
 317 224 l 1,50,-1
 317 0 l 1,51,-1
 221 0 l 1,0,-1
221 704 m 1,52,-1
 221 736 l 1,53,-1
 253 736 l 1,54,-1
 253 768 l 1,55,-1
 285 768 l 1,56,-1
 285 800 l 1,57,-1
 381 800 l 1,58,-1
 381 768 l 1,59,-1
 349 768 l 1,60,-1
 349 736 l 1,61,-1
 317 736 l 1,62,-1
 317 704 l 1,63,-1
 221 704 l 1,52,-1
EndSplineSet
Validated: 1
EndChar

StartChar: Thorn
Encoding: 222 222 158
Width: 534
Flags: W
LayerCount: 2
Fore
SplineSet
377 224 m 1,0,-1
 377 256 l 1,1,-1
 409 256 l 1,2,-1
 409 352 l 1,3,-1
 377 352 l 1,4,-1
 377 384 l 1,5,-1
 153 384 l 1,6,-1
 153 224 l 1,7,-1
 377 224 l 1,0,-1
57 0 m 1,8,-1
 57 640 l 1,9,-1
 153 640 l 1,10,-1
 153 480 l 1,11,-1
 409 480 l 1,12,-1
 409 448 l 1,13,-1
 441 448 l 1,14,-1
 441 416 l 1,15,-1
 473 416 l 1,16,-1
 473 384 l 1,17,-1
 505 384 l 1,18,-1
 505 224 l 1,19,-1
 473 224 l 1,20,-1
 473 192 l 1,21,-1
 441 192 l 1,22,-1
 441 160 l 1,23,-1
 409 160 l 1,24,-1
 409 128 l 1,25,-1
 153 128 l 1,26,-1
 153 0 l 1,27,-1
 57 0 l 1,8,-1
EndSplineSet
Validated: 1
EndChar

StartChar: germandbls
Encoding: 223 223 159
Width: 468
Flags: W
LayerCount: 2
Fore
SplineSet
45 0 m 1,0,-1
 45 352 l 1,1,-1
 77 352 l 1,2,-1
 77 416 l 1,3,-1
 109 416 l 1,4,-1
 109 448 l 1,5,-1
 141 448 l 1,6,-1
 141 480 l 1,7,-1
 333 480 l 1,8,-1
 333 448 l 1,9,-1
 365 448 l 1,10,-1
 365 416 l 1,11,-1
 397 416 l 1,12,-1
 397 320 l 1,13,-1
 365 320 l 1,14,-1
 365 256 l 1,15,-1
 333 256 l 1,16,-1
 333 224 l 1,17,-1
 365 224 l 1,18,-1
 365 192 l 1,19,-1
 397 192 l 1,20,-1
 397 160 l 1,21,-1
 429 160 l 1,22,-1
 429 64 l 1,23,-1
 397 64 l 1,24,-1
 397 32 l 1,25,-1
 365 32 l 1,26,-1
 365 0 l 1,27,-1
 173 0 l 1,28,-1
 173 64 l 1,29,-1
 301 64 l 1,30,-1
 301 96 l 1,31,-1
 333 96 l 1,32,-1
 333 160 l 1,33,-1
 301 160 l 1,34,-1
 301 192 l 1,35,-1
 269 192 l 1,36,-1
 269 224 l 1,37,-1
 237 224 l 1,38,-1
 237 288 l 1,39,-1
 269 288 l 1,40,-1
 269 320 l 1,41,-1
 301 320 l 1,42,-1
 301 384 l 1,43,-1
 269 384 l 1,44,-1
 269 416 l 1,45,-1
 173 416 l 1,46,-1
 173 384 l 1,47,-1
 141 384 l 1,48,-1
 141 0 l 1,49,-1
 45 0 l 1,0,-1
EndSplineSet
Validated: 1
EndChar

StartChar: agrave
Encoding: 224 224 160
Width: 507
Flags: W
LayerCount: 2
Fore
SplineSet
298 96 m 1,0,-1
 298 128 l 1,1,-1
 330 128 l 1,2,-1
 330 160 l 1,3,-1
 362 160 l 1,4,-1
 362 320 l 1,5,-1
 330 320 l 1,6,-1
 330 352 l 1,7,-1
 298 352 l 1,8,-1
 298 384 l 1,9,-1
 170 384 l 1,10,-1
 170 352 l 1,11,-1
 138 352 l 1,12,-1
 138 128 l 1,13,-1
 170 128 l 1,14,-1
 170 96 l 1,15,-1
 298 96 l 1,0,-1
170 0 m 1,16,-1
 170 32 l 1,17,-1
 106 32 l 1,18,-1
 106 64 l 1,19,-1
 74 64 l 1,20,-1
 74 128 l 1,21,-1
 42 128 l 1,22,-1
 42 352 l 1,23,-1
 74 352 l 1,24,-1
 74 416 l 1,25,-1
 106 416 l 1,26,-1
 106 448 l 1,27,-1
 170 448 l 1,28,-1
 170 480 l 1,29,-1
 298 480 l 1,30,-1
 298 448 l 1,31,-1
 330 448 l 1,32,-1
 330 416 l 1,33,-1
 362 416 l 1,34,-1
 362 480 l 1,35,-1
 458 480 l 1,36,-1
 458 0 l 1,37,-1
 362 0 l 1,38,-1
 362 64 l 1,39,-1
 330 64 l 1,40,-1
 330 32 l 1,41,-1
 298 32 l 1,42,-1
 298 0 l 1,43,-1
 170 0 l 1,16,-1
202 544 m 1,44,-1
 202 576 l 1,45,-1
 170 576 l 1,46,-1
 170 608 l 1,47,-1
 138 608 l 1,48,-1
 138 640 l 1,49,-1
 234 640 l 1,50,-1
 234 608 l 1,51,-1
 266 608 l 1,52,-1
 266 576 l 1,53,-1
 298 576 l 1,54,-1
 298 544 l 1,55,-1
 202 544 l 1,44,-1
EndSplineSet
Validated: 1
EndChar

StartChar: aacute
Encoding: 225 225 161
Width: 507
Flags: W
LayerCount: 2
Fore
SplineSet
296 96 m 1,0,-1
 296 128 l 1,1,-1
 328 128 l 1,2,-1
 328 160 l 1,3,-1
 360 160 l 1,4,-1
 360 320 l 1,5,-1
 328 320 l 1,6,-1
 328 352 l 1,7,-1
 296 352 l 1,8,-1
 296 384 l 1,9,-1
 168 384 l 1,10,-1
 168 352 l 1,11,-1
 136 352 l 1,12,-1
 136 128 l 1,13,-1
 168 128 l 1,14,-1
 168 96 l 1,15,-1
 296 96 l 1,0,-1
168 0 m 1,16,-1
 168 32 l 1,17,-1
 104 32 l 1,18,-1
 104 64 l 1,19,-1
 72 64 l 1,20,-1
 72 128 l 1,21,-1
 40 128 l 1,22,-1
 40 352 l 1,23,-1
 72 352 l 1,24,-1
 72 416 l 1,25,-1
 104 416 l 1,26,-1
 104 448 l 1,27,-1
 168 448 l 1,28,-1
 168 480 l 1,29,-1
 296 480 l 1,30,-1
 296 448 l 1,31,-1
 328 448 l 1,32,-1
 328 416 l 1,33,-1
 360 416 l 1,34,-1
 360 480 l 1,35,-1
 456 480 l 1,36,-1
 456 0 l 1,37,-1
 360 0 l 1,38,-1
 360 64 l 1,39,-1
 328 64 l 1,40,-1
 328 32 l 1,41,-1
 296 32 l 1,42,-1
 296 0 l 1,43,-1
 168 0 l 1,16,-1
200 544 m 1,44,-1
 200 576 l 1,45,-1
 232 576 l 1,46,-1
 232 608 l 1,47,-1
 264 608 l 1,48,-1
 264 640 l 1,49,-1
 360 640 l 1,50,-1
 360 608 l 1,51,-1
 328 608 l 1,52,-1
 328 576 l 1,53,-1
 296 576 l 1,54,-1
 296 544 l 1,55,-1
 200 544 l 1,44,-1
EndSplineSet
Validated: 1
EndChar

StartChar: acircumflex
Encoding: 226 226 162
Width: 513
Flags: W
LayerCount: 2
Fore
SplineSet
300 96 m 1,0,-1
 300 128 l 1,1,-1
 332 128 l 1,2,-1
 332 160 l 1,3,-1
 364 160 l 1,4,-1
 364 320 l 1,5,-1
 332 320 l 1,6,-1
 332 352 l 1,7,-1
 300 352 l 1,8,-1
 300 384 l 1,9,-1
 172 384 l 1,10,-1
 172 352 l 1,11,-1
 140 352 l 1,12,-1
 140 128 l 1,13,-1
 172 128 l 1,14,-1
 172 96 l 1,15,-1
 300 96 l 1,0,-1
172 0 m 1,16,-1
 172 32 l 1,17,-1
 108 32 l 1,18,-1
 108 64 l 1,19,-1
 76 64 l 1,20,-1
 76 128 l 1,21,-1
 44 128 l 1,22,-1
 44 352 l 1,23,-1
 76 352 l 1,24,-1
 76 416 l 1,25,-1
 108 416 l 1,26,-1
 108 448 l 1,27,-1
 172 448 l 1,28,-1
 172 480 l 1,29,-1
 300 480 l 1,30,-1
 300 448 l 1,31,-1
 332 448 l 1,32,-1
 332 416 l 1,33,-1
 364 416 l 1,34,-1
 364 480 l 1,35,-1
 460 480 l 1,36,-1
 460 0 l 1,37,-1
 364 0 l 1,38,-1
 364 64 l 1,39,-1
 332 64 l 1,40,-1
 332 32 l 1,41,-1
 300 32 l 1,42,-1
 300 0 l 1,43,-1
 172 0 l 1,16,-1
108 512 m 1,44,-1
 108 544 l 1,45,-1
 140 544 l 1,46,-1
 140 576 l 1,47,-1
 172 576 l 1,48,-1
 172 608 l 1,49,-1
 204 608 l 1,50,-1
 204 640 l 1,51,-1
 332 640 l 1,52,-1
 332 608 l 1,53,-1
 364 608 l 1,54,-1
 364 576 l 1,55,-1
 396 576 l 1,56,-1
 396 544 l 1,57,-1
 428 544 l 1,58,-1
 428 512 l 1,59,-1
 364 512 l 1,60,-1
 364 544 l 1,61,-1
 300 544 l 1,62,-1
 300 576 l 1,63,-1
 236 576 l 1,64,-1
 236 544 l 1,65,-1
 172 544 l 1,66,-1
 172 512 l 1,67,-1
 108 512 l 1,44,-1
EndSplineSet
Validated: 1
EndChar

StartChar: atilde
Encoding: 227 227 163
Width: 518
Flags: W
LayerCount: 2
Fore
SplineSet
305 96 m 1,0,-1
 305 128 l 1,1,-1
 337 128 l 1,2,-1
 337 160 l 1,3,-1
 369 160 l 1,4,-1
 369 320 l 1,5,-1
 337 320 l 1,6,-1
 337 352 l 1,7,-1
 305 352 l 1,8,-1
 305 384 l 1,9,-1
 177 384 l 1,10,-1
 177 352 l 1,11,-1
 145 352 l 1,12,-1
 145 128 l 1,13,-1
 177 128 l 1,14,-1
 177 96 l 1,15,-1
 305 96 l 1,0,-1
177 0 m 1,16,-1
 177 32 l 1,17,-1
 113 32 l 1,18,-1
 113 64 l 1,19,-1
 81 64 l 1,20,-1
 81 128 l 1,21,-1
 49 128 l 1,22,-1
 49 352 l 1,23,-1
 81 352 l 1,24,-1
 81 416 l 1,25,-1
 113 416 l 1,26,-1
 113 448 l 1,27,-1
 177 448 l 1,28,-1
 177 480 l 1,29,-1
 305 480 l 1,30,-1
 305 448 l 1,31,-1
 337 448 l 1,32,-1
 337 416 l 1,33,-1
 369 416 l 1,34,-1
 369 480 l 1,35,-1
 465 480 l 1,36,-1
 465 0 l 1,37,-1
 369 0 l 1,38,-1
 369 64 l 1,39,-1
 337 64 l 1,40,-1
 337 32 l 1,41,-1
 305 32 l 1,42,-1
 305 0 l 1,43,-1
 177 0 l 1,16,-1
273 512 m 1,44,-1
 273 544 l 1,45,-1
 241 544 l 1,46,-1
 241 576 l 1,47,-1
 209 576 l 1,48,-1
 209 608 l 1,49,-1
 145 608 l 1,50,-1
 145 576 l 1,51,-1
 113 576 l 1,52,-1
 113 544 l 1,53,-1
 81 544 l 1,54,-1
 81 608 l 1,55,-1
 113 608 l 1,56,-1
 113 640 l 1,57,-1
 145 640 l 1,58,-1
 145 672 l 1,59,-1
 241 672 l 1,60,-1
 241 640 l 1,61,-1
 273 640 l 1,62,-1
 273 608 l 1,63,-1
 305 608 l 1,64,-1
 305 576 l 1,65,-1
 369 576 l 1,66,-1
 369 608 l 1,67,-1
 401 608 l 1,68,-1
 401 640 l 1,69,-1
 433 640 l 1,70,-1
 433 576 l 1,71,-1
 401 576 l 1,72,-1
 401 544 l 1,73,-1
 369 544 l 1,74,-1
 369 512 l 1,75,-1
 273 512 l 1,44,-1
EndSplineSet
Validated: 1
EndChar

StartChar: adieresis
Encoding: 228 228 164
Width: 511
Flags: W
LayerCount: 2
Fore
SplineSet
299 96 m 1,0,-1
 299 128 l 1,1,-1
 331 128 l 1,2,-1
 331 160 l 1,3,-1
 363 160 l 1,4,-1
 363 320 l 1,5,-1
 331 320 l 1,6,-1
 331 352 l 1,7,-1
 299 352 l 1,8,-1
 299 384 l 1,9,-1
 171 384 l 1,10,-1
 171 352 l 1,11,-1
 139 352 l 1,12,-1
 139 128 l 1,13,-1
 171 128 l 1,14,-1
 171 96 l 1,15,-1
 299 96 l 1,0,-1
171 0 m 1,16,-1
 171 32 l 1,17,-1
 107 32 l 1,18,-1
 107 64 l 1,19,-1
 75 64 l 1,20,-1
 75 128 l 1,21,-1
 43 128 l 1,22,-1
 43 352 l 1,23,-1
 75 352 l 1,24,-1
 75 416 l 1,25,-1
 107 416 l 1,26,-1
 107 448 l 1,27,-1
 171 448 l 1,28,-1
 171 480 l 1,29,-1
 299 480 l 1,30,-1
 299 448 l 1,31,-1
 331 448 l 1,32,-1
 331 416 l 1,33,-1
 363 416 l 1,34,-1
 363 480 l 1,35,-1
 459 480 l 1,36,-1
 459 0 l 1,37,-1
 363 0 l 1,38,-1
 363 64 l 1,39,-1
 331 64 l 1,40,-1
 331 32 l 1,41,-1
 299 32 l 1,42,-1
 299 0 l 1,43,-1
 171 0 l 1,16,-1
139 544 m 1,44,-1
 139 640 l 1,45,-1
 235 640 l 1,46,-1
 235 544 l 1,47,-1
 139 544 l 1,44,-1
299 544 m 1,48,-1
 299 640 l 1,49,-1
 395 640 l 1,50,-1
 395 544 l 1,51,-1
 299 544 l 1,48,-1
EndSplineSet
Validated: 1
EndChar

StartChar: aring
Encoding: 229 229 165
Width: 507
Flags: W
LayerCount: 2
Fore
SplineSet
297 96 m 1,0,-1
 297 128 l 1,1,-1
 329 128 l 1,2,-1
 329 160 l 1,3,-1
 361 160 l 1,4,-1
 361 320 l 1,5,-1
 329 320 l 1,6,-1
 329 352 l 1,7,-1
 297 352 l 1,8,-1
 297 384 l 1,9,-1
 169 384 l 1,10,-1
 169 352 l 1,11,-1
 137 352 l 1,12,-1
 137 128 l 1,13,-1
 169 128 l 1,14,-1
 169 96 l 1,15,-1
 297 96 l 1,0,-1
265 512 m 1,16,-1
 265 544 l 1,17,-1
 297 544 l 1,18,-1
 297 576 l 1,19,-1
 265 576 l 1,20,-1
 265 608 l 1,21,-1
 233 608 l 1,22,-1
 233 576 l 1,23,-1
 201 576 l 1,24,-1
 201 544 l 1,25,-1
 233 544 l 1,26,-1
 233 512 l 1,27,-1
 265 512 l 1,16,-1
169 0 m 1,28,-1
 169 32 l 1,29,-1
 105 32 l 1,30,-1
 105 64 l 1,31,-1
 73 64 l 1,32,-1
 73 128 l 1,33,-1
 41 128 l 1,34,-1
 41 352 l 1,35,-1
 73 352 l 1,36,-1
 73 416 l 1,37,-1
 105 416 l 1,38,-1
 105 448 l 1,39,-1
 169 448 l 1,40,-1
 169 480 l 1,41,-1
 201 480 l 1,42,-1
 201 512 l 1,43,-1
 169 512 l 1,44,-1
 169 608 l 1,45,-1
 201 608 l 1,46,-1
 201 640 l 1,47,-1
 297 640 l 1,48,-1
 297 608 l 1,49,-1
 329 608 l 1,50,-1
 329 512 l 1,51,-1
 297 512 l 1,52,-1
 297 448 l 1,53,-1
 329 448 l 1,54,-1
 329 416 l 1,55,-1
 361 416 l 1,56,-1
 361 480 l 1,57,-1
 457 480 l 1,58,-1
 457 0 l 1,59,-1
 361 0 l 1,60,-1
 361 64 l 1,61,-1
 329 64 l 1,62,-1
 329 32 l 1,63,-1
 297 32 l 1,64,-1
 297 0 l 1,65,-1
 169 0 l 1,28,-1
EndSplineSet
Validated: 1
EndChar

StartChar: ae
Encoding: 230 230 166
Width: 786
Flags: W
LayerCount: 2
Fore
SplineSet
296 96 m 1,0,-1
 296 128 l 1,1,-1
 328 128 l 1,2,-1
 328 224 l 1,3,-1
 168 224 l 1,4,-1
 168 192 l 1,5,-1
 136 192 l 1,6,-1
 136 128 l 1,7,-1
 168 128 l 1,8,-1
 168 96 l 1,9,-1
 296 96 l 1,0,-1
648 288 m 1,10,-1
 648 352 l 1,11,-1
 616 352 l 1,12,-1
 616 384 l 1,13,-1
 488 384 l 1,14,-1
 488 352 l 1,15,-1
 456 352 l 1,16,-1
 456 288 l 1,17,-1
 648 288 l 1,10,-1
168 0 m 1,18,-1
 168 32 l 1,19,-1
 104 32 l 1,20,-1
 104 64 l 1,21,-1
 72 64 l 1,22,-1
 72 128 l 1,23,-1
 40 128 l 1,24,-1
 40 224 l 1,25,-1
 72 224 l 1,26,-1
 72 256 l 1,27,-1
 104 256 l 1,28,-1
 104 288 l 1,29,-1
 328 288 l 1,30,-1
 328 352 l 1,31,-1
 296 352 l 1,32,-1
 296 384 l 1,33,-1
 168 384 l 1,34,-1
 168 352 l 1,35,-1
 72 352 l 1,36,-1
 72 416 l 1,37,-1
 104 416 l 1,38,-1
 104 448 l 1,39,-1
 168 448 l 1,40,-1
 168 480 l 1,41,-1
 296 480 l 1,42,-1
 296 448 l 1,43,-1
 328 448 l 1,44,-1
 328 416 l 1,45,-1
 360 416 l 1,46,-1
 360 384 l 1,47,-1
 392 384 l 1,48,-1
 392 416 l 1,49,-1
 424 416 l 1,50,-1
 424 448 l 1,51,-1
 488 448 l 1,52,-1
 488 480 l 1,53,-1
 616 480 l 1,54,-1
 616 448 l 1,55,-1
 680 448 l 1,56,-1
 680 416 l 1,57,-1
 712 416 l 1,58,-1
 712 352 l 1,59,-1
 744 352 l 1,60,-1
 744 224 l 1,61,-1
 456 224 l 1,62,-1
 456 128 l 1,63,-1
 488 128 l 1,64,-1
 488 96 l 1,65,-1
 616 96 l 1,66,-1
 616 128 l 1,67,-1
 648 128 l 1,68,-1
 648 160 l 1,69,-1
 744 160 l 1,70,-1
 744 96 l 1,71,-1
 712 96 l 1,72,-1
 712 64 l 1,73,-1
 680 64 l 1,74,-1
 680 32 l 1,75,-1
 616 32 l 1,76,-1
 616 0 l 1,77,-1
 488 0 l 1,78,-1
 488 32 l 1,79,-1
 424 32 l 1,80,-1
 424 64 l 1,81,-1
 392 64 l 1,82,-1
 392 96 l 1,83,-1
 360 96 l 1,84,-1
 360 64 l 1,85,-1
 328 64 l 1,86,-1
 328 32 l 1,87,-1
 296 32 l 1,88,-1
 296 0 l 1,89,-1
 168 0 l 1,18,-1
EndSplineSet
Validated: 1
EndChar

StartChar: ccedilla
Encoding: 231 231 167
Width: 442
Flags: W
LayerCount: 2
Fore
SplineSet
171 -192 m 1,0,-1
 171 -160 l 1,1,-1
 139 -160 l 1,2,-1
 139 -96 l 1,3,-1
 171 -96 l 1,4,-1
 171 -128 l 1,5,-1
 235 -128 l 1,6,-1
 235 -64 l 1,7,-1
 171 -64 l 1,8,-1
 171 32 l 1,9,-1
 107 32 l 1,10,-1
 107 64 l 1,11,-1
 75 64 l 1,12,-1
 75 128 l 1,13,-1
 43 128 l 1,14,-1
 43 352 l 1,15,-1
 75 352 l 1,16,-1
 75 416 l 1,17,-1
 107 416 l 1,18,-1
 107 448 l 1,19,-1
 171 448 l 1,20,-1
 171 480 l 1,21,-1
 299 480 l 1,22,-1
 299 448 l 1,23,-1
 363 448 l 1,24,-1
 363 416 l 1,25,-1
 395 416 l 1,26,-1
 395 320 l 1,27,-1
 331 320 l 1,28,-1
 331 352 l 1,29,-1
 299 352 l 1,30,-1
 299 384 l 1,31,-1
 171 384 l 1,32,-1
 171 352 l 1,33,-1
 139 352 l 1,34,-1
 139 128 l 1,35,-1
 171 128 l 1,36,-1
 171 96 l 1,37,-1
 299 96 l 1,38,-1
 299 128 l 1,39,-1
 331 128 l 1,40,-1
 331 160 l 1,41,-1
 395 160 l 1,42,-1
 395 64 l 1,43,-1
 363 64 l 1,44,-1
 363 32 l 1,45,-1
 299 32 l 1,46,-1
 299 0 l 1,47,-1
 203 0 l 1,48,-1
 203 -32 l 1,49,-1
 299 -32 l 1,50,-1
 299 -64 l 1,51,-1
 331 -64 l 1,52,-1
 331 -160 l 1,53,-1
 299 -160 l 1,54,-1
 299 -192 l 1,55,-1
 171 -192 l 1,0,-1
EndSplineSet
Validated: 1
EndChar

StartChar: egrave
Encoding: 232 232 168
Width: 466
Flags: W
LayerCount: 2
Fore
SplineSet
330 288 m 1,0,-1
 330 352 l 1,1,-1
 298 352 l 1,2,-1
 298 384 l 1,3,-1
 170 384 l 1,4,-1
 170 352 l 1,5,-1
 138 352 l 1,6,-1
 138 288 l 1,7,-1
 330 288 l 1,0,-1
170 0 m 1,8,-1
 170 32 l 1,9,-1
 106 32 l 1,10,-1
 106 64 l 1,11,-1
 74 64 l 1,12,-1
 74 128 l 1,13,-1
 42 128 l 1,14,-1
 42 352 l 1,15,-1
 74 352 l 1,16,-1
 74 416 l 1,17,-1
 106 416 l 1,18,-1
 106 448 l 1,19,-1
 170 448 l 1,20,-1
 170 480 l 1,21,-1
 298 480 l 1,22,-1
 298 448 l 1,23,-1
 362 448 l 1,24,-1
 362 416 l 1,25,-1
 394 416 l 1,26,-1
 394 352 l 1,27,-1
 426 352 l 1,28,-1
 426 224 l 1,29,-1
 138 224 l 1,30,-1
 138 128 l 1,31,-1
 170 128 l 1,32,-1
 170 96 l 1,33,-1
 298 96 l 1,34,-1
 298 128 l 1,35,-1
 330 128 l 1,36,-1
 330 160 l 1,37,-1
 426 160 l 1,38,-1
 426 96 l 1,39,-1
 394 96 l 1,40,-1
 394 64 l 1,41,-1
 362 64 l 1,42,-1
 362 32 l 1,43,-1
 298 32 l 1,44,-1
 298 0 l 1,45,-1
 170 0 l 1,8,-1
202 544 m 1,46,-1
 202 576 l 1,47,-1
 170 576 l 1,48,-1
 170 608 l 1,49,-1
 138 608 l 1,50,-1
 138 640 l 1,51,-1
 234 640 l 1,52,-1
 234 608 l 1,53,-1
 266 608 l 1,54,-1
 266 576 l 1,55,-1
 298 576 l 1,56,-1
 298 544 l 1,57,-1
 202 544 l 1,46,-1
EndSplineSet
Validated: 1
EndChar

StartChar: eacute
Encoding: 233 233 169
Width: 469
Flags: W
LayerCount: 2
Fore
SplineSet
328 288 m 1,0,-1
 328 352 l 1,1,-1
 296 352 l 1,2,-1
 296 384 l 1,3,-1
 168 384 l 1,4,-1
 168 352 l 1,5,-1
 136 352 l 1,6,-1
 136 288 l 1,7,-1
 328 288 l 1,0,-1
168 0 m 1,8,-1
 168 32 l 1,9,-1
 104 32 l 1,10,-1
 104 64 l 1,11,-1
 72 64 l 1,12,-1
 72 128 l 1,13,-1
 40 128 l 1,14,-1
 40 352 l 1,15,-1
 72 352 l 1,16,-1
 72 416 l 1,17,-1
 104 416 l 1,18,-1
 104 448 l 1,19,-1
 168 448 l 1,20,-1
 168 480 l 1,21,-1
 296 480 l 1,22,-1
 296 448 l 1,23,-1
 360 448 l 1,24,-1
 360 416 l 1,25,-1
 392 416 l 1,26,-1
 392 352 l 1,27,-1
 424 352 l 1,28,-1
 424 224 l 1,29,-1
 136 224 l 1,30,-1
 136 128 l 1,31,-1
 168 128 l 1,32,-1
 168 96 l 1,33,-1
 296 96 l 1,34,-1
 296 128 l 1,35,-1
 328 128 l 1,36,-1
 328 160 l 1,37,-1
 424 160 l 1,38,-1
 424 96 l 1,39,-1
 392 96 l 1,40,-1
 392 64 l 1,41,-1
 360 64 l 1,42,-1
 360 32 l 1,43,-1
 296 32 l 1,44,-1
 296 0 l 1,45,-1
 168 0 l 1,8,-1
200 544 m 1,46,-1
 200 576 l 1,47,-1
 232 576 l 1,48,-1
 232 608 l 1,49,-1
 264 608 l 1,50,-1
 264 640 l 1,51,-1
 360 640 l 1,52,-1
 360 608 l 1,53,-1
 328 608 l 1,54,-1
 328 576 l 1,55,-1
 296 576 l 1,56,-1
 296 544 l 1,57,-1
 200 544 l 1,46,-1
EndSplineSet
Validated: 1
EndChar

StartChar: ecircumflex
Encoding: 234 234 170
Width: 479
Flags: W
LayerCount: 2
Fore
SplineSet
335 288 m 1,0,-1
 335 352 l 1,1,-1
 303 352 l 1,2,-1
 303 384 l 1,3,-1
 175 384 l 1,4,-1
 175 352 l 1,5,-1
 143 352 l 1,6,-1
 143 288 l 1,7,-1
 335 288 l 1,0,-1
175 0 m 1,8,-1
 175 32 l 1,9,-1
 111 32 l 1,10,-1
 111 64 l 1,11,-1
 79 64 l 1,12,-1
 79 128 l 1,13,-1
 47 128 l 1,14,-1
 47 352 l 1,15,-1
 79 352 l 1,16,-1
 79 416 l 1,17,-1
 111 416 l 1,18,-1
 111 448 l 1,19,-1
 175 448 l 1,20,-1
 175 480 l 1,21,-1
 303 480 l 1,22,-1
 303 448 l 1,23,-1
 367 448 l 1,24,-1
 367 416 l 1,25,-1
 399 416 l 1,26,-1
 399 352 l 1,27,-1
 431 352 l 1,28,-1
 431 224 l 1,29,-1
 143 224 l 1,30,-1
 143 128 l 1,31,-1
 175 128 l 1,32,-1
 175 96 l 1,33,-1
 303 96 l 1,34,-1
 303 128 l 1,35,-1
 335 128 l 1,36,-1
 335 160 l 1,37,-1
 431 160 l 1,38,-1
 431 96 l 1,39,-1
 399 96 l 1,40,-1
 399 64 l 1,41,-1
 367 64 l 1,42,-1
 367 32 l 1,43,-1
 303 32 l 1,44,-1
 303 0 l 1,45,-1
 175 0 l 1,8,-1
79 512 m 1,46,-1
 79 544 l 1,47,-1
 111 544 l 1,48,-1
 111 576 l 1,49,-1
 143 576 l 1,50,-1
 143 608 l 1,51,-1
 175 608 l 1,52,-1
 175 640 l 1,53,-1
 303 640 l 1,54,-1
 303 608 l 1,55,-1
 335 608 l 1,56,-1
 335 576 l 1,57,-1
 367 576 l 1,58,-1
 367 544 l 1,59,-1
 399 544 l 1,60,-1
 399 512 l 1,61,-1
 335 512 l 1,62,-1
 335 544 l 1,63,-1
 271 544 l 1,64,-1
 271 576 l 1,65,-1
 207 576 l 1,66,-1
 207 544 l 1,67,-1
 143 544 l 1,68,-1
 143 512 l 1,69,-1
 79 512 l 1,46,-1
EndSplineSet
Validated: 1
EndChar

StartChar: edieresis
Encoding: 235 235 171
Width: 474
Flags: W
LayerCount: 2
Fore
SplineSet
333 288 m 1,0,-1
 333 352 l 1,1,-1
 301 352 l 1,2,-1
 301 384 l 1,3,-1
 173 384 l 1,4,-1
 173 352 l 1,5,-1
 141 352 l 1,6,-1
 141 288 l 1,7,-1
 333 288 l 1,0,-1
173 0 m 1,8,-1
 173 32 l 1,9,-1
 109 32 l 1,10,-1
 109 64 l 1,11,-1
 77 64 l 1,12,-1
 77 128 l 1,13,-1
 45 128 l 1,14,-1
 45 352 l 1,15,-1
 77 352 l 1,16,-1
 77 416 l 1,17,-1
 109 416 l 1,18,-1
 109 448 l 1,19,-1
 173 448 l 1,20,-1
 173 480 l 1,21,-1
 301 480 l 1,22,-1
 301 448 l 1,23,-1
 365 448 l 1,24,-1
 365 416 l 1,25,-1
 397 416 l 1,26,-1
 397 352 l 1,27,-1
 429 352 l 1,28,-1
 429 224 l 1,29,-1
 141 224 l 1,30,-1
 141 128 l 1,31,-1
 173 128 l 1,32,-1
 173 96 l 1,33,-1
 301 96 l 1,34,-1
 301 128 l 1,35,-1
 333 128 l 1,36,-1
 333 160 l 1,37,-1
 429 160 l 1,38,-1
 429 96 l 1,39,-1
 397 96 l 1,40,-1
 397 64 l 1,41,-1
 365 64 l 1,42,-1
 365 32 l 1,43,-1
 301 32 l 1,44,-1
 301 0 l 1,45,-1
 173 0 l 1,8,-1
109 544 m 1,46,-1
 109 640 l 1,47,-1
 205 640 l 1,48,-1
 205 544 l 1,49,-1
 109 544 l 1,46,-1
269 544 m 1,50,-1
 269 640 l 1,51,-1
 365 640 l 1,52,-1
 365 544 l 1,53,-1
 269 544 l 1,50,-1
EndSplineSet
Validated: 1
EndChar

StartChar: igrave
Encoding: 236 236 172
Width: 238
Flags: W
LayerCount: 2
Fore
SplineSet
83 0 m 1,0,-1
 83 480 l 1,1,-1
 179 480 l 1,2,-1
 179 0 l 1,3,-1
 83 0 l 1,0,-1
83 544 m 1,4,-1
 83 576 l 1,5,-1
 51 576 l 1,6,-1
 51 608 l 1,7,-1
 19 608 l 1,8,-1
 19 640 l 1,9,-1
 115 640 l 1,10,-1
 115 608 l 1,11,-1
 147 608 l 1,12,-1
 147 576 l 1,13,-1
 179 576 l 1,14,-1
 179 544 l 1,15,-1
 83 544 l 1,4,-1
EndSplineSet
Validated: 1
EndChar

StartChar: iacute
Encoding: 237 237 173
Width: 276
Flags: W
LayerCount: 2
Fore
SplineSet
57 0 m 1,0,-1
 57 480 l 1,1,-1
 153 480 l 1,2,-1
 153 0 l 1,3,-1
 57 0 l 1,0,-1
57 544 m 1,4,-1
 57 576 l 1,5,-1
 89 576 l 1,6,-1
 89 608 l 1,7,-1
 121 608 l 1,8,-1
 121 640 l 1,9,-1
 217 640 l 1,10,-1
 217 608 l 1,11,-1
 185 608 l 1,12,-1
 185 576 l 1,13,-1
 153 576 l 1,14,-1
 153 544 l 1,15,-1
 57 544 l 1,4,-1
EndSplineSet
Validated: 1
EndChar

StartChar: icircumflex
Encoding: 238 238 174
Width: 370
Flags: W
LayerCount: 2
Fore
SplineSet
119 0 m 1,0,-1
 119 480 l 1,1,-1
 215 480 l 1,2,-1
 215 0 l 1,3,-1
 119 0 l 1,0,-1
23 512 m 1,4,-1
 23 544 l 1,5,-1
 55 544 l 1,6,-1
 55 576 l 1,7,-1
 87 576 l 1,8,-1
 87 608 l 1,9,-1
 119 608 l 1,10,-1
 119 640 l 1,11,-1
 151 640 l 1,12,-1
 151 672 l 1,13,-1
 183 672 l 1,14,-1
 183 640 l 1,15,-1
 215 640 l 1,16,-1
 215 608 l 1,17,-1
 247 608 l 1,18,-1
 247 576 l 1,19,-1
 279 576 l 1,20,-1
 279 544 l 1,21,-1
 311 544 l 1,22,-1
 311 512 l 1,23,-1
 247 512 l 1,24,-1
 247 544 l 1,25,-1
 183 544 l 1,26,-1
 183 576 l 1,27,-1
 151 576 l 1,28,-1
 151 544 l 1,29,-1
 87 544 l 1,30,-1
 87 512 l 1,31,-1
 23 512 l 1,4,-1
EndSplineSet
Validated: 1
EndChar

StartChar: idieresis
Encoding: 239 239 175
Width: 362
Flags: W
LayerCount: 2
Fore
SplineSet
111 0 m 1,0,-1
 111 480 l 1,1,-1
 207 480 l 1,2,-1
 207 0 l 1,3,-1
 111 0 l 1,0,-1
15 544 m 1,4,-1
 15 640 l 1,5,-1
 111 640 l 1,6,-1
 111 544 l 1,7,-1
 15 544 l 1,4,-1
207 544 m 1,8,-1
 207 640 l 1,9,-1
 303 640 l 1,10,-1
 303 544 l 1,11,-1
 207 544 l 1,8,-1
EndSplineSet
Validated: 1
EndChar

StartChar: eth
Encoding: 240 240 176
Width: 517
Flags: W
LayerCount: 2
Fore
SplineSet
330 96 m 1,0,-1
 330 128 l 1,1,-1
 362 128 l 1,2,-1
 362 352 l 1,3,-1
 330 352 l 1,4,-1
 330 384 l 1,5,-1
 170 384 l 1,6,-1
 170 352 l 1,7,-1
 138 352 l 1,8,-1
 138 128 l 1,9,-1
 170 128 l 1,10,-1
 170 96 l 1,11,-1
 330 96 l 1,0,-1
170 0 m 1,12,-1
 170 32 l 1,13,-1
 106 32 l 1,14,-1
 106 64 l 1,15,-1
 74 64 l 1,16,-1
 74 128 l 1,17,-1
 42 128 l 1,18,-1
 42 352 l 1,19,-1
 74 352 l 1,20,-1
 74 416 l 1,21,-1
 106 416 l 1,22,-1
 106 448 l 1,23,-1
 170 448 l 1,24,-1
 170 480 l 1,25,-1
 330 480 l 1,26,-1
 330 448 l 1,27,-1
 362 448 l 1,28,-1
 362 512 l 1,29,-1
 330 512 l 1,30,-1
 330 544 l 1,31,-1
 266 544 l 1,32,-1
 266 512 l 1,33,-1
 170 512 l 1,34,-1
 170 544 l 1,35,-1
 202 544 l 1,36,-1
 202 576 l 1,37,-1
 234 576 l 1,38,-1
 234 608 l 1,39,-1
 138 608 l 1,40,-1
 138 672 l 1,41,-1
 266 672 l 1,42,-1
 266 640 l 1,43,-1
 298 640 l 1,44,-1
 298 672 l 1,45,-1
 330 672 l 1,46,-1
 330 704 l 1,47,-1
 394 704 l 1,48,-1
 394 640 l 1,49,-1
 362 640 l 1,50,-1
 362 576 l 1,51,-1
 394 576 l 1,52,-1
 394 544 l 1,53,-1
 426 544 l 1,54,-1
 426 512 l 1,55,-1
 458 512 l 1,56,-1
 458 128 l 1,57,-1
 426 128 l 1,58,-1
 426 64 l 1,59,-1
 394 64 l 1,60,-1
 394 32 l 1,61,-1
 330 32 l 1,62,-1
 330 0 l 1,63,-1
 170 0 l 1,12,-1
EndSplineSet
Validated: 1
EndChar

StartChar: ntilde
Encoding: 241 241 177
Width: 521
Flags: W
LayerCount: 2
Fore
SplineSet
54 0 m 1,0,-1
 54 480 l 1,1,-1
 150 480 l 1,2,-1
 150 416 l 1,3,-1
 182 416 l 1,4,-1
 182 448 l 1,5,-1
 214 448 l 1,6,-1
 214 480 l 1,7,-1
 342 480 l 1,8,-1
 342 448 l 1,9,-1
 406 448 l 1,10,-1
 406 416 l 1,11,-1
 438 416 l 1,12,-1
 438 352 l 1,13,-1
 470 352 l 1,14,-1
 470 0 l 1,15,-1
 374 0 l 1,16,-1
 374 352 l 1,17,-1
 342 352 l 1,18,-1
 342 384 l 1,19,-1
 214 384 l 1,20,-1
 214 352 l 1,21,-1
 182 352 l 1,22,-1
 182 320 l 1,23,-1
 150 320 l 1,24,-1
 150 0 l 1,25,-1
 54 0 l 1,0,-1
278 512 m 1,26,-1
 278 544 l 1,27,-1
 246 544 l 1,28,-1
 246 576 l 1,29,-1
 214 576 l 1,30,-1
 214 608 l 1,31,-1
 150 608 l 1,32,-1
 150 576 l 1,33,-1
 118 576 l 1,34,-1
 118 544 l 1,35,-1
 86 544 l 1,36,-1
 86 608 l 1,37,-1
 118 608 l 1,38,-1
 118 640 l 1,39,-1
 150 640 l 1,40,-1
 150 672 l 1,41,-1
 246 672 l 1,42,-1
 246 640 l 1,43,-1
 278 640 l 1,44,-1
 278 608 l 1,45,-1
 310 608 l 1,46,-1
 310 576 l 1,47,-1
 374 576 l 1,48,-1
 374 608 l 1,49,-1
 406 608 l 1,50,-1
 406 640 l 1,51,-1
 438 640 l 1,52,-1
 438 576 l 1,53,-1
 406 576 l 1,54,-1
 406 544 l 1,55,-1
 374 544 l 1,56,-1
 374 512 l 1,57,-1
 278 512 l 1,26,-1
EndSplineSet
Validated: 1
EndChar

StartChar: ograve
Encoding: 242 242 178
Width: 466
Flags: W
LayerCount: 2
Fore
SplineSet
298 96 m 1,0,-1
 298 128 l 1,1,-1
 330 128 l 1,2,-1
 330 352 l 1,3,-1
 298 352 l 1,4,-1
 298 384 l 1,5,-1
 170 384 l 1,6,-1
 170 352 l 1,7,-1
 138 352 l 1,8,-1
 138 128 l 1,9,-1
 170 128 l 1,10,-1
 170 96 l 1,11,-1
 298 96 l 1,0,-1
170 0 m 1,12,-1
 170 32 l 1,13,-1
 106 32 l 1,14,-1
 106 64 l 1,15,-1
 74 64 l 1,16,-1
 74 128 l 1,17,-1
 42 128 l 1,18,-1
 42 352 l 1,19,-1
 74 352 l 1,20,-1
 74 416 l 1,21,-1
 106 416 l 1,22,-1
 106 448 l 1,23,-1
 170 448 l 1,24,-1
 170 480 l 1,25,-1
 298 480 l 1,26,-1
 298 448 l 1,27,-1
 362 448 l 1,28,-1
 362 416 l 1,29,-1
 394 416 l 1,30,-1
 394 352 l 1,31,-1
 426 352 l 1,32,-1
 426 128 l 1,33,-1
 394 128 l 1,34,-1
 394 64 l 1,35,-1
 362 64 l 1,36,-1
 362 32 l 1,37,-1
 298 32 l 1,38,-1
 298 0 l 1,39,-1
 170 0 l 1,12,-1
202 544 m 1,40,-1
 202 576 l 1,41,-1
 170 576 l 1,42,-1
 170 608 l 1,43,-1
 138 608 l 1,44,-1
 138 640 l 1,45,-1
 234 640 l 1,46,-1
 234 608 l 1,47,-1
 266 608 l 1,48,-1
 266 576 l 1,49,-1
 298 576 l 1,50,-1
 298 544 l 1,51,-1
 202 544 l 1,40,-1
EndSplineSet
Validated: 1
EndChar

StartChar: oacute
Encoding: 243 243 179
Width: 469
Flags: W
LayerCount: 2
Fore
SplineSet
296 96 m 1,0,-1
 296 128 l 1,1,-1
 328 128 l 1,2,-1
 328 352 l 1,3,-1
 296 352 l 1,4,-1
 296 384 l 1,5,-1
 168 384 l 1,6,-1
 168 352 l 1,7,-1
 136 352 l 1,8,-1
 136 128 l 1,9,-1
 168 128 l 1,10,-1
 168 96 l 1,11,-1
 296 96 l 1,0,-1
168 0 m 1,12,-1
 168 32 l 1,13,-1
 104 32 l 1,14,-1
 104 64 l 1,15,-1
 72 64 l 1,16,-1
 72 128 l 1,17,-1
 40 128 l 1,18,-1
 40 352 l 1,19,-1
 72 352 l 1,20,-1
 72 416 l 1,21,-1
 104 416 l 1,22,-1
 104 448 l 1,23,-1
 168 448 l 1,24,-1
 168 480 l 1,25,-1
 296 480 l 1,26,-1
 296 448 l 1,27,-1
 360 448 l 1,28,-1
 360 416 l 1,29,-1
 392 416 l 1,30,-1
 392 352 l 1,31,-1
 424 352 l 1,32,-1
 424 128 l 1,33,-1
 392 128 l 1,34,-1
 392 64 l 1,35,-1
 360 64 l 1,36,-1
 360 32 l 1,37,-1
 296 32 l 1,38,-1
 296 0 l 1,39,-1
 168 0 l 1,12,-1
200 544 m 1,40,-1
 200 576 l 1,41,-1
 232 576 l 1,42,-1
 232 608 l 1,43,-1
 264 608 l 1,44,-1
 264 640 l 1,45,-1
 360 640 l 1,46,-1
 360 608 l 1,47,-1
 328 608 l 1,48,-1
 328 576 l 1,49,-1
 296 576 l 1,50,-1
 296 544 l 1,51,-1
 200 544 l 1,40,-1
EndSplineSet
Validated: 1
EndChar

StartChar: ocircumflex
Encoding: 244 244 180
Width: 479
Flags: W
LayerCount: 2
Fore
SplineSet
303 96 m 1,0,-1
 303 128 l 1,1,-1
 335 128 l 1,2,-1
 335 352 l 1,3,-1
 303 352 l 1,4,-1
 303 384 l 1,5,-1
 175 384 l 1,6,-1
 175 352 l 1,7,-1
 143 352 l 1,8,-1
 143 128 l 1,9,-1
 175 128 l 1,10,-1
 175 96 l 1,11,-1
 303 96 l 1,0,-1
175 0 m 1,12,-1
 175 32 l 1,13,-1
 111 32 l 1,14,-1
 111 64 l 1,15,-1
 79 64 l 1,16,-1
 79 128 l 1,17,-1
 47 128 l 1,18,-1
 47 352 l 1,19,-1
 79 352 l 1,20,-1
 79 416 l 1,21,-1
 111 416 l 1,22,-1
 111 448 l 1,23,-1
 175 448 l 1,24,-1
 175 480 l 1,25,-1
 303 480 l 1,26,-1
 303 448 l 1,27,-1
 367 448 l 1,28,-1
 367 416 l 1,29,-1
 399 416 l 1,30,-1
 399 352 l 1,31,-1
 431 352 l 1,32,-1
 431 128 l 1,33,-1
 399 128 l 1,34,-1
 399 64 l 1,35,-1
 367 64 l 1,36,-1
 367 32 l 1,37,-1
 303 32 l 1,38,-1
 303 0 l 1,39,-1
 175 0 l 1,12,-1
79 512 m 1,40,-1
 79 544 l 1,41,-1
 111 544 l 1,42,-1
 111 576 l 1,43,-1
 143 576 l 1,44,-1
 143 608 l 1,45,-1
 175 608 l 1,46,-1
 175 640 l 1,47,-1
 303 640 l 1,48,-1
 303 608 l 1,49,-1
 335 608 l 1,50,-1
 335 576 l 1,51,-1
 367 576 l 1,52,-1
 367 544 l 1,53,-1
 399 544 l 1,54,-1
 399 512 l 1,55,-1
 335 512 l 1,56,-1
 335 544 l 1,57,-1
 271 544 l 1,58,-1
 271 576 l 1,59,-1
 207 576 l 1,60,-1
 207 544 l 1,61,-1
 143 544 l 1,62,-1
 143 512 l 1,63,-1
 79 512 l 1,40,-1
EndSplineSet
Validated: 1
EndChar

StartChar: otilde
Encoding: 245 245 181
Width: 492
Flags: W
LayerCount: 2
Fore
SplineSet
305 96 m 1,0,-1
 305 128 l 1,1,-1
 337 128 l 1,2,-1
 337 352 l 1,3,-1
 305 352 l 1,4,-1
 305 384 l 1,5,-1
 177 384 l 1,6,-1
 177 352 l 1,7,-1
 145 352 l 1,8,-1
 145 128 l 1,9,-1
 177 128 l 1,10,-1
 177 96 l 1,11,-1
 305 96 l 1,0,-1
177 0 m 1,12,-1
 177 32 l 1,13,-1
 113 32 l 1,14,-1
 113 64 l 1,15,-1
 81 64 l 1,16,-1
 81 128 l 1,17,-1
 49 128 l 1,18,-1
 49 352 l 1,19,-1
 81 352 l 1,20,-1
 81 416 l 1,21,-1
 113 416 l 1,22,-1
 113 448 l 1,23,-1
 177 448 l 1,24,-1
 177 480 l 1,25,-1
 305 480 l 1,26,-1
 305 448 l 1,27,-1
 369 448 l 1,28,-1
 369 416 l 1,29,-1
 401 416 l 1,30,-1
 401 352 l 1,31,-1
 433 352 l 1,32,-1
 433 128 l 1,33,-1
 401 128 l 1,34,-1
 401 64 l 1,35,-1
 369 64 l 1,36,-1
 369 32 l 1,37,-1
 305 32 l 1,38,-1
 305 0 l 1,39,-1
 177 0 l 1,12,-1
273 512 m 1,40,-1
 273 544 l 1,41,-1
 241 544 l 1,42,-1
 241 576 l 1,43,-1
 209 576 l 1,44,-1
 209 608 l 1,45,-1
 145 608 l 1,46,-1
 145 576 l 1,47,-1
 113 576 l 1,48,-1
 113 544 l 1,49,-1
 81 544 l 1,50,-1
 81 608 l 1,51,-1
 113 608 l 1,52,-1
 113 640 l 1,53,-1
 145 640 l 1,54,-1
 145 672 l 1,55,-1
 241 672 l 1,56,-1
 241 640 l 1,57,-1
 273 640 l 1,58,-1
 273 608 l 1,59,-1
 305 608 l 1,60,-1
 305 576 l 1,61,-1
 369 576 l 1,62,-1
 369 608 l 1,63,-1
 401 608 l 1,64,-1
 401 640 l 1,65,-1
 433 640 l 1,66,-1
 433 576 l 1,67,-1
 401 576 l 1,68,-1
 401 544 l 1,69,-1
 369 544 l 1,70,-1
 369 512 l 1,71,-1
 273 512 l 1,40,-1
EndSplineSet
Validated: 1
EndChar

StartChar: odieresis
Encoding: 246 246 182
Width: 474
Flags: W
LayerCount: 2
Fore
SplineSet
301 96 m 1,0,-1
 301 128 l 1,1,-1
 333 128 l 1,2,-1
 333 352 l 1,3,-1
 301 352 l 1,4,-1
 301 384 l 1,5,-1
 173 384 l 1,6,-1
 173 352 l 1,7,-1
 141 352 l 1,8,-1
 141 128 l 1,9,-1
 173 128 l 1,10,-1
 173 96 l 1,11,-1
 301 96 l 1,0,-1
173 0 m 1,12,-1
 173 32 l 1,13,-1
 109 32 l 1,14,-1
 109 64 l 1,15,-1
 77 64 l 1,16,-1
 77 128 l 1,17,-1
 45 128 l 1,18,-1
 45 352 l 1,19,-1
 77 352 l 1,20,-1
 77 416 l 1,21,-1
 109 416 l 1,22,-1
 109 448 l 1,23,-1
 173 448 l 1,24,-1
 173 480 l 1,25,-1
 301 480 l 1,26,-1
 301 448 l 1,27,-1
 365 448 l 1,28,-1
 365 416 l 1,29,-1
 397 416 l 1,30,-1
 397 352 l 1,31,-1
 429 352 l 1,32,-1
 429 128 l 1,33,-1
 397 128 l 1,34,-1
 397 64 l 1,35,-1
 365 64 l 1,36,-1
 365 32 l 1,37,-1
 301 32 l 1,38,-1
 301 0 l 1,39,-1
 173 0 l 1,12,-1
109 544 m 1,40,-1
 109 640 l 1,41,-1
 205 640 l 1,42,-1
 205 544 l 1,43,-1
 109 544 l 1,40,-1
269 544 m 1,44,-1
 269 640 l 1,45,-1
 365 640 l 1,46,-1
 365 544 l 1,47,-1
 269 544 l 1,44,-1
EndSplineSet
Validated: 1
EndChar

StartChar: divide
Encoding: 247 247 183
Width: 464
Flags: W
LayerCount: 2
Fore
SplineSet
179 64 m 1,0,-1
 179 160 l 1,1,-1
 275 160 l 1,2,-1
 275 64 l 1,3,-1
 179 64 l 1,0,-1
19 224 m 1,4,-1
 19 288 l 1,5,-1
 435 288 l 1,6,-1
 435 224 l 1,7,-1
 19 224 l 1,4,-1
179 352 m 1,8,-1
 179 448 l 1,9,-1
 275 448 l 1,10,-1
 275 352 l 1,11,-1
 179 352 l 1,8,-1
EndSplineSet
Validated: 1
EndChar

StartChar: oslash
Encoding: 248 248 184
Width: 544
Flags: W
LayerCount: 2
Fore
SplineSet
318 96 m 1,0,-1
 318 128 l 1,1,-1
 350 128 l 1,2,-1
 350 256 l 1,3,-1
 318 256 l 1,4,-1
 318 224 l 1,5,-1
 286 224 l 1,6,-1
 286 192 l 1,7,-1
 254 192 l 1,8,-1
 254 160 l 1,9,-1
 222 160 l 1,10,-1
 222 128 l 1,11,-1
 190 128 l 1,12,-1
 190 96 l 1,13,-1
 318 96 l 1,0,-1
190 160 m 1,14,-1
 190 192 l 1,15,-1
 222 192 l 1,16,-1
 222 224 l 1,17,-1
 254 224 l 1,18,-1
 254 256 l 1,19,-1
 286 256 l 1,20,-1
 286 288 l 1,21,-1
 318 288 l 1,22,-1
 318 320 l 1,23,-1
 350 320 l 1,24,-1
 350 352 l 1,25,-1
 318 352 l 1,26,-1
 318 384 l 1,27,-1
 190 384 l 1,28,-1
 190 352 l 1,29,-1
 158 352 l 1,30,-1
 158 160 l 1,31,-1
 190 160 l 1,14,-1
30 -32 m 1,32,-1
 30 32 l 1,33,-1
 62 32 l 1,34,-1
 62 64 l 1,35,-1
 94 64 l 1,36,-1
 94 128 l 1,37,-1
 62 128 l 1,38,-1
 62 352 l 1,39,-1
 94 352 l 1,40,-1
 94 416 l 1,41,-1
 126 416 l 1,42,-1
 126 448 l 1,43,-1
 190 448 l 1,44,-1
 190 480 l 1,45,-1
 318 480 l 1,46,-1
 318 448 l 1,47,-1
 382 448 l 1,48,-1
 382 416 l 1,49,-1
 446 416 l 1,50,-1
 446 448 l 1,51,-1
 478 448 l 1,52,-1
 478 480 l 1,53,-1
 510 480 l 1,54,-1
 510 416 l 1,55,-1
 478 416 l 1,56,-1
 478 384 l 1,57,-1
 446 384 l 1,58,-1
 446 128 l 1,59,-1
 414 128 l 1,60,-1
 414 64 l 1,61,-1
 382 64 l 1,62,-1
 382 32 l 1,63,-1
 318 32 l 1,64,-1
 318 0 l 1,65,-1
 190 0 l 1,66,-1
 190 32 l 1,67,-1
 94 32 l 1,68,-1
 94 0 l 1,69,-1
 62 0 l 1,70,-1
 62 -32 l 1,71,-1
 30 -32 l 1,32,-1
EndSplineSet
Validated: 1
EndChar

StartChar: ugrave
Encoding: 249 249 185
Width: 485
Flags: W
LayerCount: 2
Fore
SplineSet
115 0 m 1,0,-1
 115 32 l 1,1,-1
 83 32 l 1,2,-1
 83 64 l 1,3,-1
 51 64 l 1,4,-1
 51 480 l 1,5,-1
 147 480 l 1,6,-1
 147 128 l 1,7,-1
 179 128 l 1,8,-1
 179 96 l 1,9,-1
 275 96 l 1,10,-1
 275 128 l 1,11,-1
 307 128 l 1,12,-1
 307 160 l 1,13,-1
 339 160 l 1,14,-1
 339 480 l 1,15,-1
 435 480 l 1,16,-1
 435 0 l 1,17,-1
 339 0 l 1,18,-1
 339 64 l 1,19,-1
 307 64 l 1,20,-1
 307 32 l 1,21,-1
 275 32 l 1,22,-1
 275 0 l 1,23,-1
 115 0 l 1,0,-1
211 544 m 1,24,-1
 211 576 l 1,25,-1
 179 576 l 1,26,-1
 179 608 l 1,27,-1
 147 608 l 1,28,-1
 147 640 l 1,29,-1
 243 640 l 1,30,-1
 243 608 l 1,31,-1
 275 608 l 1,32,-1
 275 576 l 1,33,-1
 307 576 l 1,34,-1
 307 544 l 1,35,-1
 211 544 l 1,24,-1
EndSplineSet
Validated: 1
EndChar

StartChar: uacute
Encoding: 250 250 186
Width: 485
Flags: W
LayerCount: 2
Fore
SplineSet
114 0 m 1,0,-1
 114 32 l 1,1,-1
 82 32 l 1,2,-1
 82 64 l 1,3,-1
 50 64 l 1,4,-1
 50 480 l 1,5,-1
 146 480 l 1,6,-1
 146 128 l 1,7,-1
 178 128 l 1,8,-1
 178 96 l 1,9,-1
 274 96 l 1,10,-1
 274 128 l 1,11,-1
 306 128 l 1,12,-1
 306 160 l 1,13,-1
 338 160 l 1,14,-1
 338 480 l 1,15,-1
 434 480 l 1,16,-1
 434 0 l 1,17,-1
 338 0 l 1,18,-1
 338 64 l 1,19,-1
 306 64 l 1,20,-1
 306 32 l 1,21,-1
 274 32 l 1,22,-1
 274 0 l 1,23,-1
 114 0 l 1,0,-1
178 544 m 1,24,-1
 178 576 l 1,25,-1
 210 576 l 1,26,-1
 210 608 l 1,27,-1
 242 608 l 1,28,-1
 242 640 l 1,29,-1
 338 640 l 1,30,-1
 338 608 l 1,31,-1
 306 608 l 1,32,-1
 306 576 l 1,33,-1
 274 576 l 1,34,-1
 274 544 l 1,35,-1
 178 544 l 1,24,-1
EndSplineSet
Validated: 1
EndChar

StartChar: ucircumflex
Encoding: 251 251 187
Width: 489
Flags: W
LayerCount: 2
Fore
SplineSet
116 0 m 1,0,-1
 116 32 l 1,1,-1
 84 32 l 1,2,-1
 84 64 l 1,3,-1
 52 64 l 1,4,-1
 52 480 l 1,5,-1
 148 480 l 1,6,-1
 148 128 l 1,7,-1
 180 128 l 1,8,-1
 180 96 l 1,9,-1
 276 96 l 1,10,-1
 276 128 l 1,11,-1
 308 128 l 1,12,-1
 308 160 l 1,13,-1
 340 160 l 1,14,-1
 340 480 l 1,15,-1
 436 480 l 1,16,-1
 436 0 l 1,17,-1
 340 0 l 1,18,-1
 340 64 l 1,19,-1
 308 64 l 1,20,-1
 308 32 l 1,21,-1
 276 32 l 1,22,-1
 276 0 l 1,23,-1
 116 0 l 1,0,-1
84 512 m 1,24,-1
 84 544 l 1,25,-1
 116 544 l 1,26,-1
 116 576 l 1,27,-1
 148 576 l 1,28,-1
 148 608 l 1,29,-1
 180 608 l 1,30,-1
 180 640 l 1,31,-1
 308 640 l 1,32,-1
 308 608 l 1,33,-1
 340 608 l 1,34,-1
 340 576 l 1,35,-1
 372 576 l 1,36,-1
 372 544 l 1,37,-1
 404 544 l 1,38,-1
 404 512 l 1,39,-1
 340 512 l 1,40,-1
 340 544 l 1,41,-1
 276 544 l 1,42,-1
 276 576 l 1,43,-1
 212 576 l 1,44,-1
 212 544 l 1,45,-1
 148 544 l 1,46,-1
 148 512 l 1,47,-1
 84 512 l 1,24,-1
EndSplineSet
Validated: 1
EndChar

StartChar: udieresis
Encoding: 252 252 188
Width: 488
Flags: W
LayerCount: 2
Fore
SplineSet
116 0 m 1,0,-1
 116 32 l 1,1,-1
 84 32 l 1,2,-1
 84 64 l 1,3,-1
 52 64 l 1,4,-1
 52 480 l 1,5,-1
 148 480 l 1,6,-1
 148 128 l 1,7,-1
 180 128 l 1,8,-1
 180 96 l 1,9,-1
 276 96 l 1,10,-1
 276 128 l 1,11,-1
 308 128 l 1,12,-1
 308 160 l 1,13,-1
 340 160 l 1,14,-1
 340 480 l 1,15,-1
 436 480 l 1,16,-1
 436 0 l 1,17,-1
 340 0 l 1,18,-1
 340 64 l 1,19,-1
 308 64 l 1,20,-1
 308 32 l 1,21,-1
 276 32 l 1,22,-1
 276 0 l 1,23,-1
 116 0 l 1,0,-1
116 544 m 1,24,-1
 116 640 l 1,25,-1
 212 640 l 1,26,-1
 212 544 l 1,27,-1
 116 544 l 1,24,-1
276 544 m 1,28,-1
 276 640 l 1,29,-1
 372 640 l 1,30,-1
 372 544 l 1,31,-1
 276 544 l 1,28,-1
EndSplineSet
Validated: 1
EndChar

StartChar: yacute
Encoding: 253 253 189
Width: 458
Flags: W
LayerCount: 2
Fore
SplineSet
132 -192 m 1,0,-1
 132 -96 l 1,1,-1
 164 -96 l 1,2,-1
 164 0 l 1,3,-1
 196 0 l 1,4,-1
 196 64 l 1,5,-1
 164 64 l 1,6,-1
 164 128 l 1,7,-1
 132 128 l 1,8,-1
 132 192 l 1,9,-1
 100 192 l 1,10,-1
 100 288 l 1,11,-1
 68 288 l 1,12,-1
 68 384 l 1,13,-1
 36 384 l 1,14,-1
 36 480 l 1,15,-1
 132 480 l 1,16,-1
 132 384 l 1,17,-1
 164 384 l 1,18,-1
 164 288 l 1,19,-1
 196 288 l 1,20,-1
 196 192 l 1,21,-1
 228 192 l 1,22,-1
 228 160 l 1,23,-1
 260 160 l 1,24,-1
 260 288 l 1,25,-1
 292 288 l 1,26,-1
 292 384 l 1,27,-1
 324 384 l 1,28,-1
 324 480 l 1,29,-1
 420 480 l 1,30,-1
 420 384 l 1,31,-1
 388 384 l 1,32,-1
 388 288 l 1,33,-1
 356 288 l 1,34,-1
 356 192 l 1,35,-1
 324 192 l 1,36,-1
 324 96 l 1,37,-1
 292 96 l 1,38,-1
 292 0 l 1,39,-1
 260 0 l 1,40,-1
 260 -96 l 1,41,-1
 228 -96 l 1,42,-1
 228 -192 l 1,43,-1
 132 -192 l 1,0,-1
164 544 m 1,44,-1
 164 576 l 1,45,-1
 196 576 l 1,46,-1
 196 608 l 1,47,-1
 228 608 l 1,48,-1
 228 640 l 1,49,-1
 324 640 l 1,50,-1
 324 608 l 1,51,-1
 292 608 l 1,52,-1
 292 576 l 1,53,-1
 260 576 l 1,54,-1
 260 544 l 1,55,-1
 164 544 l 1,44,-1
EndSplineSet
Validated: 1
EndChar

StartChar: thorn
Encoding: 254 254 190
Width: 466
Flags: W
LayerCount: 2
Fore
SplineSet
309 160 m 1,0,-1
 309 192 l 1,1,-1
 341 192 l 1,2,-1
 341 256 l 1,3,-1
 309 256 l 1,4,-1
 309 288 l 1,5,-1
 149 288 l 1,6,-1
 149 160 l 1,7,-1
 309 160 l 1,0,-1
53 0 m 1,8,-1
 53 480 l 1,9,-1
 149 480 l 1,10,-1
 149 352 l 1,11,-1
 373 352 l 1,12,-1
 373 320 l 1,13,-1
 405 320 l 1,14,-1
 405 288 l 1,15,-1
 437 288 l 1,16,-1
 437 160 l 1,17,-1
 405 160 l 1,18,-1
 405 128 l 1,19,-1
 373 128 l 1,20,-1
 373 96 l 1,21,-1
 149 96 l 1,22,-1
 149 0 l 1,23,-1
 53 0 l 1,8,-1
EndSplineSet
Validated: 1
EndChar

StartChar: ydieresis
Encoding: 255 255 191
Width: 463
Flags: W
LayerCount: 2
Fore
SplineSet
135 -192 m 1,0,-1
 135 -96 l 1,1,-1
 167 -96 l 1,2,-1
 167 0 l 1,3,-1
 199 0 l 1,4,-1
 199 64 l 1,5,-1
 167 64 l 1,6,-1
 167 128 l 1,7,-1
 135 128 l 1,8,-1
 135 192 l 1,9,-1
 103 192 l 1,10,-1
 103 288 l 1,11,-1
 71 288 l 1,12,-1
 71 384 l 1,13,-1
 39 384 l 1,14,-1
 39 480 l 1,15,-1
 135 480 l 1,16,-1
 135 384 l 1,17,-1
 167 384 l 1,18,-1
 167 288 l 1,19,-1
 199 288 l 1,20,-1
 199 192 l 1,21,-1
 231 192 l 1,22,-1
 231 160 l 1,23,-1
 263 160 l 1,24,-1
 263 288 l 1,25,-1
 295 288 l 1,26,-1
 295 384 l 1,27,-1
 327 384 l 1,28,-1
 327 480 l 1,29,-1
 423 480 l 1,30,-1
 423 384 l 1,31,-1
 391 384 l 1,32,-1
 391 288 l 1,33,-1
 359 288 l 1,34,-1
 359 192 l 1,35,-1
 327 192 l 1,36,-1
 327 96 l 1,37,-1
 295 96 l 1,38,-1
 295 0 l 1,39,-1
 263 0 l 1,40,-1
 263 -96 l 1,41,-1
 231 -96 l 1,42,-1
 231 -192 l 1,43,-1
 135 -192 l 1,0,-1
103 544 m 1,44,-1
 103 640 l 1,45,-1
 199 640 l 1,46,-1
 199 544 l 1,47,-1
 103 544 l 1,44,-1
263 544 m 1,48,-1
 263 640 l 1,49,-1
 359 640 l 1,50,-1
 359 544 l 1,51,-1
 263 544 l 1,48,-1
EndSplineSet
Validated: 1
EndChar

StartChar: oe
Encoding: 339 339 192
Width: 756
Flags: W
LayerCount: 2
Fore
SplineSet
298 96 m 1,0,-1
 298 128 l 1,1,-1
 330 128 l 1,2,-1
 330 352 l 1,3,-1
 298 352 l 1,4,-1
 298 384 l 1,5,-1
 170 384 l 1,6,-1
 170 352 l 1,7,-1
 138 352 l 1,8,-1
 138 128 l 1,9,-1
 170 128 l 1,10,-1
 170 96 l 1,11,-1
 298 96 l 1,0,-1
618 288 m 1,12,-1
 618 352 l 1,13,-1
 586 352 l 1,14,-1
 586 384 l 1,15,-1
 458 384 l 1,16,-1
 458 352 l 1,17,-1
 426 352 l 1,18,-1
 426 288 l 1,19,-1
 618 288 l 1,12,-1
170 0 m 1,20,-1
 170 32 l 1,21,-1
 106 32 l 1,22,-1
 106 64 l 1,23,-1
 74 64 l 1,24,-1
 74 128 l 1,25,-1
 42 128 l 1,26,-1
 42 352 l 1,27,-1
 74 352 l 1,28,-1
 74 416 l 1,29,-1
 106 416 l 1,30,-1
 106 448 l 1,31,-1
 170 448 l 1,32,-1
 170 480 l 1,33,-1
 298 480 l 1,34,-1
 298 448 l 1,35,-1
 362 448 l 1,36,-1
 362 416 l 1,37,-1
 394 416 l 1,38,-1
 394 448 l 1,39,-1
 458 448 l 1,40,-1
 458 480 l 1,41,-1
 586 480 l 1,42,-1
 586 448 l 1,43,-1
 650 448 l 1,44,-1
 650 416 l 1,45,-1
 682 416 l 1,46,-1
 682 352 l 1,47,-1
 714 352 l 1,48,-1
 714 224 l 1,49,-1
 426 224 l 1,50,-1
 426 128 l 1,51,-1
 458 128 l 1,52,-1
 458 96 l 1,53,-1
 586 96 l 1,54,-1
 586 128 l 1,55,-1
 618 128 l 1,56,-1
 618 160 l 1,57,-1
 714 160 l 1,58,-1
 714 96 l 1,59,-1
 682 96 l 1,60,-1
 682 64 l 1,61,-1
 650 64 l 1,62,-1
 650 32 l 1,63,-1
 586 32 l 1,64,-1
 586 0 l 1,65,-1
 458 0 l 1,66,-1
 458 32 l 1,67,-1
 394 32 l 1,68,-1
 394 64 l 1,69,-1
 362 64 l 1,70,-1
 362 32 l 1,71,-1
 298 32 l 1,72,-1
 298 0 l 1,73,-1
 170 0 l 1,20,-1
EndSplineSet
Validated: 1
EndChar

StartChar: scaron
Encoding: 353 353 193
Width: 435
Flags: W
LayerCount: 2
Fore
SplineSet
120 0 m 1,0,-1
 120 32 l 1,1,-1
 88 32 l 1,2,-1
 88 64 l 1,3,-1
 56 64 l 1,4,-1
 56 128 l 1,5,-1
 88 128 l 1,6,-1
 88 160 l 1,7,-1
 120 160 l 1,8,-1
 120 128 l 1,9,-1
 152 128 l 1,10,-1
 152 96 l 1,11,-1
 184 96 l 1,12,-1
 184 64 l 1,13,-1
 248 64 l 1,14,-1
 248 96 l 1,15,-1
 280 96 l 1,16,-1
 280 160 l 1,17,-1
 248 160 l 1,18,-1
 248 192 l 1,19,-1
 216 192 l 1,20,-1
 216 224 l 1,21,-1
 152 224 l 1,22,-1
 152 256 l 1,23,-1
 120 256 l 1,24,-1
 120 288 l 1,25,-1
 88 288 l 1,26,-1
 88 320 l 1,27,-1
 56 320 l 1,28,-1
 56 416 l 1,29,-1
 88 416 l 1,30,-1
 88 448 l 1,31,-1
 120 448 l 1,32,-1
 120 480 l 1,33,-1
 312 480 l 1,34,-1
 312 448 l 1,35,-1
 344 448 l 1,36,-1
 344 352 l 1,37,-1
 280 352 l 1,38,-1
 280 384 l 1,39,-1
 248 384 l 1,40,-1
 248 416 l 1,41,-1
 184 416 l 1,42,-1
 184 384 l 1,43,-1
 152 384 l 1,44,-1
 152 352 l 1,45,-1
 184 352 l 1,46,-1
 184 320 l 1,47,-1
 216 320 l 1,48,-1
 216 288 l 1,49,-1
 280 288 l 1,50,-1
 280 256 l 1,51,-1
 312 256 l 1,52,-1
 312 224 l 1,53,-1
 344 224 l 1,54,-1
 344 192 l 1,55,-1
 376 192 l 1,56,-1
 376 64 l 1,57,-1
 344 64 l 1,58,-1
 344 32 l 1,59,-1
 312 32 l 1,60,-1
 312 0 l 1,61,-1
 120 0 l 1,0,-1
152 512 m 1,62,-1
 152 544 l 1,63,-1
 120 544 l 1,64,-1
 120 576 l 1,65,-1
 88 576 l 1,66,-1
 88 608 l 1,67,-1
 56 608 l 1,68,-1
 56 640 l 1,69,-1
 120 640 l 1,70,-1
 120 608 l 1,71,-1
 184 608 l 1,72,-1
 184 576 l 1,73,-1
 248 576 l 1,74,-1
 248 608 l 1,75,-1
 312 608 l 1,76,-1
 312 640 l 1,77,-1
 376 640 l 1,78,-1
 376 608 l 1,79,-1
 344 608 l 1,80,-1
 344 576 l 1,81,-1
 312 576 l 1,82,-1
 312 544 l 1,83,-1
 280 544 l 1,84,-1
 280 512 l 1,85,-1
 152 512 l 1,62,-1
EndSplineSet
Validated: 1
EndChar

StartChar: Ydieresis
Encoding: 376 376 194
Width: 601
Flags: W
LayerCount: 2
Fore
SplineSet
222 0 m 1,0,-1
 222 224 l 1,1,-1
 190 224 l 1,2,-1
 190 288 l 1,3,-1
 158 288 l 1,4,-1
 158 352 l 1,5,-1
 126 352 l 1,6,-1
 126 416 l 1,7,-1
 94 416 l 1,8,-1
 94 480 l 1,9,-1
 62 480 l 1,10,-1
 62 544 l 1,11,-1
 30 544 l 1,12,-1
 30 608 l 1,13,-1
 -2 608 l 1,14,-1
 -2 640 l 1,15,-1
 126 640 l 1,16,-1
 126 576 l 1,17,-1
 158 576 l 1,18,-1
 158 512 l 1,19,-1
 190 512 l 1,20,-1
 190 448 l 1,21,-1
 222 448 l 1,22,-1
 222 384 l 1,23,-1
 254 384 l 1,24,-1
 254 320 l 1,25,-1
 286 320 l 1,26,-1
 286 384 l 1,27,-1
 318 384 l 1,28,-1
 318 448 l 1,29,-1
 350 448 l 1,30,-1
 350 512 l 1,31,-1
 382 512 l 1,32,-1
 382 576 l 1,33,-1
 414 576 l 1,34,-1
 414 640 l 1,35,-1
 542 640 l 1,36,-1
 542 608 l 1,37,-1
 510 608 l 1,38,-1
 510 544 l 1,39,-1
 478 544 l 1,40,-1
 478 480 l 1,41,-1
 446 480 l 1,42,-1
 446 416 l 1,43,-1
 414 416 l 1,44,-1
 414 352 l 1,45,-1
 382 352 l 1,46,-1
 382 288 l 1,47,-1
 350 288 l 1,48,-1
 350 224 l 1,49,-1
 318 224 l 1,50,-1
 318 0 l 1,51,-1
 222 0 l 1,0,-1
126 704 m 1,52,-1
 126 800 l 1,53,-1
 222 800 l 1,54,-1
 222 704 l 1,55,-1
 126 704 l 1,52,-1
318 704 m 1,56,-1
 318 800 l 1,57,-1
 414 800 l 1,58,-1
 414 704 l 1,59,-1
 318 704 l 1,56,-1
EndSplineSet
Validated: 1
EndChar

